<svg width="12" height="11" viewBox="0 0 12 11" fill="none" xmlns="http://www.w3.org/2000/svg">
<path fill-rule="evenodd" clip-rule="evenodd" d="M11.9106 4.42903C11.9106 4.78758 11.9566 5.03673 11.9042 5.05928C9.43186 6.11357 7.65652 7.58264 8.44672 10.6335C7.95462 10.7308 7.27636 11.072 7.00979 10.872C6.4992 10.4897 6.22173 9.79919 5.84939 9.23515C5.34591 8.47367 5.05445 7.30667 3.71855 8.27909C3.484 8.44995 2.99262 8.38256 2.65965 8.28693C1.9764 8.09069 1.32043 7.80095 0.653076 7.54942C1.11648 6.79626 1.4051 5.68691 2.07767 5.36135C3.6723 4.58967 4.90101 3.99644 3.76195 1.91159C3.59357 1.60383 4.41057 0.286616 4.87089 0.229666C5.54939 0.146139 6.89549 0.697606 6.95122 1.11263C7.2709 3.47986 8.73392 3.74895 10.6679 3.60325C11.0647 3.57359 11.4954 3.99858 11.9106 4.42903V4.42903Z" fill="#F7906C"/>
</svg>
