<svg width="750" height="750" viewBox="0 0 750 750" fill="none" xmlns="http://www.w3.org/2000/svg">
<rect width="750" height="750" fill="white"/>
<path d="M638.487 538.299C634.32 619.563 569.209 693.205 489.395 709.045C409.581 724.886 322.229 682.753 283.339 611.278C279.047 603.39 275.225 595.117 271.404 586.845C261.538 565.489 251.675 544.14 233.74 529.451C213.263 512.678 186.927 508.192 160.326 503.661C143.434 500.784 126.435 497.888 110.761 491.817C72.977 477.181 43.6396 442.508 35.4615 402.822C22.2087 338.511 64.187 272.85 120.167 238.531C176.146 204.211 243.413 194.652 308.662 187.287C333.621 184.47 353.896 165.66 368.377 145.136C373.983 137.191 379.027 128.841 384.067 120.499C392.046 107.291 400.015 94.0988 410.191 82.5474C453.279 33.6346 533.518 25.3808 588.401 60.552C643.283 95.7232 669.552 168.045 654.957 231.575C652.443 242.517 648.875 253.172 645.307 263.827L645.306 263.829C641.89 274.029 638.474 284.229 635.982 294.683C630.657 317.028 629.64 340.152 629.034 363.115C628.311 390.493 628.141 417.943 630.705 445.211C631.597 454.697 632.819 464.17 634.042 473.642C636.819 495.165 639.596 516.678 638.487 538.299Z" fill="#FF9A76"/>
<path d="M308.571 167.878C338.414 153.032 362.166 127.248 377.124 97.4605C379.085 93.5549 380.943 89.4051 380.875 85.0352C380.806 80.6654 378.263 76.0368 374.036 74.927C367.978 73.3366 362.769 79.1448 358.991 84.1404C333.041 118.458 295.27 145.399 252.648 151.274C236.279 153.531 219.659 152.683 203.157 151.831L177.381 150.5C156.621 149.428 135.572 148.378 115.251 152.759C94.93 157.139 75.0737 167.675 63.9127 185.213C60.3602 190.795 57.6992 197.373 58.6822 203.917C59.6894 210.622 64.4558 216.313 70.1972 219.921C75.9385 223.528 82.6087 225.333 89.2191 226.843C94.0589 227.949 99.0022 228.928 103.954 228.58C112.051 228.01 119.398 223.984 126.547 220.066C127.024 219.805 127.499 219.545 127.974 219.286C140.469 212.469 153.416 206.415 166.92 201.917C186.613 195.358 207.319 192.148 227.975 188.946C255.801 184.632 283.535 180.333 308.571 167.878Z" fill="#FF9A76"/>
<path d="M153.377 563.395L153.395 563.396C154.611 563.444 155.827 563.493 157.039 563.556C176.216 564.553 195.193 569.255 212.617 577.325C219.261 580.402 225.989 584.253 229.721 590.552C234.338 598.347 239.88 605.593 246.193 612.089C248.643 614.609 251.295 617.074 254.565 618.362C257.836 619.649 261.874 619.531 264.527 617.227C267.75 614.427 267.959 609.455 266.966 605.303C265.338 598.498 261.278 592.568 257.26 586.84C244.075 568.044 230.194 549.251 211.845 535.449C193.496 521.648 169.816 513.291 147.357 518.059C139.602 519.705 131.916 523.06 126.775 529.095C121.633 535.129 119.601 544.211 123.304 551.22C126.242 556.781 132.197 560.203 138.295 561.745C143.209 562.987 148.298 563.191 153.376 563.395H153.377Z" fill="#FF9A76"/>
<path d="M672.086 280.686C666.959 278.753 661.153 281.087 656.814 284.432C648.244 291.039 643.174 301.374 640.867 311.946C638.56 322.518 638.746 333.454 638.944 344.274L640.638 437.235C640.762 444.026 641.064 451.346 645.24 456.703C646.547 458.379 648.336 459.851 650.451 460.067C653.014 460.328 655.385 458.71 657.236 456.918C667.358 447.117 668.687 431.679 669.899 417.608L669.943 417.097C671.723 396.441 674.806 375.898 679.167 355.63C680.393 349.93 681.741 344.194 684.306 338.959C692.348 322.546 690.425 301.711 679.514 287.048C677.54 284.396 675.179 281.852 672.086 280.686Z" fill="#FF9A76"/>
<path d="M488.456 406.516C493.865 408.005 498.71 412.51 499.242 418.095C500.268 415.873 502.521 414.268 504.956 414.024L501.421 417.78L505.894 417.87L499.739 421.307C503.555 428.364 502.937 437.068 500.491 444.709C498.994 449.386 496.829 454.07 497.251 458.962C497.666 463.774 501.939 468.69 506.61 467.705L506.844 467.651C512.458 466.233 518.605 467.054 523.65 469.896C530.899 473.979 535.296 481.562 540.277 488.225C544.675 494.107 549.88 499.577 556.386 502.985C562.892 506.392 570.87 507.517 577.647 504.688C581.01 503.284 584.021 500.96 587.589 500.221C591.157 499.481 594.814 501.465 596.124 504.847C596.704 506.343 595.458 511.886 592.282 518.359C592.798 518.211 593.339 518.115 593.904 518.079C610.596 516.995 627.442 513.366 641.807 504.796C646.373 502.072 650.638 498.88 654.873 495.661L657.34 493.781L658.834 492.63C668.126 485.432 677.299 477.408 681.12 466.459L681.319 465.87L681.743 464.576C682.56 462.126 683.596 459.594 685.961 458.833C689.234 457.78 692.215 460.949 694.204 463.753L708.542 483.966C708.91 484.485 709.286 485.022 709.427 485.643C710.048 488.39 705.948 489.777 703.306 488.802C698.502 487.028 694.646 481.744 689.605 482.651C686.062 483.288 683.945 486.719 682.194 489.951L681.751 490.775C671.141 510.639 653.288 526.53 632.329 534.766C626.926 536.889 621.344 538.516 615.77 540.139L604.51 543.419L606.494 543.773C623.295 546.719 641.219 548.517 656.476 541.072C666.634 536.115 674.459 527.582 681.841 518.958L684.519 515.81L685.624 514.496C690.154 509.061 694.459 503.243 695.781 496.355C696.289 493.71 699.627 492.449 702.224 493.165C704.82 493.882 706.797 495.935 708.636 497.904L722.573 512.821C723.671 513.997 724.827 515.294 724.988 516.894C725.149 518.494 723.714 520.305 722.169 519.857L707.056 515.467C705.638 515.055 704.068 514.653 702.733 515.284C701.71 515.767 701.05 516.758 700.465 517.736L684.217 545.175C679.641 552.902 671.162 557.381 662.831 560.732C642.852 568.766 621.172 572.541 599.653 571.732C597.316 571.645 594.976 571.503 592.666 571.139C583.986 569.771 576.146 565.358 568.555 560.893C569.887 565.76 568.701 569.866 560.796 570.178C553.794 570.455 536.645 541.627 531.311 540.131C502.2 531.968 497.42 515.854 488.068 504.847C488.068 504.847 469.168 507.289 456.69 504.688C427.44 498.59 407.783 479.831 400.696 478.636C393.609 477.442 388.936 481.984 386.748 479.229L386.748 477.233C387.086 476.684 390.473 473.52 400.133 475.575C413.623 478.445 435.187 489.279 451.655 491.303C468.943 493.427 483.587 490.615 483.507 490.144C483.342 489.181 487.687 485.09 484.216 483.025C480.744 480.959 430.341 460.73 419.386 443.872L419.254 443.661C417.371 440.535 415.94 432.765 419.73 436.322L420.791 434.441C424.872 438.289 438.271 447.086 452.19 455.759C466.906 464.928 487.688 470.8 488.068 470.543C496.537 464.815 489.026 460.668 487.624 459.45C484.343 456.601 479.986 455.047 477.159 451.747C470.378 443.829 475.221 429.667 467.47 422.697C466.297 421.642 464.874 420.812 464.024 419.483C462.568 417.207 463.284 414.038 465.048 411.99C466.811 409.942 469.39 408.798 471.942 407.908C477.239 406.058 483.047 405.026 488.456 406.516Z" fill="white"/>
<circle cx="493" cy="447" r="2" fill="#FFB61D"/>
<ellipse cx="480.806" cy="447" rx="1.48322" ry="2" fill="#FFB61D"/>
<path fill-rule="evenodd" clip-rule="evenodd" d="M225.476 440.223C226.971 440.586 229.111 441.232 228.992 442.645C226.6 471.136 216.302 465.893 207.119 474.062C204.693 476.221 203.243 481.326 202.201 481.443C206.065 483.228 211.674 490.388 221.325 490.716C248.218 491.628 258.006 472.005 258.006 472.005C258.638 465.713 255.447 454.382 259.43 457.555C262.18 459.745 261.636 449.075 265.392 450.137C266.52 450.457 264.549 457.551 265.392 457.975C265.857 458.21 266.546 456.276 267.747 454.737C268.749 453.454 270.294 452.504 270.614 452.784C270.83 452.974 270.623 454.808 269.721 456.359C268.453 458.54 266.333 460.639 266.63 460.988C266.956 461.373 272.546 456.171 272.887 456.626C275.149 459.643 260.822 494.372 236.647 500.929L234.732 501.443C220.64 505.187 214.721 505.698 201.664 500.929C195.473 498.667 191.623 519.789 188.181 526.819C186.008 531.258 175.454 542.137 170.635 538.847C164.277 534.506 159.092 526.427 153.681 522.341L153.333 522.085C149.646 519.441 141.305 515.429 128.311 510.048L128.897 509.778C131.608 508.546 138.59 505.532 143.952 500.929C151.57 494.388 155.697 480.338 161.007 472.761C166.251 465.28 173.287 466.382 169.041 465.059C169.041 465.059 158.28 459.358 153.333 458.836C136.812 457.092 115.276 464.9 108.386 469.931C98.9328 476.835 108.325 486.995 95.2631 482.015C90.9098 480.356 102.578 458.855 118.673 450.137C141.044 438.02 162.197 434.687 183.405 453.976C192.036 461.826 192.89 468.815 195.204 474.143L194.731 472.837C220.315 471.15 181.982 445.537 213.984 439.127C217.345 438.453 220.872 439.154 224.241 439.933L225.476 440.223Z" fill="white"/>
<circle cx="209" cy="458" r="2" fill="#FFB61D"/>
<circle cx="220" cy="462" r="2" fill="#FFB61D"/>
<path fill-rule="evenodd" clip-rule="evenodd" d="M103.894 535.563C125.572 550.574 97.835 529.839 121.521 554.549C126.305 559.539 150.523 531.041 153.021 547.93C153.932 554.09 151.945 560.503 153.157 566.611C154.287 572.311 179.078 568.889 180.992 566.396C187.934 557.359 166.331 534.145 161.802 530.435C136.525 509.728 128.184 511.165 104.566 532.588L103.894 535.563Z" fill="white"/>
<path fill-rule="evenodd" clip-rule="evenodd" d="M667.836 160.355C672.088 160.863 676.042 161.335 676.042 156.38C676.042 155.2 661.731 144.842 657.491 148.831C652.038 153.961 647.707 159.843 643.512 165.541C634.706 177.502 626.499 188.65 609.765 190.311L609.563 190.333C603.076 191.116 615.161 196.874 628.733 190.311C638.065 185.798 650.48 171.523 656.377 164.742C657.92 162.968 659.017 161.706 659.495 161.268L659.618 161.163C661.628 159.613 664.808 159.993 667.836 160.355ZM688.023 173.767L702.183 185.006C704.941 187.196 701.711 191.915 698.196 192.141C696.157 192.272 694.202 191.644 692.236 191.014C690.813 190.557 689.386 190.099 687.918 189.926C679.603 188.943 673.263 196.774 668.105 203.369C663.391 209.396 658.23 215.074 652.677 220.338L651.926 221.044L651.144 221.764C646.678 225.825 641.668 229.503 635.775 230.562C627.099 232.123 618.481 227.68 611.394 222.438C609.665 221.158 607.966 219.816 606.267 218.473C601.004 214.314 595.732 210.147 589.49 207.812C584.081 210.763 579.019 214.33 574.396 218.399L574.602 218.236C582.363 226.015 587.79 236.094 590.012 246.856L588.528 246.595L587.548 246.428C578.377 244.89 568.555 243.98 560.805 248.888C558.074 250.617 555.638 253.033 553.229 255.421C551.552 257.083 549.888 258.733 548.148 260.129C548.59 260.391 549.042 260.664 549.505 260.948C558.081 264.456 567.172 266.703 576.395 267.594C577.805 267.73 579.229 267.838 580.658 267.947C587.274 268.449 593.974 268.958 599.628 272.279L601.611 273.465C604.793 275.348 608.335 277.141 611.001 274.96C611.768 274.333 612.269 273.473 612.773 272.609L612.773 272.609C613.08 272.083 613.387 271.556 613.756 271.079C614.73 269.818 616.662 268.931 617.873 269.966L618.364 273.82C618.721 271.341 621.112 269.326 623.616 269.395C626.119 269.465 628.396 271.61 628.614 274.105C629.01 278.634 623.875 281.344 619.517 282.786L596.928 290.066C588.856 292.666 579.909 291.319 572.128 287.947C564.884 284.808 558.493 280.03 552.385 275.009L551.032 273.889C546.419 270.051 540.185 265.882 534.951 268.817C544.044 269.37 550.676 277.206 556.1 284.617L556.621 285.333C557.499 286.543 558.403 287.817 558.62 289.297C559.227 293.438 554.523 296.187 550.549 297.504C553.897 299.297 552.238 304.505 549.643 307.279C545.869 311.315 540.926 314.22 535.594 315.658L535.107 317.343C535.076 317.456 535.062 317.515 535.065 317.517C537.58 317.342 539.131 320.721 538.106 323.024C537.082 325.328 534.553 326.554 532.127 327.24C524.133 329.5 515.104 327.717 508.569 322.588L507.298 323.25C501.778 326.107 496.067 328.764 489.931 329.665C483.323 330.635 476.049 329.273 471.272 324.606L471.586 325.293C472.262 326.791 472.869 328.341 472.89 329.974C472.915 331.857 471.941 333.891 470.157 334.495C467.213 335.493 464.641 332.346 463.112 329.639C462.276 331.723 463.139 334.068 463.978 336.349C464.936 338.95 465.862 341.467 464.198 343.415C462.464 345.443 459.177 344.924 456.792 343.727C447.857 339.246 443.66 327.966 445.595 318.16C447.531 308.353 454.582 300.141 462.978 294.718C457.278 290.54 453.108 284.319 451.409 277.459C451.861 278.043 453.882 276.164 456.753 273.496L456.753 273.496C462.005 268.614 470.101 261.09 476.641 261.16C477.895 261.173 479.918 262.143 481.9 263.092L481.9 263.092L481.901 263.092C483.336 263.78 484.749 264.457 485.833 264.754C485.923 264.638 486.031 264.533 486.157 264.442L484.92 263.553C482.43 261.784 479.83 260.121 476.883 259.388C473.444 258.533 469.372 259.237 467.181 262.022C461.823 268.832 455.035 274.512 447.386 278.585L451.92 286.956C450.046 287.851 447.712 287.687 445.973 286.558L445.759 286.413L445.893 286.58C448.504 289.986 446.21 295.925 441.935 296.598C437.597 298.419 433.222 292.981 433.649 288.296C433.948 285.012 435.575 282.102 437.205 279.187C437.9 277.942 438.596 276.697 439.19 275.421C441.196 271.111 442.078 266.323 442.954 261.565C444.156 255.044 445.346 248.581 449.406 243.484C452.25 239.914 456.232 237.432 460.316 235.396C476.526 227.316 495.71 225.384 513.206 230.069C516.185 219.393 522.093 209.549 530.113 201.898L530.591 201.449C533.659 198.623 537.475 196.097 541.545 196.561L541.867 196.604C545.907 197.22 549.42 194.102 552.357 191.216L553.263 190.327L553.972 189.643C559.801 184.077 566.567 178.939 574.53 178.385C581.614 177.892 588.395 181.144 594.509 184.755C601.427 188.841 608.007 193.498 614.162 198.662L615.243 199.579L615.56 199.85L615.912 200.153L616.114 200.326C621.917 205.311 628.268 210.766 635.823 210.314C643.568 209.85 649.227 203.421 654.441 197.496L654.442 197.494L654.445 197.492C654.865 197.014 655.283 196.539 655.699 196.071C662.13 188.831 669.455 182.457 676.868 176.213L680.048 173.543C681.01 172.736 682.045 171.896 683.291 171.734C685.043 171.507 686.64 172.669 688.023 173.767ZM548.029 296.499C546.456 296.185 544.308 296.322 541.587 296.909C543.379 296.916 544.887 296.884 546.112 296.813C546.705 296.74 547.295 296.648 547.875 296.531L548.029 296.499ZM489.725 261.831C490.3 261.241 490.906 260.62 491.578 260.088C492.828 259.429 494.235 259.095 495.653 259.229C500.45 259.685 504.082 264.787 503.455 269.564C500.923 275.838 494.657 279.419 488.459 282.96L488.459 282.96C484.641 285.141 480.849 287.308 477.973 290.08C478.695 288.889 479.485 287.939 480.286 287.356C482.787 285.535 485.403 283.957 487.868 282.47L487.869 282.469C489.941 281.219 491.907 280.033 493.609 278.821C496.288 276.914 498.087 275.101 499.481 273.696L499.481 273.696L499.481 273.696L499.481 273.696L499.481 273.696C500.547 272.622 501.377 271.787 502.181 271.33C502.247 271.292 505.27 265.165 497.962 261.16C492.445 258.136 489.987 261.961 488.666 264.017C488.237 264.684 487.928 265.165 487.673 265.165C487.606 265.165 487.515 265.155 487.399 265.134C487.582 264.482 487.859 263.852 488.215 263.263C488.709 262.873 489.204 262.365 489.725 261.831ZM491.285 260.25C490.031 260.977 488.954 262.033 488.215 263.263L488.033 263.4C487.669 263.665 487.304 263.859 486.927 263.948C486.168 264.127 484.359 262.74 482.828 261.565C481.912 260.862 481.095 260.235 480.66 260.065C477.796 258.941 477.46 258.926 475.474 258.831C475.138 258.815 474.756 258.797 474.306 258.771L473.482 258.72C473.302 258.709 473.103 258.701 472.891 258.692L472.891 258.692L472.89 258.692C471.244 258.623 468.875 258.523 469.348 257.243C477.81 234.341 513.965 229.357 507.987 255.246C507.493 257.387 506.195 259.26 504.897 261.134C504.248 262.071 503.599 263.008 503.051 263.978C500.715 260.658 498.169 258.908 495.414 258.728C493.878 258.627 492.645 259.244 491.578 260.088L491.285 260.25ZM556.867 239.704L556.875 239.691C554.885 243.473 552.748 248.026 550.465 253.349C552.182 248.619 554.332 244.051 556.867 239.704ZM572.987 243.192L572.71 243.203C570.504 243.295 568.525 243.625 566.773 244.193C564.829 244.823 562.761 245.876 560.568 247.352C564.405 245.227 568.646 243.805 572.987 243.192Z" fill="white"/>
<path fill-rule="evenodd" clip-rule="evenodd" d="M460.176 339.112C458.442 341.141 455.93 340.487 453.628 338.243C448.811 333.547 446.876 324.487 448.811 314.68C450.747 304.874 458.291 300.834 466.687 295.411C462.919 293.859 456.094 284.02 455.409 274.459C457.731 277.455 457.853 282.833 460.176 285.83C462.379 288.674 466.783 292.135 468.987 294.979C469.268 295.342 469.511 295.952 469.111 296.179C461.062 300.751 455.846 302.264 451.099 314.68C446.352 327.096 455.99 338.581 457.271 338.243C458.849 337.826 458.29 335.733 457.383 334.376C454.827 330.547 457.259 325.443 459.343 321.338C460.457 322.587 457.778 326.17 458.343 329.895C458.893 333.532 461.719 337.306 460.176 339.112Z" fill="#E7EAEE"/>
<circle cx="493" cy="298" r="2" fill="#FFB61D"/>
<circle cx="486" cy="290" r="2" fill="#FFB61D"/>
<path d="M186.911 309.642C188.067 311.8 186.249 314.885 183.801 314.92C181.705 303.135 179.444 290.94 172.622 281.104C159.56 262.27 132.642 256.084 121.459 236.078C113.844 241.497 102.2 240.116 96.0652 233.065C92.2498 228.679 85.5991 228.141 79.8693 229.119C74.1394 230.098 68.5415 232.261 62.7317 232.077C60.2107 231.997 57.464 231.319 55.9968 229.267C54.5296 227.216 55.3772 223.605 57.874 223.248C68.7515 221.691 79.629 220.134 90.5064 218.577C91.3606 218.455 92.2671 218.309 92.9156 217.74C93.6493 217.096 93.8797 216.066 94.07 215.109C95.6447 207.183 96.7793 197.736 90.9436 192.147C86.107 187.515 78.4735 187.675 71.9027 188.967C65.3319 190.259 58.56 192.385 52.0844 190.679C45.6088 188.973 40.1933 181.28 43.6842 175.566C46.0224 171.738 43.3859 166.633 39.7793 163.967C36.1727 161.301 31.6843 159.987 28.1885 157.177C24.6927 154.367 22.4741 148.945 25.2586 145.429C26.4832 143.882 28.4007 143.068 30.2819 142.474C36.5081 140.51 43.4505 140.36 49.4521 142.93C55.4537 145.5 60.3274 151.008 61.3041 157.463C62.0997 162.722 60.5879 168.84 64.0644 172.865C68.6096 178.128 77.0104 175.176 83.964 175.113C91.0759 175.048 98.1086 178.818 101.991 184.778C105.872 190.737 106.479 198.694 103.545 205.173C111.806 196.768 122.932 190.32 134.709 190.759C145.587 191.164 155.582 197.421 162.857 205.518C170.132 213.615 175.095 223.477 179.962 233.214C181.775 236.841 186.374 238.807 190.249 237.612C194.124 236.416 196.815 232.2 196.269 228.182C199.646 228.918 199.998 233.483 200.102 236.938C200.32 244.197 202.949 251.363 207.476 257.042C208.99 254.248 210.146 251.26 210.905 248.175C214.209 251.974 215.442 257.472 214.076 262.318C212.71 267.164 208.788 271.209 203.986 272.723C201.431 273.529 198.307 273.916 197.038 276.276C201.83 284.666 205.951 293.439 209.35 302.483C211.173 307.333 212.488 313.574 208.651 317.056C204.216 313.782 201.696 308.588 199.342 303.602C195.672 295.825 192.001 288.048 188.33 280.271" fill="white"/>
<path fill-rule="evenodd" clip-rule="evenodd" d="M208.33 257.625C201.579 250.989 198.054 241.211 199.018 231.793C196.401 234.535 193.506 237.262 189.858 238.294C186.21 239.325 181.645 238.07 180.111 234.603C175.757 224.761 170.983 214.942 163.966 206.782C156.948 198.623 147.382 192.187 136.693 190.935C126.003 189.683 114.312 194.458 109.215 203.937C108.077 206.052 104.487 204.85 103.666 202.593C103.025 200.83 103.389 198.935 103.749 197.059C103.85 196.532 103.951 196.007 104.029 195.487C105.444 186.079 98.0067 176.258 88.5675 175.069C85.7604 174.716 82.9413 175.031 80.1178 175.347C78.6446 175.512 77.1703 175.678 75.6957 175.748C71.3951 175.953 66.6373 175.119 63.8843 171.809C61.5797 169.037 61.2704 165.366 60.9596 161.677C60.8252 160.083 60.6906 158.485 60.3944 156.955C59.1935 150.754 54.9246 145.224 49.2291 142.492C43.5336 139.761 36.549 139.893 30.9611 142.839C29.3061 143.711 27.6599 144.972 27.2229 146.791C26.5395 149.636 29.0613 152.2 31.5191 153.786C32.8248 154.63 34.1849 155.39 35.5441 156.149C37.6944 157.351 39.8426 158.552 41.7705 160.078C44.9172 162.568 47.5068 166.241 47.3201 170.25C47.2545 171.657 46.8524 173.04 46.4527 174.415C45.8974 176.325 45.3466 178.22 45.7086 180.144C46.2817 183.19 49.0939 185.419 52.0829 186.239C55.0718 187.06 58.2399 186.744 61.3227 186.421L75.6298 184.924C81.0135 184.361 86.8788 183.905 91.4221 186.848C95.2055 189.298 97.3246 193.746 97.9887 198.205C98.6527 202.663 98.0466 207.202 97.4405 211.669C97.0462 214.574 95.8978 218.226 92.9704 218.396C80.6818 219.107 68.4687 221.116 56.6 224.379C62.1476 229.234 70.6044 227.492 77.7858 225.828C84.9672 224.163 93.889 223.445 98.3507 229.313C103.918 236.635 116.306 237.223 122.542 230.461C128.777 223.699 127.189 211.398 119.44 206.442C124.018 207.126 127.441 211.426 128.307 215.973C129.174 220.519 127.941 225.215 126.177 229.494L126.114 229.647C125.672 230.717 125.214 231.825 125.304 232.974C125.376 233.882 125.786 234.727 126.227 235.525C131.12 244.38 139.916 249.687 148.754 255.018C152.776 257.444 156.807 259.876 160.482 262.65C175.324 273.85 184.811 291.852 185.66 310.426L187.961 307.393C189.117 309.55 187.299 312.636 184.851 312.671C182.755 300.886 180.494 288.691 173.672 278.855C167.483 269.932 158.184 263.848 148.922 257.787C138.635 251.057 128.393 244.356 122.509 233.829C114.894 239.248 103.25 237.867 97.1152 230.815C93.2998 226.43 86.649 225.892 80.9192 226.87C78.9909 227.2 77.0776 227.663 75.166 228.126C71.3976 229.039 67.6362 229.95 63.7816 229.828C61.2606 229.748 58.514 229.07 57.0468 227.018C55.5796 224.967 56.4272 221.356 58.924 220.999L91.5564 216.328C92.4106 216.205 93.317 216.06 93.9655 215.491C94.6992 214.847 94.9297 213.817 95.1199 212.859C96.6947 204.934 97.8293 195.486 91.9935 189.898C87.157 185.266 79.5235 185.426 72.9527 186.718C71.8136 186.942 70.6685 187.191 69.52 187.441C64.0429 188.632 58.4874 189.84 53.1344 188.43C46.6587 186.724 41.2433 179.031 44.7342 173.317C47.0723 169.489 44.4359 164.384 40.8293 161.718C39.1208 160.455 37.2145 159.495 35.3095 158.537C33.1931 157.471 31.0783 156.407 29.2385 154.928C25.7426 152.118 23.5241 146.696 26.3086 143.18C27.5332 141.633 29.4507 140.818 31.3319 140.225C37.558 138.261 44.5005 138.111 50.5021 140.681C56.5036 143.251 61.3774 148.758 62.354 155.214C62.6056 156.876 62.6265 158.625 62.6473 160.366C62.6923 164.132 62.737 167.863 65.1143 170.616C68.4804 174.513 73.961 173.905 79.4023 173.302C81.3085 173.091 83.2099 172.88 85.014 172.863C92.1259 172.799 99.1586 176.569 103.04 182.529C106.922 188.488 107.529 196.445 104.595 202.924C112.856 194.519 123.982 188.071 135.759 188.51C146.637 188.915 156.632 195.172 163.907 203.269C171.182 211.366 176.145 221.228 181.012 230.965C182.825 234.592 187.424 236.558 191.299 235.362C195.174 234.167 197.865 229.951 197.319 225.932C200.696 226.669 201.048 231.234 201.152 234.689C201.37 241.948 203.999 249.114 208.526 254.792C210.04 251.999 211.196 249.011 211.955 245.926C215.259 249.724 216.492 255.223 215.126 260.069C213.76 264.915 209.838 268.96 205.036 270.474C204.556 270.625 204.056 270.762 203.552 270.899L203.552 270.9L203.552 270.9L203.552 270.9L203.551 270.9C201.372 271.495 199.118 272.111 198.088 274.027C202.88 282.417 207.001 291.19 210.4 300.234C212.223 305.084 213.537 311.325 209.701 314.807C205.266 311.533 202.746 306.338 200.392 301.353L189.38 278.021C196.653 286.66 202.033 296.883 205.035 307.769C205.279 308.653 205.59 309.646 206.415 310.046C207.191 310.421 208.343 309.618 208.048 308.892L210.098 312.679C209.033 299.585 204.364 286.803 196.738 276.106C185.773 278.193 173.772 272.463 168.5 262.625L178.705 269.82C182.183 272.273 185.994 274.831 190.248 274.704C193.037 274.62 195.642 273.378 198.151 272.159C202.531 270.033 207.044 267.805 210.19 264.09C213.336 260.374 214.753 254.733 212.223 250.574C212.276 253.385 210.737 256.173 208.33 257.625ZM207.973 308.754L208.048 308.892C208.029 308.846 208.005 308.8 207.973 308.754ZM180.57 249.479C180.207 248.769 179.967 248.298 179.863 248.313C179.667 250.893 181.452 253.154 183.134 255.12C183.726 255.811 185.149 256.296 185.245 255.391C183.094 254.419 181.462 251.225 180.57 249.479ZM177.191 264.845C179.401 266.264 186.052 265.455 184.941 263.827C184.861 263.71 184.355 263.871 183.616 264.106C182.854 264.348 181.845 264.669 180.8 264.845C180.086 264.965 179.335 264.906 178.661 264.854C178.093 264.81 177.58 264.77 177.191 264.845ZM177.445 251.392C177.445 254.708 180.698 258.234 183.345 257.78C183.627 257.731 183.179 257.41 182.417 256.863C180.919 255.788 178.208 253.843 177.445 251.392ZM189.304 265.319C187.705 265.701 189.304 271.647 192.83 271.647C193.33 271.647 193.1 271.516 192.601 271.234C191.941 270.86 190.811 270.22 190.277 269.261C189.796 268.399 189.759 267.291 189.731 266.465C189.704 265.678 189.686 265.146 189.304 265.319ZM198.438 265.499C198.238 264.638 197.532 263.977 196.758 263.551C196.13 263.205 195.048 263.207 195.003 263.923C194.996 264.035 195.181 264.099 195.455 264.193C195.812 264.316 196.321 264.491 196.758 264.894C197.796 265.85 197.551 266.272 197.323 266.664C197.168 266.931 197.021 267.184 197.292 267.583C198.158 267.403 198.639 266.36 198.438 265.499ZM189.966 256.104C189.864 256.008 189.984 255.924 190.158 255.803C190.517 255.554 191.106 255.144 190.464 254.138C189.987 253.392 189.474 253.166 189.047 252.978C188.677 252.815 188.373 252.681 188.214 252.261C190.007 251.845 191.909 253.705 191.532 255.507C191.465 255.829 191.32 256.162 191.035 256.326C190.66 256.541 190.285 256.4 189.966 256.104ZM186.531 266.905C185.426 267.276 187.479 272.179 189.555 272.784C189.636 272.73 189.448 272.461 189.14 272.018C188.69 271.373 187.983 270.359 187.479 269.109C187.073 268.103 187.14 267.454 187.177 267.098C187.217 266.71 187.221 266.673 186.531 266.905ZM665.077 161.468C660.62 162.015 657.107 165.61 654.892 169.517C653.82 171.406 652.963 173.404 652.106 175.403C651.191 177.538 650.275 179.672 649.1 181.671C643.491 191.209 632.835 196.423 622.623 200.684C620.862 201.419 617.777 201.073 618.327 199.246C635.046 196.073 649.439 182.836 653.997 166.44C654.534 164.508 652.022 162.878 650.083 163.389C648.329 163.851 647.08 165.314 645.953 166.766L645.601 167.222C636.288 179.335 622.919 189.576 607.654 190.237C606.573 190.284 605.028 189.625 605.503 188.653C616.809 188.274 627.467 182.694 635.862 175.112C644.257 167.529 650.659 158.026 656.648 148.429C657.575 146.945 659.799 147.262 661.455 147.827C666.537 149.56 671.412 151.897 675.945 154.774C678.379 156.319 676.451 160.44 673.684 161.248C672.094 161.712 670.434 161.6 668.766 161.486C667.532 161.403 666.294 161.319 665.077 161.468ZM660.735 152.016L660.344 151.898C659.155 151.556 657.827 151.367 656.869 152.105C656.498 152.392 656.233 152.787 655.989 153.19L652.807 158.555C654.477 158.941 656.078 159.625 657.512 160.566C658.683 161.334 660.296 161.363 661.495 160.639C662.693 159.914 663.416 158.471 663.279 157.077C663.228 156.557 664.08 156.416 664.436 156.798C664.702 157.084 664.781 157.476 664.86 157.866C664.887 157.999 664.914 158.131 664.948 158.258C665.082 158.763 665.494 159.307 666.006 159.203C666.525 158.71 666.809 157.979 666.759 157.265C666.945 156.527 668.095 157.185 668.273 157.924C668.451 158.663 668.785 159.714 669.519 159.517C670.598 159.25 670.938 157.747 670.412 156.767C669.886 155.788 668.828 155.234 667.819 154.767C665.519 153.701 663.151 152.782 660.735 152.016ZM651.064 160.738C652.725 162.41 655.142 163.299 657.491 163.103C656.051 161.29 653.602 160.343 651.318 160.694L651.064 160.738ZM532.127 327.24C524.133 329.501 515.104 327.717 508.569 322.588C502.654 325.688 496.539 328.695 489.931 329.665C483.323 330.635 476.049 329.273 471.272 324.606C472.061 326.316 472.866 328.09 472.89 329.974C472.915 331.857 471.941 333.891 470.157 334.495C467.213 335.493 464.641 332.346 463.112 329.639C462.276 331.723 463.139 334.068 463.978 336.349C464.936 338.95 465.862 341.467 464.198 343.415C462.464 345.443 459.177 344.924 456.792 343.727C447.857 339.246 443.66 327.966 445.595 318.16C447.531 308.353 454.582 300.141 462.978 294.718C457.278 290.54 453.108 284.319 451.409 277.459C452.57 278.957 453.431 280.697 454.292 282.438L454.292 282.438C455.153 284.179 456.014 285.92 457.176 287.418C458.277 288.84 459.679 290.019 461.081 291.199L461.081 291.199C462.483 292.378 463.885 293.558 464.987 294.979C465.268 295.342 465.511 295.952 465.111 296.179C457.062 300.751 450.177 308.036 447.893 317.006C445.609 325.977 448.787 336.566 456.67 341.42C458.059 342.275 459.716 342.962 461.293 342.545C462.871 342.128 464.054 340.148 463.148 338.791C460.592 334.963 460.281 329.745 462.365 325.64L468.97 333.047C470.489 332.656 470.864 330.613 470.46 329.098C470.332 328.618 470.156 328.144 469.981 327.671L469.981 327.67C469.604 326.651 469.228 325.635 469.329 324.569C469.477 323.008 471.514 321.611 472.591 322.752C476.886 327.305 483.788 328.596 489.966 327.594C496.145 326.592 501.804 323.626 507.339 320.703L513.871 317.254C513.4 319.138 511.873 320.72 510.006 321.257C516.312 325.787 524.744 327.211 532.188 325.002C533.47 324.621 534.786 324.095 535.618 323.047C536.449 321.999 536.584 320.295 535.579 319.412C535.457 319.305 535.32 319.21 535.183 319.116C534.914 318.93 534.647 318.745 534.493 318.463C534.261 318.038 534.621 317.322 535.065 317.517C537.58 317.342 539.131 320.721 538.106 323.024C537.082 325.328 534.553 326.554 532.127 327.24ZM487.497 293.806C486.061 293.344 484.449 294.335 483.825 295.708C483.201 297.081 483.378 298.695 483.85 300.128C484 298.512 484.206 297.294 484.817 296.231C485.081 295.773 485.898 295.341 486.615 294.961C487.544 294.47 488.307 294.066 487.497 293.806ZM486.279 289.745C488.374 289.223 490.741 290.029 492.081 291.722C493.421 293.415 493.663 295.903 492.674 297.823C492.437 297.536 492.381 297.016 492.311 296.364C492.103 294.438 491.771 291.36 486.279 289.745ZM484.462 304.626C483.799 305.454 486.108 307.641 489.719 306.133C490.388 305.853 489.842 305.821 488.982 305.771C488.197 305.725 487.15 305.664 486.527 305.385C485.999 305.15 485.729 304.773 485.526 304.49C485.226 304.072 485.075 303.862 484.462 304.626ZM491.779 307.394C494.093 306.242 492.641 309.622 487.8 309.207C487.363 309.17 486.793 309.002 486.797 308.562C486.799 308.407 487.208 308.371 487.845 308.316C488.834 308.23 490.371 308.096 491.779 307.394ZM477.501 300.979C478.372 301.829 479.64 301.852 480.485 301.688C481.001 301.589 481.254 301.128 480.781 300.979C480.671 300.944 480.488 300.915 480.268 300.88C479.765 300.801 479.07 300.692 478.604 300.41C478.305 300.23 478.135 299.614 477.988 299.086C477.838 298.543 477.713 298.093 477.501 298.304C477.083 298.721 476.63 300.128 477.501 300.979ZM478.274 303.856C478.695 304.498 477.09 304.277 476.744 303.856C476.399 303.435 476.059 301.852 476.637 301.852C476.805 301.852 476.862 302.101 476.931 302.4C476.995 302.676 477.068 302.994 477.246 303.196C477.592 303.589 477.825 303.648 477.995 303.69C478.111 303.719 478.198 303.741 478.274 303.856ZM550.493 300.671C551.358 302.4 549.844 304.339 548.383 305.607C542.447 310.761 535.353 314.573 527.778 316.679C535.941 316.735 544.068 313.241 549.643 307.279C552.238 304.505 553.897 299.297 550.549 297.504C554.523 296.187 559.227 293.438 558.62 289.297C558.403 287.817 557.499 286.543 556.621 285.333L556.1 284.617C550.676 277.206 544.044 269.37 534.951 268.817C540.185 265.882 546.419 270.051 551.032 273.889L552.385 275.009C558.493 280.03 564.884 284.808 572.128 287.947C579.909 291.319 588.857 292.666 596.928 290.066L619.517 282.786C623.875 281.344 629.01 278.634 628.614 274.105C628.396 271.61 626.119 269.465 623.616 269.395C621.112 269.326 618.721 271.341 618.364 273.82L617.873 269.967C616.662 268.931 614.73 269.818 613.756 271.079C613.387 271.556 613.08 272.083 612.773 272.609C612.269 273.473 611.768 274.333 611.001 274.96C608.335 277.141 604.793 275.348 601.611 273.465L599.628 272.279C593.974 268.958 587.274 268.449 580.658 267.947C579.229 267.838 577.805 267.73 576.395 267.594C567.172 266.703 558.081 264.456 549.505 260.948C557.37 267.397 567.646 268.48 578.012 269.572C583.236 270.122 588.482 270.675 593.454 271.918C597.398 272.904 601.757 274.914 602.725 278.862C604.13 284.596 597.319 289.037 591.441 289.573C581.827 290.45 572.459 286.361 564.296 281.143L563.378 280.548C560.424 278.609 557.561 276.523 554.699 274.438L554.699 274.437L554.698 274.437C549.447 270.61 544.201 266.787 538.405 263.882C544.392 264.183 548.763 259.848 553.229 255.421C555.638 253.033 558.074 250.617 560.805 248.888C568.832 243.805 579.081 244.962 588.528 246.595L590.012 246.856C587.79 236.094 582.363 226.015 574.602 218.236L587.939 244.456C573.897 239.778 557.057 245.624 548.934 257.996C555.204 236.838 570.119 218.382 589.49 207.812C595.732 210.147 601.004 214.314 606.267 218.473L606.268 218.474L606.269 218.474C607.967 219.817 609.665 221.159 611.394 222.438C618.481 227.68 627.099 232.123 635.775 230.563C642.014 229.44 647.264 225.383 651.926 221.044L652.677 220.338C658.23 215.074 663.391 209.397 668.105 203.369C673.263 196.774 679.603 188.943 687.918 189.926C689.386 190.099 690.813 190.557 692.236 191.014C694.202 191.644 696.157 192.272 698.196 192.141C701.711 191.915 704.941 187.196 702.183 185.007L688.023 173.767C686.64 172.669 685.043 171.507 683.291 171.734C682.045 171.896 681.01 172.736 680.048 173.543L676.868 176.213C669.455 182.457 662.13 188.831 655.699 196.071C655.282 196.541 654.863 197.017 654.441 197.496C649.227 203.421 643.568 209.851 635.823 210.314C628.268 210.766 621.917 205.311 616.114 200.326C615.822 200.076 615.532 199.826 615.243 199.579L614.162 198.662C608.007 193.498 601.427 188.841 594.509 184.756C588.395 181.145 581.614 177.892 574.53 178.385C566.242 178.962 559.251 184.504 553.263 190.327L552.357 191.216C549.42 194.102 545.907 197.22 541.867 196.604L541.545 196.561C537.475 196.097 533.659 198.623 530.591 201.45L530.113 201.898C522.093 209.55 516.185 219.393 513.206 230.069C495.71 225.385 476.526 227.317 460.316 235.396C456.232 237.432 452.25 239.914 449.406 243.484C445.346 248.581 444.156 255.045 442.954 261.565L442.954 261.566C442.078 266.323 441.196 271.111 439.19 275.421C438.596 276.697 437.9 277.943 437.205 279.187C435.575 282.102 433.948 285.012 433.649 288.296C433.222 292.982 437.597 298.419 441.935 296.598C446.281 295.914 448.58 289.787 445.758 286.412C447.517 287.672 449.968 287.888 451.92 286.956L447.386 278.585C455.035 274.513 461.823 268.833 467.181 262.022C469.372 259.237 473.444 258.533 476.883 259.388C479.83 260.121 482.43 261.784 484.92 263.553L486.157 264.442C484.715 265.491 485.546 268.279 487.327 268.367C486.178 263.688 490.857 258.774 495.653 259.23C500.45 259.685 504.082 264.787 503.455 269.564C500.923 275.839 494.656 279.419 488.458 282.96C481.733 286.802 475.089 290.598 473.385 297.739C471.668 304.934 477.216 312.991 484.549 313.953C491.883 314.915 499.322 308.561 499.518 301.167C499.518 301.167 500.603 301.279 500.987 300.128C501.593 298.314 502.166 296.306 502.734 294.315C503.802 290.572 504.852 286.892 506.064 284.694C509.464 278.53 515.793 273.65 522.83 273.48C525.065 273.426 527.286 273.095 529.504 272.763C532.338 272.34 535.167 271.918 538.019 272.075C543.103 272.355 548.676 275.332 549.41 280.371C543.772 279.276 537.889 279.461 532.331 280.907L552.008 283.248C556.33 283.762 557.138 290.452 554.058 293.527C551.154 296.425 546.73 296.902 542.589 297.086L541.84 297.117C542.564 298.593 544.363 298.746 546.164 298.899C547.961 299.052 549.759 299.204 550.493 300.671ZM655.167 214.683C649.066 221.456 641.934 228.735 632.825 229.075C624.86 229.372 617.892 224.239 611.448 219.491L610.972 219.14L609.433 218.016C602.233 212.793 594.776 207.925 587.097 203.435C581.151 199.958 574.312 196.599 567.643 198.324L578.201 201.647C576.42 202.601 575.786 205.2 576.926 206.868C577.171 204.371 580.059 202.783 582.537 203.173C585.015 203.564 587.031 205.383 588.567 207.368C575.257 212.471 563.934 222.575 557.352 235.219C556.128 237.571 555.064 240.003 553.999 242.435C552.557 245.73 551.115 249.024 549.279 252.112C546.087 257.48 541.362 262.362 535.281 263.784C534.43 263.983 533.557 264.114 532.685 264.245C530.937 264.506 529.195 264.767 527.64 265.577C527.504 265.648 527.364 265.722 527.221 265.798L527.099 265.864C525.273 266.838 523.023 268.04 521.898 266.455C520.055 263.859 517.117 262.067 513.965 261.618C519.176 244.108 532.585 229.228 549.46 222.227C550.415 221.831 550.049 220.402 549.528 219.509L541.852 206.375C541.143 205.162 541.973 203.512 543.222 202.869C544.471 202.225 545.96 202.322 547.354 202.495C556.233 203.601 564.782 207.244 571.728 212.883C572.839 213.785 574.66 214.671 575.473 213.493C567.548 205.501 556.212 201.795 545.057 200.302C554.7 199.359 564.672 202.396 572.152 208.553L572.517 208.851C574.304 210.302 576.467 211.844 578.528 210.955C570.174 202.941 558.749 198.212 547.175 197.975C549.557 196.204 551.781 194.235 554.005 192.266L554.006 192.265L554.007 192.264C556.266 190.265 558.525 188.265 560.949 186.472C565.761 182.914 571.512 180.137 577.485 180.485C581.822 180.739 585.889 182.61 589.726 184.648C597.837 188.954 605.474 194.152 612.455 200.118C612.937 200.53 613.423 200.948 613.911 201.369L613.948 201.401C620.583 207.119 627.822 213.357 636.398 212.551C641.628 212.06 646.261 208.9 649.941 205.153C651.978 203.08 653.793 200.809 655.61 198.538L655.611 198.536C657.077 196.703 658.544 194.869 660.127 193.138C662.411 190.641 665.057 188.292 668.305 187.339C671.552 186.385 675.51 187.175 677.439 189.956L655.167 214.683ZM444.997 261.071C446.173 254.635 447.336 248.27 451.685 243.585C453.815 241.29 456.54 239.638 459.314 238.187C473.505 230.764 490.056 227.939 505.906 230.233C509.784 230.794 514.591 232.97 514.528 236.653C514.505 236.878 514.483 237.104 514.463 237.329C514.503 237.098 514.524 236.873 514.528 236.653C516.108 221.255 525.077 206.768 538.181 198.518C539.343 206.621 542.893 214.367 548.273 220.538C534.015 226.543 522.176 238.09 515.817 252.194L515.716 252.416C513.91 256.37 511.045 261.225 506.862 260.241L508.933 247.445C509.123 246.271 509.298 245.001 508.742 243.95C508.121 242.778 506.793 242.237 505.498 241.847L505.044 241.715C497.547 239.593 489.136 237.555 482.289 241.274C478.667 243.241 476.067 246.539 473.636 249.924L471.83 252.46C467.546 258.442 462.748 264.058 457.509 269.224C455.398 271.305 453.117 273.373 450.291 274.269C447.466 275.165 443.955 274.562 442.278 272.118C443.616 268.625 444.309 264.836 444.997 261.071ZM491.202 310.932C486.751 312.583 483.128 311.769 479.654 309.746C478.167 308.88 476.767 307.766 475.929 306.263C474.674 304.009 474.862 301.211 475.586 298.734C476.669 295.032 478.884 291.67 481.858 289.214C483.915 287.516 486.283 286.269 488.65 285.023L488.652 285.023C489.469 284.593 490.285 284.163 491.089 283.715C498.941 279.335 505.714 273.037 510.652 265.524C511.638 264.024 513.716 263.538 515.455 263.981C517.194 264.424 518.644 265.615 519.898 266.899C520.795 267.817 521.461 269.644 520.263 270.108C511.879 273.354 505.127 280.557 502.43 289.132C502.357 289.367 502.285 289.603 502.214 289.84C501.804 291.196 501.389 292.569 500.509 293.667C499.476 294.956 497.402 299.495 498.46 301.647C498.46 301.647 495.653 309.281 491.202 310.932ZM502.833 242.997C504.192 243.301 505.671 243.739 506.416 244.915C507.027 245.878 506.988 247.102 506.892 248.237C506.514 252.73 505.569 257.174 504.088 261.432C503.837 262.152 503.065 263.017 502.501 262.504C501.862 259.281 498.917 256.66 495.641 256.4C492.365 256.14 489.043 258.263 487.904 261.345C487.679 261.954 486.888 262.18 486.262 262.012C485.792 261.886 485.39 261.602 485.007 261.295L484.627 260.986C480.724 257.816 475.443 256.409 470.48 257.216C473.124 252.767 476.478 248.741 480.376 245.336C481.971 243.943 483.702 242.629 485.716 241.976C487.613 241.361 489.65 241.367 491.64 241.468C495.406 241.66 499.155 242.172 502.833 242.997ZM680.781 186.373C678.884 184.351 676.283 182.998 673.537 182.613L676.653 178.655C677.642 177.414 678.796 176.141 680.355 175.945C681.479 175.804 682.585 176.265 683.608 176.753C687.031 178.384 690.258 180.427 693.196 182.824C694.177 183.624 695.163 184.517 695.589 185.708C696.015 186.9 695.672 188.46 694.53 189.005C693.388 189.55 691.743 188.356 692.211 187.18L692.256 187.048C692.448 186.38 692.145 185.59 691.541 185.239L690.438 187.354C690.336 187.539 690.218 187.718 690.036 187.818C689.3 188.225 688.701 187.081 688.654 186.241L688.645 186.124C688.566 185.297 688.132 184.242 687.371 184.5C687.269 185.917 686.255 187.226 684.909 187.68C683.563 188.134 681.964 187.706 681.024 186.641L680.781 186.373ZM443.16 290.795L441.828 285.742C441.195 285.565 440.577 286.199 440.487 286.851C440.427 287.285 440.524 287.714 440.654 288.138L440.859 288.769C441.543 290.914 441.526 293.276 440.811 295.411C439.491 292.708 438.802 289.7 438.814 286.692C437.953 286.219 437.367 287.661 437.429 288.641L437.801 294.49C435.996 292.864 435.359 290.224 435.668 287.813C435.976 285.403 437.108 283.177 438.381 281.107C439.045 280.026 439.781 278.943 440.837 278.241C441.894 277.539 443.349 277.299 444.428 277.965C445.325 278.519 445.741 279.503 446.163 280.5C446.482 281.254 446.804 282.016 447.34 282.606C447.53 282.815 447.752 283.028 447.977 283.246C448.849 284.087 449.781 284.986 449.171 285.892C447.293 284.739 445.575 283.325 444.082 281.704C443.542 285.052 444.037 288.561 445.482 291.629C445.778 292.257 444.801 292.855 444.186 292.534C443.571 292.212 443.337 291.466 443.16 290.795ZM623.544 274.264C624.506 273.413 625.385 272.634 625.811 272.846C627.051 273.465 623.683 276.182 621.9 276.95C622.029 277.811 623.278 277.425 624.008 276.95C624.738 276.475 626.781 275.963 626.381 276.48C623.889 279.704 619.077 282.266 614.628 282.767C612.825 282.97 610.595 282.489 610.021 280.767C609.496 279.197 610.663 277.647 611.897 276.48L612.194 276.208C612.713 275.744 613.546 275.291 614.024 275.797C615.295 277.142 617.517 276.042 618.981 274.91C618.981 274.91 622.787 271.238 623.425 271.474C624.059 271.707 621.526 275.847 621.526 275.847C622.154 275.494 622.869 274.861 623.544 274.264L623.544 274.264ZM605.328 277.672C605.783 277.568 606.258 277.752 606.651 278.004C608.081 278.922 608.764 280.858 608.227 282.47C607.689 284.082 605.982 285.221 604.287 285.098C604.046 285.081 603.795 285.035 603.607 284.884C603.211 284.567 603.261 283.962 603.349 283.462L603.988 279.811C604.142 278.929 604.455 277.87 605.328 277.672ZM524.721 269.38C527.173 268.966 529.711 269.067 532.122 269.675C531.983 270.67 530.821 271.122 529.838 271.325C526.804 271.952 523.669 272.087 520.592 271.724C521.363 270.275 523.103 269.653 524.721 269.38ZM678.422 188.405L671.988 184.605C675.158 184.132 678.539 185.797 680.096 188.599C679.65 189.006 678.942 188.712 678.422 188.405ZM537.431 264.609C534.704 265.331 532.007 266.171 529.352 267.125C532.11 268.65 536.026 267.431 537.431 264.609ZM510.769 261.16C511.52 261.315 511.179 262.496 510.58 262.975C508.757 264.431 505.987 264.556 504.039 263.271L510.769 261.16ZM681.99 173.023C682.432 172.919 682.887 173.097 683.3 173.284C685.988 174.498 688.449 176.209 690.522 178.306L681.275 173.585C681.418 173.306 681.686 173.096 681.99 173.023ZM541.122 198.53L541.213 198.593C542.048 198.473 542.909 198.544 543.712 198.798C543.011 200.124 542.035 201.304 540.864 202.241C540.278 201.079 540.381 199.599 541.122 198.53ZM699.343 185.557L699.362 185.615C700.384 186.03 701.079 187.138 701.009 188.239C698.904 187.147 697.201 185.301 696.283 183.116C697.54 183.551 698.639 184.428 699.343 185.557ZM507.9 266.259L507.747 266.468C507.214 267.192 506.579 267.979 505.686 268.083C504.792 268.186 503.877 267.031 504.507 266.389C505.565 265.915 506.808 265.867 507.9 266.259ZM444.62 275.231C445.417 275.417 446.317 275.998 446.192 276.807C444.366 276.569 442.564 276.147 440.823 275.549C442.014 275.051 443.362 274.938 444.62 275.231ZM614.199 275.076C613.784 275.256 613.409 274.499 613.803 274.278C613.803 274.278 616.525 269.503 616.643 272.846C616.702 273.679 614.942 274.696 614.199 275.076ZM499.152 299.593C499.354 298.143 499.735 295.411 500.509 295.411C501.606 295.295 501.184 297.163 500.887 298.48C500.805 298.843 500.732 299.164 500.704 299.39C500.604 300.181 499.865 300.802 499.019 300.421C499.052 300.305 499.095 300 499.152 299.594L499.152 299.593ZM434.342 454.921C434.027 455.742 433.937 458.24 433.937 458.24C426.875 453.287 428.685 448.395 429.827 445.844C428.068 447.786 427.19 450.496 427.477 453.1C420.823 450.457 417.498 441.614 420.762 435.242C444.163 455.439 476.758 472.159 512.208 475.786C505.619 473.78 498.913 472.159 492.134 470.936C496.085 469.172 495.648 463.066 492.804 459.806C491.223 457.994 489.206 456.671 487.184 455.345C485.567 454.285 483.948 453.223 482.547 451.909C477.834 447.487 476.11 440.701 475.827 434.245L475.819 434.043C475.765 432.214 476.06 430.075 477.69 429.298C482.722 426.902 488.813 426.85 493.885 429.16C499.351 431.649 503.687 438.092 501.326 443.615C499.036 448.969 496.698 454.702 497.69 460.439C498.683 466.177 504.524 471.453 510.039 469.585L510.391 469.471C516.156 467.691 522.587 469.883 527.376 473.591C531.645 476.898 534.903 481.276 538.137 485.623L538.138 485.624L538.139 485.626L538.14 485.627L538.141 485.628L538.142 485.63L538.143 485.631L538.144 485.632L538.145 485.634C538.61 486.258 539.074 486.882 539.541 487.502L539.985 488.089C544.585 494.145 549.684 499.991 556.193 503.906C562.912 507.947 571.412 509.684 578.711 506.818C580.168 506.246 581.554 505.504 582.938 504.763L582.939 504.762C584.732 503.802 586.523 502.843 588.465 502.256C591.905 501.216 596.278 501.763 598.124 504.847C597.701 501.227 593.157 499.481 589.589 500.221C587.343 500.686 585.318 501.779 583.287 502.876C582.091 503.521 580.893 504.168 579.647 504.688C572.87 507.517 564.892 506.392 558.386 502.985C551.88 499.577 546.675 494.107 542.277 488.225C541.339 486.97 540.421 485.683 539.501 484.392C535.538 478.83 531.533 473.21 525.65 469.896C520.605 467.054 514.458 466.233 508.844 467.651L508.61 467.705C503.939 468.69 499.666 463.774 499.251 458.962C498.913 455.049 500.231 451.268 501.538 447.518L501.54 447.514L501.54 447.513C501.866 446.577 502.192 445.643 502.491 444.709C504.937 437.068 505.555 428.364 501.739 421.307L507.894 417.87L503.421 417.78L506.956 414.024C504.521 414.268 502.267 415.873 501.242 418.095C500.71 412.51 495.865 408.005 490.456 406.516C485.046 405.026 479.239 406.058 473.941 407.908C471.39 408.798 468.811 409.942 467.047 411.99C465.284 414.038 464.568 417.207 466.024 419.483C466.613 420.404 467.477 421.085 468.342 421.767L468.342 421.768C468.726 422.071 469.109 422.373 469.47 422.697C473.508 426.328 474.128 431.91 474.754 437.545C475.329 442.727 475.91 447.953 479.159 451.747C480.795 453.656 482.942 454.981 485.097 456.31C486.667 457.278 488.241 458.249 489.623 459.45C492.904 462.3 494.784 467.907 491.527 470.785C464.347 466.337 420.338 433.569 420.338 433.569C420.338 433.569 416.358 445.844 420.338 449.639C443.133 471.369 460.69 477.331 483.725 485.153L483.886 485.208C484.522 485.424 484.786 486.127 484.93 486.807L484.989 487.118L487.902 504.16C469.93 507.897 451.283 503.877 433.695 498.62C430.556 497.682 427.295 496.625 424.989 494.299C422.683 491.972 421.718 487.973 423.744 485.399C440.332 491.993 458.553 494.434 476.291 492.439C478.793 492.158 481.738 491.443 482.602 489.079C462.686 492.981 441.611 490.745 422.958 482.75C421.281 482.031 419.592 481.263 417.892 480.491C408.731 476.327 399.252 472.018 389.741 474.49C388.046 474.931 386.202 475.795 385.713 477.476C385.224 479.158 387.397 481.176 388.682 479.987C387.865 480.3 387.121 479.128 387.46 478.321C387.799 477.514 388.697 477.115 389.528 476.84C397.293 474.271 406.38 476.22 412.409 481.746L413.896 489.633C411.418 489.725 409.163 488.638 406.891 487.544C405.591 486.918 404.286 486.289 402.93 485.876C399.343 484.784 396.006 486.965 394.178 490.229C394.157 490.267 393.629 490.657 393.151 490.496C392.743 490.359 392.645 489.78 392.632 489.654C392.872 486.152 396.077 483.109 399.587 483.052C400.134 483.043 400.361 482.24 400.039 481.799C399.717 481.357 399.115 481.231 398.569 481.211C397.213 481.163 395.846 481.577 394.745 482.369C394.376 482.634 394.038 482.939 393.7 483.244C393.232 483.665 392.765 484.086 392.221 484.398C391.284 484.938 388.861 484.775 389.245 483.764C390.563 480.29 394.478 479.723 397.864 479.571C398.428 479.546 398.609 478.692 398.241 478.264C397.873 477.837 397.248 477.756 396.683 477.748C394.071 477.711 391.456 478.62 389.43 480.269C388.482 481.041 388.156 482.535 388.169 483.764C388.183 484.993 389.049 485.563 390.27 485.704C391.171 485.809 392.343 485.015 393.7 484.097L393.7 484.097C394.577 483.504 395.531 482.858 396.539 482.369C397.844 481.736 399.281 482.109 399.323 482.242C399.341 482.299 399.121 482.349 398.747 482.434C397.919 482.622 396.338 482.982 394.933 483.972C392.913 485.396 391.84 487.699 391.84 488.225C391.84 489.203 391.883 489.679 392.009 489.848C392.157 490.45 392.633 491.359 393.151 491.315C394.257 491.22 394.503 490.788 394.541 490.722C394.545 490.715 394.546 490.712 394.547 490.714C395.844 487.352 400.621 487.458 404.086 488.446C410.306 490.218 416.218 492.85 422.135 495.485L422.135 495.485C425.849 497.139 429.565 498.794 433.36 500.237C451.102 506.984 470.617 509.001 489.364 506.027C494.528 518.771 506.88 526.858 518.937 533.591L524.153 536.478C535.263 542.656 546.462 549.405 552.801 560.274C553.153 560.876 553.488 561.491 553.824 562.106L553.827 562.111L553.828 562.112L553.828 562.112L553.828 562.113L553.829 562.114C554.86 564.001 555.893 565.89 557.372 567.436C559.335 569.488 562.384 570.839 565.044 569.844C567.704 568.848 568.971 564.821 566.775 563.019C567.366 565.155 566.052 567.636 563.954 568.349C561.856 569.061 559.303 567.892 558.471 565.839C553.937 554.645 544.114 546.53 533.845 540.101L532.781 539.442C529.887 537.666 526.93 535.973 523.973 534.28L523.973 534.28L523.972 534.28C516.051 529.743 508.128 525.206 501.397 519.086C492.154 510.681 485.303 498.286 487.519 485.991C497.787 491.235 508.324 496.564 519.768 497.959C513.108 495.23 506.461 492.555 499.826 489.885L499.816 489.881L499.814 489.88L499.813 489.88L499.813 489.879C483.579 483.347 467.421 476.845 451.343 469.66C447.583 467.98 436.644 460.811 435.896 459.45C434.927 457.686 435.565 455.301 436.142 453.142C436.311 452.512 436.474 451.901 436.591 451.331C436.591 451.331 434.912 453.439 434.342 454.921ZM478.82 407.401C482.029 407.434 485.235 407.747 488.39 408.335C492.517 409.103 497.109 410.841 498.503 414.801C498.898 415.925 498.986 417.117 499.073 418.312V418.312C499.136 419.163 499.198 420.015 499.372 420.846C499.688 422.353 500.359 423.743 501.031 425.136C501.462 426.029 501.894 426.924 502.233 427.852C503.101 430.226 503.211 433.22 501.371 434.953L495.768 426.591C495 425.445 493.802 424.14 492.5 424.595C487.298 426.413 481.723 427.153 476.227 426.754C474.789 426.65 473.012 426.16 472.779 424.737C474.504 424.3 476.289 424.265 478.075 424.23H478.075H478.076C478.812 424.216 479.549 424.201 480.282 424.159C482.792 424.013 485.442 423.448 487.224 421.675C487.531 421.369 487.823 420.986 487.802 420.553C487.781 420.121 487.27 419.724 486.907 419.961C482.437 422.895 476.506 423.467 471.558 421.44C469.563 420.622 467.563 419.169 467.199 417.043C466.914 415.379 467.75 413.66 469.027 412.556C470.305 411.452 471.964 410.884 473.623 410.568C476.876 409.949 480.294 410.221 483.408 411.348L483.515 411.387C485.337 412.048 487.58 412.861 488.938 411.503C485.689 409.974 482.166 409.032 478.589 408.734C478.52 408.281 478.602 407.805 478.82 407.401ZM415.617 481.74L420.703 484.662C421.041 484.857 421.095 485.314 421.109 485.704L421.385 493.057C417.63 492.124 416.861 491.418 415.798 490.039C414.111 487.851 413.896 484.635 414.07 482.01C414.013 481.362 415.053 481.416 415.617 481.74ZM499.531 443.055C499.162 443.668 498.769 444.307 498.15 444.665C497.532 445.024 496.619 444.985 496.225 444.388C497.7 442.698 498.799 440.682 499.421 438.526C498.479 438.104 497.602 439.172 497.01 440.017C496.418 440.862 495.088 441.619 494.499 440.772C494.964 439.439 495.853 438.257 497.006 437.442C497.525 437.074 498.129 436.772 498.765 436.797C500.042 436.847 500.926 438.242 500.897 439.52C500.867 440.798 500.189 441.959 499.531 443.055ZM502.863 501.366C505.383 502.097 506.911 504.522 508.325 506.768C508.411 506.905 508.497 507.042 508.583 507.177C512.923 514.031 518.907 519.836 525.89 523.966C530.271 526.556 534.991 528.474 539.713 530.393L539.714 530.394C543.621 531.981 547.529 533.569 551.249 535.54C559.467 539.892 567.164 546.939 568.478 556.145C565.135 549.689 560.193 544.068 554.217 539.926C549.448 536.62 544.123 534.294 538.791 531.964C534.967 530.294 531.14 528.622 527.512 526.586C517.12 520.755 508.454 511.889 502.863 501.366ZM526.043 510.228L525.887 509.881C525.339 508.705 524.754 507.482 523.723 506.693C522.693 505.904 521.075 505.717 520.161 506.638C519.061 507.747 517.624 508.518 516.092 508.822C517.316 511.451 519.486 513.628 522.112 514.86C523.326 515.43 524.887 515.758 525.916 514.899C527.208 513.821 526.731 511.82 526.043 510.228ZM522.36 507.544C523.678 507.772 526.376 511.274 525.053 513.649C523.731 516.023 518.437 509.958 518.437 509.958C519.209 509.919 519.907 509.249 520.56 508.623C521.195 508.013 521.787 507.445 522.36 507.544ZM675.387 478.747C655.232 503.775 623.878 519.421 591.761 520.477C589.789 520.542 588.519 522.514 587.507 524.208C582.922 531.893 576.484 538.464 568.896 543.206C567.297 544.206 564.993 545.044 563.727 543.646C571.29 540.449 577.906 535.049 582.552 528.279C582.87 527.816 583.189 527.34 583.511 526.858C586.224 522.809 589.188 518.385 593.904 518.079C610.596 516.995 627.442 513.366 641.807 504.796C646.724 501.862 651.293 498.386 655.849 494.918C666.265 486.992 677.238 478.305 681.319 465.87L681.36 465.746L681.396 465.635L681.475 465.392C682.345 462.715 683.331 459.679 685.961 458.833C689.234 457.78 692.215 460.949 694.204 463.753L708.542 483.966C708.91 484.485 709.286 485.022 709.427 485.643C710.048 488.389 705.948 489.777 703.306 488.802C701.515 488.141 699.856 486.992 698.218 485.857C695.462 483.949 692.766 482.082 689.605 482.651C685.758 483.343 683.592 487.328 681.751 490.775C671.141 510.639 653.288 526.53 632.328 534.766C626.926 536.889 621.343 538.516 615.77 540.139L604.51 543.419C621.875 546.563 640.616 548.811 656.476 541.072C667.536 535.675 675.832 526.037 683.8 516.658C688.948 510.599 694.282 504.164 695.781 496.355C696.289 493.71 699.627 492.449 702.224 493.165C704.82 493.882 706.796 495.935 708.635 497.904L722.573 512.821C723.671 513.997 724.827 515.294 724.987 516.894C725.148 518.494 723.713 520.305 722.169 519.857L707.055 515.467C705.638 515.055 704.068 514.653 702.733 515.284C701.637 515.802 700.958 516.903 700.34 517.946L684.217 545.175C679.641 552.902 671.162 557.381 662.831 560.732C642.852 568.766 621.172 572.541 599.653 571.732C597.316 571.645 594.976 571.503 592.666 571.139C583.598 569.71 575.448 564.958 567.541 560.295C566.306 559.567 565.19 557.46 566.58 557.112L571.303 559.824C577.255 563.241 583.296 566.695 589.935 568.431C599.057 570.817 608.681 569.809 618.049 568.747C639.174 566.351 661.819 563.066 677.317 548.514C686.597 539.8 692.214 527.98 697.621 516.456C699.597 512.242 705.673 512.206 710.008 513.901C711.031 514.302 712.052 514.764 713.075 515.227L713.075 515.228L713.076 515.228L713.076 515.228L713.077 515.228C716.389 516.728 719.727 518.24 723.239 517.688C717.253 510.296 710.974 503.142 704.421 496.248C702.422 494.146 698.582 495.343 697.041 497.801C695.501 500.259 695.587 503.363 695.724 506.26C698.041 507.562 699.923 509.624 701.006 512.051C699.492 512.59 698.146 511.015 697.153 509.751C696.16 508.488 694.194 507.333 693.128 508.536L674.93 529.079C672.46 531.867 669.978 534.666 667.117 537.051C660.051 542.94 651.011 545.999 641.945 547.552C626.103 550.266 609.544 548.67 594.512 542.98C618.814 538.296 643.759 530.889 661.636 513.774C669.333 506.404 675.411 497.502 680.715 488.259C682.337 485.434 684.142 482.35 687.205 481.239C690.72 479.965 694.171 481.734 697.676 483.529C700.814 485.138 703.995 486.768 707.304 486.255C701.937 477.857 696.071 469.779 689.748 462.075C689.168 461.368 688.464 460.604 687.55 460.591C686.3 460.574 685.532 461.915 685.041 463.064L681.377 471.645C680.555 473.57 679.805 476.014 681.208 477.568C681.555 477.952 681.998 478.227 682.441 478.502C682.873 478.769 683.304 479.037 683.647 479.406C684.344 480.153 684.314 481.721 683.303 481.869C682.376 480.488 681.396 479.058 679.946 478.244C678.495 477.43 676.43 477.452 675.387 478.747ZM486.838 450.863C488.609 450.705 490.255 449.541 490.993 447.923C490.751 446.979 489.354 447.617 488.549 448.167C486.69 449.437 483.865 448.972 482.511 447.173C481.86 447.117 481.857 448.166 482.229 448.703C483.241 450.164 485.067 451.02 486.838 450.863ZM479.41 433.437C478.061 433.638 476.918 434.815 476.758 436.17C478.764 434.47 479.426 434.648 480.546 434.95C481.096 435.099 481.757 435.277 482.744 435.277C482.195 434.028 480.759 433.236 479.41 433.437ZM485.68 444.375L487.215 443.717C487.824 444.873 486.9 446.45 485.614 446.682C484.327 446.914 483.008 445.979 482.575 444.746C482.141 443.512 482.482 442.1 483.227 441.026C483.824 441.35 483.86 442.1 483.894 442.821C483.903 443.01 483.911 443.196 483.93 443.372C484.02 444.224 485.192 445.082 485.591 444.324L485.68 444.375ZM492.052 434.788C491.517 433.511 491 433.406 489.058 433.25C487.116 433.094 482.744 436.223 489.243 434.296C489.394 434.251 489.954 434.411 490.536 434.577L490.537 434.577C491.328 434.803 492.158 435.039 492.052 434.788ZM488.51 436.607C489.582 437.457 489.271 440.845 487.688 440.208C487.024 439.941 486.231 434.8 488.51 436.607ZM540.766 525.605C539.949 525.565 539.368 526.704 539.88 527.342L539.885 527.328C540.464 527.45 541.104 527.174 541.414 526.67C541.372 526.242 541.127 525.839 540.766 525.605ZM526.402 520.567L525.286 520.737C525.063 520.421 524.995 520.002 525.105 519.631C525.612 518.984 526.879 519.811 526.491 520.535L526.402 520.567ZM532.861 523.64C532.497 524.203 532.585 525.314 533.232 525.138L533.249 525.114C533.726 525.055 534.167 524.761 534.406 524.343L532.861 523.64ZM512.797 508.645C513.156 508.36 513.77 508.523 513.941 508.947C514.112 509.371 513.783 509.914 513.327 509.958C512.832 509.839 512.586 509.148 512.896 508.743L512.797 508.645ZM478.765 438.622C478.733 439.678 479.383 440.287 480.005 440.287C480.646 440.287 480.926 437.626 480.005 437.108C479.084 436.589 478.797 437.565 478.765 438.622ZM191.935 311.659C191.606 312.182 190.75 312.399 190.375 311.906C191.356 310.875 191.154 308.974 189.978 308.172C190.162 310.766 188.214 313.344 185.668 313.876C187.323 316.005 191.035 315.143 192.525 312.895C194.015 310.647 193.884 307.721 193.519 305.049C192.182 295.258 188.481 285.97 184.81 276.795C183.222 278.788 184.313 281.69 185.35 284.017C188.991 292.187 191.301 300.949 192.163 309.853C192.223 310.468 192.264 311.135 191.935 311.659ZM255.782 474.677C248.796 486.04 233.366 487.963 220.046 488.694C214.839 488.98 213.111 495.725 212.818 500.931C225.946 502.596 240.465 497.947 250.769 489.644C261.073 481.34 272.488 460.169 272.065 457.824C271.642 455.48 266.63 460.988 266.63 460.988C266.63 460.988 270.85 454.661 269.663 453.669C268.907 453.038 267.779 454.756 266.846 456.176L266.846 456.176C266.396 456.861 265.992 457.477 265.696 457.727C265.709 457.712 265.722 457.693 265.737 457.672C265.754 457.646 265.773 457.616 265.793 457.58C265.518 457.644 265.783 456.831 266.149 455.709C266.23 455.458 266.317 455.192 266.404 454.917C266.843 454.149 267.439 453.416 268.177 452.949C272.146 450.439 270.812 454.325 270.194 456.125C270.037 456.583 269.926 456.906 269.961 456.955C270.017 457.034 270.264 456.853 270.595 456.611C271.206 456.164 272.104 455.507 272.608 455.902C273.959 456.549 272.446 462.379 271.259 464.878L271.096 465.218C265.03 477.793 256.024 489.268 243.992 496.352C231.961 503.437 216.697 505.671 203.774 500.386C199.253 498.537 195.455 504.168 193.783 508.757L188.78 522.493C186.225 529.506 182.939 537.297 175.975 539.983C182.221 556.267 184.23 574.154 181.751 591.417C180.893 597.4 179.312 603.662 174.975 607.871C167.624 615.003 155.664 613.492 145.855 610.545L140.891 609.034C132.535 606.518 123.836 604.35 115.923 607.548C114.505 608.122 113.155 608.857 111.806 609.592C109.906 610.628 108.009 611.662 105.931 612.235C102.378 613.216 97.8044 612.26 96.4242 608.842C100.253 601.352 105.566 594.625 111.966 589.166C112.947 588.33 114.106 587.475 115.386 587.624C116.867 587.795 117.686 589.107 118.52 590.444C118.926 591.096 119.336 591.753 119.828 592.287C121.744 594.367 124.909 594.493 127.759 594.413L160.494 593.351C157.129 585.726 154.891 577.604 153.876 569.331L163.834 594.251C156.933 596.027 149.746 596.687 142.637 596.198L141.616 596.122C141.439 596.108 141.261 596.094 141.084 596.08H141.083C138.19 595.849 135.268 595.616 132.487 596.38C129.206 597.282 126.129 600.051 126.176 603.453L154.266 610.014C158.889 611.073 163.778 611.958 168.167 610.253C175.126 607.549 178.206 599.437 179.364 592.061C180.432 585.256 180.548 578.301 179.707 571.464L179.655 571.08C179.53 570.242 179.301 569.387 178.648 568.874C178.024 568.383 177.179 568.338 176.377 568.346L154.053 568.741C150.064 568.812 148.91 563.069 150.318 559.336C150.641 558.479 151.029 557.616 151.417 556.749L151.418 556.749C152.723 553.839 154.047 550.887 153.035 547.984C151.131 542.523 143.012 542.839 138.116 545.92C136.669 546.83 135.281 547.896 133.895 548.96C130.71 551.404 127.535 553.84 123.68 554.377L123.241 554.43C118.029 554.95 113.724 558.49 109.812 562.028L62.0443 605.582C61.2886 606.271 60.4613 606.994 59.4452 607.111C58.4401 607.226 57.4867 606.722 56.6198 606.182L56.4354 606.066C49.3148 601.549 42.7847 596.103 37.0632 589.908C34.4798 587.112 38.2993 582.482 42.1052 582.373C44.3668 582.308 46.5098 583.067 48.6637 583.83C50.1347 584.351 51.6107 584.874 53.1331 585.137C61.5524 586.594 69.1042 580.108 74.92 573.848C85.6168 562.335 95.3292 549.908 103.917 536.746L101.211 533.39L136.481 512.421C134.563 512.18 132.887 510.61 132.522 508.712C142.143 506.844 147.889 497.232 152.276 488.422L152.879 487.209C157.224 478.509 162.675 469.091 172.062 466.863C165.183 459.557 154.501 456.775 144.49 457.478C134.758 458.162 125.488 461.757 116.59 465.783L115.828 466.129C112.051 467.852 107.854 470.209 107.086 474.289C106.93 475.121 106.933 475.976 106.936 476.829C106.94 477.923 106.944 479.013 106.611 480.046C106.019 481.886 103.448 483.273 102.191 481.806C102.998 484.306 99.7853 486.743 97.3074 485.871C94.8295 485 93.6208 482.01 93.9581 479.406C94.2955 476.801 95.8105 474.515 97.3584 472.393C109.769 455.379 128.718 441.5 149.777 441.468C167.966 441.441 185.712 452.62 193.541 469.037C195.138 472.387 200.777 471.347 202.433 468.026C204.09 464.704 202.937 460.694 201.382 457.324L201.017 456.546C200.882 456.262 200.745 455.977 200.607 455.692L200.606 455.688C199.241 452.853 197.855 449.973 197.892 446.862C197.9 446.261 197.961 445.661 198.023 445.061C198.113 444.174 198.204 443.288 198.119 442.402C198.046 441.642 197.844 440.895 197.643 440.151C197.356 439.09 197.071 438.034 197.161 436.949C197.315 435.102 199.518 433.298 200.938 434.49C200.04 429.263 205.242 423.953 210.486 424.743C213.168 425.146 215.376 426.761 217.602 428.389C219.265 429.604 220.938 430.827 222.827 431.56C227.353 433.314 232.943 431.77 235.928 427.941C237.854 431.229 235.968 435.422 233.674 438.465L233.224 439.054C233.042 439.289 232.859 439.525 232.675 439.761C230.625 442.39 228.505 445.111 228.407 448.38C228.076 459.443 219.945 469.83 209.285 472.807C205.086 473.98 205.082 480.617 208.426 483.414C211.672 486.129 216.278 486.227 220.53 486.115L222.268 486.065C229.718 485.834 237.334 485.386 244.045 482.202C251.163 478.824 257.035 471.504 256.177 463.672C256.123 463.182 256.045 462.687 255.967 462.19L255.967 462.19C255.708 460.551 255.447 458.9 256.06 457.393C256.858 455.429 260.155 454.578 260.947 456.545C260.452 454.077 263.242 449.43 266.097 449.801C267.78 450.019 267.088 452.751 266.404 454.917C265.946 455.719 265.66 456.558 265.563 457.171C265.582 456.887 265.619 456.522 265.661 456.114L265.661 456.113C265.838 454.371 266.097 451.835 265.346 451.432C263.519 450.453 262.357 455.668 261.725 458.499C261.64 458.883 261.564 459.224 261.497 459.499C261.497 459.499 259.689 455.343 257.429 456.955C256.422 457.672 256.634 460.213 256.889 463.28C257.208 467.098 257.594 471.73 255.782 474.677ZM265.626 457.78C265.649 457.765 265.672 457.747 265.696 457.727C265.668 457.76 265.645 457.777 265.626 457.78ZM265.626 457.78C265.547 457.793 265.538 457.558 265.563 457.171C265.521 457.44 265.515 457.665 265.547 457.824C265.572 457.814 265.598 457.799 265.626 457.78ZM174.69 537.237C178.508 537.704 181.096 533.567 182.659 530.052L200.068 490.908C201.09 491.41 201.117 492.693 201.142 493.91C201.148 494.206 201.154 494.498 201.174 494.774C201.404 497.907 204.956 500.324 207.955 499.388C211.254 498.357 212.635 494.557 213.426 491.162L213.489 490.887C213.704 489.935 213.877 488.826 213.251 488.077C211.129 485.535 207.589 484.981 204.259 484.461C204.037 484.427 203.817 484.392 203.598 484.357C203.475 484.338 203.352 484.318 203.23 484.298C199.622 483.708 195.493 482.141 194.618 478.591C191.109 464.354 180.225 452.15 166.48 447.041C154.288 442.51 140.371 443.512 128.445 448.702C116.735 453.798 106.085 462.565 98.9028 473.131C98.9028 473.131 94.6311 478.958 95.3727 481.806C95.5847 482.62 98.4325 481.806 98.4325 481.806C98.4325 481.806 97.9432 483.878 98.9028 484.203C99.5561 484.425 101.003 482.203 101.537 481.382C101.642 481.221 101.712 481.114 101.734 481.09C102.003 480.79 102.446 480.76 102.923 480.727C103.814 480.665 104.824 480.594 105.056 478.757C105.152 477.997 105.207 477.222 105.262 476.448C105.451 473.805 105.638 471.175 107.444 469.2C109.78 466.646 112.976 465.076 116.123 463.636C124.709 459.708 133.676 456.271 143.074 455.365C152.473 454.459 162.43 456.312 169.902 462.085C171.71 463.482 174.115 461.6 175.681 459.882L175.81 459.739C177.371 457.984 180.359 456.386 181.737 458.287L181.121 458.566C178.96 459.555 176.777 460.704 175.517 462.694C174.137 464.874 174.53 468.363 176.923 469.328C176.95 470.571 175.26 469.921 173.948 469.417C173.767 469.347 173.593 469.28 173.432 469.221C172.369 468.834 171.187 469.205 170.156 469.672C162.699 473.046 158.585 480.758 154.97 488.253L153.71 490.882C149.756 499.131 144.219 508.008 135.243 509.774L138.914 511.67C149.933 517.401 160.897 523.628 168.967 532.996L169.711 533.858C171.101 535.444 172.645 536.987 174.69 537.237ZM145.303 533.873C149.774 537.676 153.182 542.859 154.304 548.621C154.821 551.279 153.897 554.185 152.997 557.013C151.947 560.315 150.931 563.512 152.276 566.091C161.294 567.392 168.556 566.833 177.557 566.14L178.191 566.091C178.733 566.05 179.314 565.989 179.726 565.635C180.459 565.006 180.284 563.848 180.044 562.913L176.428 548.787C175.625 545.704 174.681 542.588 172.652 540.155C164.459 530.326 154.276 522.163 142.9 516.305L142.35 516.026C141.239 515.478 140.072 515.008 138.844 515.02C137.26 515.035 135.806 515.848 134.432 516.637L104.034 534.106C111.428 538.032 117.59 544.241 121.461 551.664C122.445 553.551 125.298 552.36 126.978 551.053C133.254 546.172 140.4 542.413 147.977 540.004C146.436 538.335 145.478 536.138 145.303 533.873ZM118.129 549.894C115.495 546.252 112.454 542.905 109.082 539.934C108.427 539.358 107.651 538.76 106.784 538.857C106.083 538.936 105.522 539.453 105.024 539.952C99.9008 545.09 95.7213 551.224 91.5648 557.324C84.9382 567.05 78.37 576.689 68.1307 582.07L68.5774 582.757C69.6308 584.359 70.7788 585.931 72.3844 586.956C74.2194 588.127 76.8328 588.379 78.471 586.945L117.76 552.558C118.182 552.189 118.635 551.758 118.67 551.198C118.7 550.718 118.411 550.283 118.129 549.894ZM224.498 444.326L223.495 444.018C221.149 443.306 218.761 442.672 216.318 442.701C213.526 442.733 210.6 443.775 208.969 446.041C207.543 448.023 207.343 450.487 207.142 452.975C206.983 454.945 206.822 456.93 206.05 458.703C204.878 458.542 204.665 456.993 204.764 455.785L204.778 455.636C204.908 454.411 204.675 452.729 203.449 452.616C202.911 454.417 203.679 456.21 204.445 457.997C204.714 458.625 204.983 459.252 205.194 459.879C206.23 462.947 205.84 466.465 204.157 469.231C202.474 471.998 199.53 473.962 196.33 474.453C195.624 474.562 195.413 475.485 195.487 476.196C195.857 479.761 199.634 482.579 203.157 481.919C202.933 476.35 206.685 470.86 211.933 469.007L212.221 468.91C220.274 466.299 225.498 457.981 226.527 449.577C226.776 447.548 226.452 444.931 224.498 444.326ZM47.2181 585.413L46.9662 585.704C45.6702 587.252 44.515 589.485 45.8771 590.884C50.2009 595.326 55.0814 599.226 60.3683 602.463C60.874 602.773 61.5737 603.062 62.0054 602.656L70.912 594.268C71.2919 593.91 71.5549 593.104 71.0378 593.034C68.3988 592.676 65.951 591.108 64.5109 588.869L64.2062 588.379C63.5513 587.368 62.4769 586.229 61.6092 586.845L61.5061 586.927C60.8224 587.537 59.8754 587.615 58.9361 587.692C58.6389 587.716 58.3423 587.74 58.0552 587.781C56.8607 587.952 55.4921 588.898 55.829 590.057C56.0548 590.833 54.678 591.154 54.1583 590.534C53.776 590.078 53.7093 589.471 53.6427 588.865C53.6188 588.647 53.5949 588.43 53.5564 588.22C53.4107 587.424 52.743 586.54 51.9712 586.782C51.8868 587.701 51.7321 588.746 50.9649 589.26C50.1978 589.774 48.8238 588.974 49.2706 588.166C49.9669 586.906 48.6242 585.105 47.2181 585.413ZM122.783 603.477C123.868 603.557 124.598 602.373 124.855 601.315C124.9 601.132 124.94 600.944 124.98 600.755C125.174 599.853 125.372 598.925 126.068 598.354C126.721 597.819 126.07 596.613 125.226 596.595C124.382 596.577 123.704 597.323 123.389 598.106C123.235 598.49 123.139 598.893 123.042 599.296C122.942 599.716 122.842 600.136 122.676 600.534C122.352 601.313 121.651 602.045 120.808 601.995C119.942 601.388 120.388 600.298 120.847 599.179C121.292 598.091 121.749 596.975 121.026 596.245L117.298 592.483C117.085 592.268 116.839 592.038 116.536 592.032C116.261 592.028 116.029 592.208 115.826 592.401L106.272 601.861C104.927 603.193 103.479 604.778 103.604 606.668C103.719 608.403 105.403 609.876 107.138 609.759C108.872 609.642 110.343 607.956 110.224 606.221L110.195 605.811C110.154 605.149 110.171 604.428 110.759 604.272L111.951 607.011L114.442 604.551C113.499 603.911 113.232 602.465 113.884 601.531C114.779 602.153 115.245 603.335 115.016 604.4C117.514 603.599 120.167 603.283 122.783 603.477ZM37.4326 586.731C43.3573 594.459 50.9478 600.905 59.5349 605.498C60.0902 605.795 60.8844 605.373 60.9487 604.747C53.0145 600.592 45.9447 594.795 40.3153 587.829L40.1293 587.611C39.3779 586.777 38.2095 585.994 37.4326 586.731ZM113.026 590.128C108.559 594.317 104.437 598.874 100.718 603.739C100.305 604.279 99.9162 605.112 100.43 605.558C105.157 600.14 110.131 594.939 115.332 589.974C115.157 589.041 113.719 589.479 113.026 590.128ZM65.5824 586.753C67.2403 588.953 69.5543 590.653 72.15 591.576C72.5313 591.712 72.9328 591.832 73.3347 591.785C74.0405 591.702 74.6288 591.036 74.6241 590.326C71.9606 589.529 69.5658 587.863 67.8867 585.647L67.4961 585.116C66.975 584.431 66.2574 583.725 65.5103 584.061C64.5651 584.487 64.9585 585.925 65.5824 586.753ZM201.559 450.115C201.78 448.914 200.747 447.642 199.527 447.613C199.272 449.465 199.94 451.421 201.274 452.729C201.645 451.924 201.756 451.002 201.587 450.132L201.559 450.115ZM223.254 447.613C223.09 447.615 222.928 447.63 222.774 447.643C222.214 447.692 221.758 447.733 221.67 447.141C221.984 445.967 223.899 446.082 224.554 447.107C225.031 447.854 224.526 447.776 223.922 447.682C223.698 447.648 223.46 447.611 223.254 447.613ZM224.343 452.604C224.334 452.639 224.325 452.675 224.316 452.71C224.2 453.155 224.074 453.645 223.677 453.87C223.009 454.251 222.146 453.542 222.074 452.776C222.001 452.011 222.758 449.486 223.254 449.448C224.539 449.448 224.809 450.84 224.343 452.604ZM215.608 447.826C214.849 449.159 214.943 450.93 215.839 452.174C216.735 453.419 217.478 449.669 217.478 449.669C217.578 449.098 217.675 448.491 217.453 447.956C217.232 447.42 216.559 447.03 216.057 447.318C215.858 447.432 215.721 447.628 215.608 447.826Z" fill="#00160A"/>
<path fill-rule="evenodd" clip-rule="evenodd" d="M184.261 262.125C184.413 261.146 185.717 260.581 186.66 260.917C187.603 261.253 188.444 262.605 187.754 263.37C186.66 264.581 183.968 264.025 184.261 262.125Z" fill="#FFB61D"/>
<path fill-rule="evenodd" clip-rule="evenodd" d="M594.67 515.609C594.053 516.126 592.817 516.313 592.702 515.517C595.108 513.069 596.763 509.894 597.391 506.52C598.176 506.31 598.403 507.56 598.206 508.349C597.542 511.007 596.768 513.848 594.67 515.609Z" fill="#00160A"/>
<path d="M63.6262 224.025C63.6018 224.814 62.405 224.768 61.6813 224.453C61.9418 223.749 62.9979 223.513 63.5329 224.04L63.6262 224.025Z" fill="black"/>
<path fill-rule="evenodd" clip-rule="evenodd" d="M405.136 440.768C404.302 441.51 402.899 440.376 403.023 439.267C403.147 438.157 404.13 437.364 405.072 436.766C408.451 434.626 412.364 433.336 416.354 433.047C416.461 434.569 414.489 435.197 412.992 435.489C409.816 436.108 406.79 437.484 404.236 439.471C404.698 439.754 405.032 440.237 405.136 440.768V440.768Z" fill="#00160A"/>
<path fill-rule="evenodd" clip-rule="evenodd" d="M416.467 442.709C414.595 443.612 412.69 444.447 410.757 445.211C410.976 446.026 412.148 445.999 412.943 445.713C413.737 445.426 414.782 445.124 415.297 445.794C413.99 447.789 410.752 448.1 409.089 446.39C408.366 445.647 407.057 446.136 406.123 445.685C404.787 445.04 405.036 443.022 405.823 441.764C407.465 439.137 410.597 437.517 413.69 437.695C414.868 437.763 416.275 438.344 416.353 439.521C412.659 439.289 408.893 440.812 406.399 443.547C407.816 444.643 409.848 443.825 411.446 443.015C413.044 442.206 415.154 441.49 416.467 442.709Z" fill="#00160A"/>
<path fill-rule="evenodd" clip-rule="evenodd" d="M219.826 453.187C220.886 454.248 221.326 454.733 221.326 456.294C221.326 457.854 220.48 458.855 219.051 459.313C218.393 459.525 217.481 459.363 217.31 458.693C222.07 457.721 220.321 455.646 219.826 453.187Z" fill="#00160A"/>
<path fill-rule="evenodd" clip-rule="evenodd" d="M213.476 446.55C213.983 444.866 216.192 443.956 217.738 444.794C218.35 445.125 218.859 445.728 218.891 446.423C217.086 446.465 215.599 445.298 213.476 446.55Z" fill="#00160A"/>
<path fill-rule="evenodd" clip-rule="evenodd" d="M217.797 461.59C207.728 456 215.611 463.163 217.797 461.59Z" fill="#00160A"/>
</svg>
