<svg width="200" height="201" viewBox="0 0 200 201" fill="none" xmlns="http://www.w3.org/2000/svg">
  <path fill-rule="evenodd" clip-rule="evenodd" d="M187.7 178.885C182.476 133.274 211.983 41.0628 166.619 16.3975C96.2507 -21.864 -6.34537 31.5765 0.691221 117.869C5.66664 178.885 193.608 230.465 187.7 178.885Z" fill="#FF9A76"/>
  <path d="M119.306 37.7185C119.131 37.2066 118.93 36.7379 118.864 36.2509C118.728 35.2487 118.619 34.2384 118.581 33.2284C118.502 31.1325 118.477 28.6867 118.432 26.5896C118.425 26.2698 118.362 25.9429 118.877 25.9248C119.393 25.9067 121.854 24.3362 121.854 25.5285C121.854 28.0034 122.2 31.7913 122.416 34.2232C122.486 35.0089 122.812 35.6492 122.829 36.5616C122.857 38.0994 120.142 37.7004 119.306 37.7185Z" fill="white"/>
  <path fill-rule="evenodd" clip-rule="evenodd" d="M84.989 15.3691C84.449 15.4157 83.9094 15.4967 83.3689 15.5035C80.0169 15.546 76.6645 15.5685 73.3125 15.6107C73.1117 15.6132 72.2152 15.6158 72.0144 15.6185C71.135 15.6302 70.2557 15.6434 69.3764 15.6589C68.9652 15.6661 69.2498 15.6786 68.8387 15.6946C67.3768 15.7518 65.9158 15.8546 64.4543 15.9293C63.6343 15.9713 62.8133 16.0043 61.9953 16.0718C59.8575 16.2482 49.373 16.7945 47.2353 16.9719C46.7309 17.0138 46.4412 17.1392 46.483 17.7603C46.5771 19.1596 46.6129 44.914 46.6243 46.3167C46.6276 46.7284 46.7419 46.8194 47.124 46.7869C48.4126 46.6775 58.0518 46.2451 59.3418 46.1535C60.6781 46.0587 62.014 45.9539 63.3514 45.8765C65.1766 45.7709 67.0034 45.6909 68.8288 45.5892C69.091 45.5746 69.3484 45.4892 69.6105 45.4557C70.7406 45.3113 71.8699 45.1574 73.0029 45.0389C74.104 44.9238 75.208 44.8288 76.3129 44.7583C78.7014 44.6059 81.09 44.4441 83.481 44.3439C85.6274 44.2541 87.7772 44.2428 89.9254 44.1946C91.9338 44.1496 93.9421 44.0984 95.9506 44.056C98.3319 44.0056 100.713 43.9558 103.095 43.9167C106.292 43.8641 109.489 43.8294 112.686 43.7722C114.275 43.7437 115.864 43.6847 117.452 43.6347C118.808 43.5919 120.164 43.5251 121.52 43.4991C124.53 43.4413 127.541 43.399 130.552 43.3566C134.122 43.3063 137.692 43.2848 141.262 43.2082C143.764 43.1545 150.092 43.0336 152.593 42.9232C152.715 42.9178 152.929 42.7268 152.932 42.6187C152.956 41.4306 152.946 15.8917 152.947 14.7031C152.948 14.1993 152.657 13.9149 152.203 13.8401C151.669 13.7523 151.125 13.7123 150.584 13.6951C148.739 13.6366 143.067 13.5518 141.222 13.5589C134.529 13.5848 127.835 13.6366 121.142 13.6937C120.397 13.7 119.652 13.7061 118.907 13.7129C116.245 13.737 113.583 13.7688 110.922 13.8463C109.276 13.8943 107.636 14.1216 105.991 14.2472C103.999 14.3993 102.005 14.531 100.012 14.6691C99.2858 14.7194 98.559 14.7618 97.8326 14.8098C95.7229 14.9491 93.6149 15.126 91.5032 15.2189C89.3803 15.3123 87.2538 15.3224 84.989 15.3691Z" fill="white"/>
  <path fill-rule="evenodd" clip-rule="evenodd" d="M42.9583 4.67025C42.0323 4.58044 41.1151 4.4001 40.1943 4.25783C40.1316 4.24815 40.0726 4.21488 40.0119 4.19259C40.0698 4.16826 40.1259 4.13733 40.186 4.12182C40.2297 4.11053 40.2787 4.12057 40.3253 4.11947C42.3108 4.07301 44.2967 4.04066 46.2816 3.97606C48.6679 3.89838 51.0534 3.7962 53.439 3.69849C54.3525 3.66108 55.265 3.59702 56.1786 3.56235C57.6276 3.50737 59.0773 3.47031 60.5264 3.41917C61.6962 3.37788 62.8655 3.3242 64.0352 3.28095C66.6074 3.18585 69.1799 3.09684 71.752 2.99912C72.7354 2.96176 73.7178 2.89627 74.7014 2.86325C76.3602 2.80755 78.0197 2.77216 79.6786 2.71934C80.8951 2.68061 82.1109 2.6242 83.3273 2.5819C84.7765 2.53151 86.226 2.49174 87.6752 2.43986C88.7983 2.39965 89.9208 2.33795 91.0441 2.30354C92.8429 2.24844 94.6422 2.21192 96.441 2.16015C97.8439 2.11977 99.2464 2.06604 100.649 2.02208C102.215 1.97302 103.781 1.92828 105.347 1.88165C106.913 1.83503 108.478 1.78732 110.044 1.74208C111.703 1.69414 113.363 1.64921 115.022 1.60171C116.619 1.55599 118.216 1.50637 119.813 1.46264C121.612 1.41338 123.411 1.36902 125.21 1.3221C126.986 1.27578 128.762 1.22796 130.537 1.18255C132.406 1.13476 134.275 1.08949 136.144 1.04229C137.966 0.996258 139.789 0.965498 141.611 0.89724C143.001 0.845137 144.389 0.739568 145.779 0.672008C145.985 0.662006 146.195 0.760957 146.402 0.758081C149.274 0.718248 152.145 0.673835 155.016 0.62135C157.165 0.58207 159.314 0.527783 161.463 0.483403C163.821 0.434692 166.179 0.373641 168.538 0.348183C169.762 0.337214 170.566 0.889422 170.855 2.0441C170.998 2.6194 170.923 3.25215 170.927 3.85905C170.938 5.41901 170.956 6.97929 170.936 8.53899C170.924 9.51053 170.847 10.4812 170.801 11.4524C170.792 11.6372 170.79 11.8224 170.79 12.0075C170.789 14.0436 170.806 16.0798 170.786 18.1157C170.752 21.6865 170.699 25.2572 170.649 28.8278C170.607 31.7924 170.556 34.7569 170.51 37.7215C170.463 40.7327 170.417 43.7439 170.37 46.7551C170.324 49.7196 170.283 52.6843 170.228 55.6487C170.195 57.4014 170.125 59.1533 170.094 60.9059C170.073 62.1258 170.103 63.3464 170.088 64.5664C170.049 67.5777 170.004 70.589 169.948 73.6C169.916 75.3293 169.845 77.0579 169.815 78.7873C169.793 80.0304 169.828 81.2746 169.806 82.5177C169.777 84.2237 169.704 85.929 169.675 87.6351C169.653 88.9481 169.689 90.2622 169.666 91.5752C169.639 93.1415 169.563 94.7068 169.535 96.273C169.513 97.5395 169.544 98.8068 169.528 100.073C169.49 103.155 169.44 106.236 169.39 109.317C169.347 111.955 169.302 114.593 169.249 117.231C169.211 119.147 169.144 121.062 169.116 122.978C169.094 124.454 169.129 125.932 169.106 127.408C169.082 128.927 169.001 130.446 168.976 131.966C168.953 133.419 168.989 134.873 168.966 136.326C168.944 137.705 168.859 139.084 168.837 140.464C168.813 141.94 168.846 143.417 168.828 144.894C168.792 147.952 168.74 151.009 168.691 154.067C168.647 156.752 168.649 159.439 168.537 162.121C168.43 164.7 169.025 167.093 170.307 169.295C171.614 171.538 173.014 173.728 174.403 175.922C175.775 178.091 176.98 180.35 177.618 182.839C178.074 184.617 178.141 186.462 177.629 188.262C177.454 188.877 176.389 193.122 177.295 194.224C178.459 195.64 179.93 196.275 181.743 196.317C183.509 196.357 185.186 195.927 186.879 195.535C188.937 195.059 191.003 194.715 193.076 195.467C194.107 195.841 195.037 196.369 195.646 197.324C195.739 197.469 195.965 197.714 195.472 197.716C194.279 197.723 193.086 197.796 191.893 197.843C189.508 197.936 187.122 198.032 184.736 198.122C183.357 198.174 181.977 198.218 180.598 198.262C179.055 198.311 177.513 198.359 175.97 198.402C174.171 198.452 172.372 198.5 170.573 198.541C168.331 198.593 166.09 198.64 163.848 198.681C161.093 198.732 158.338 198.781 155.583 198.821C151.919 198.873 148.255 198.91 144.592 198.964C142.093 199.001 139.595 199.056 137.097 199.101C136.669 199.108 136.241 199.099 135.814 199.102C130.658 199.148 125.502 199.195 120.346 199.241C119.895 199.245 119.444 199.238 118.993 199.242C113.721 199.288 108.449 199.335 103.176 199.381C102.702 199.385 102.228 199.378 101.753 199.382C96.5277 199.428 91.3019 199.475 86.0761 199.521C85.6252 199.525 85.1742 199.518 84.7233 199.522C79.4509 199.568 74.1785 199.615 68.9061 199.661C68.4785 199.665 68.0508 199.658 67.6233 199.662C62.3508 199.708 57.0784 199.755 51.806 199.801C51.3551 199.805 50.9041 199.798 50.4533 199.802C45.1808 199.848 39.9084 199.895 34.636 199.941C34.2317 199.944 33.8274 199.938 33.4231 199.942C28.0575 199.987 22.6918 200.034 17.3262 200.084C17.2405 200.085 17.1552 200.128 17.0698 200.186C17.0698 200.221 16.9999 200.221 16.9649 200.221C16.7764 200.174 16.6233 200.089 16.4693 200.087C15.4204 200.075 14.3712 200.083 13.3222 200.078C13.222 200.077 13.1221 200.029 13.022 200.003C13.1067 199.982 13.192 199.964 13.2762 199.941C15.5196 199.335 17.7473 198.66 20.0123 198.15C21.2962 197.861 22.639 197.815 23.9593 197.712C25.0791 197.624 26.2043 197.595 27.3278 197.571C27.7534 197.562 27.7181 197.467 27.6062 197.096C27.1351 195.538 26.5934 193.982 26.3438 192.383C26.1365 191.055 26.2494 189.667 26.3189 188.31C26.3687 187.338 26.5106 186.357 26.7395 185.411C27.0031 184.321 27.3507 183.244 27.7623 182.2C28.8483 179.448 30.7796 177.298 32.776 175.176C33.9693 173.907 35.0518 172.513 36.0291 171.07C36.62 170.198 36.9379 169.134 36.9335 168.025C36.9266 166.277 36.9487 164.528 36.9277 162.78C36.8965 160.188 36.842 157.597 36.7907 155.005C36.7496 152.926 36.6855 150.848 36.6548 148.769C36.5982 144.942 36.5801 141.114 36.5034 137.287C36.4626 135.252 36.2866 133.219 36.257 131.183C36.2318 129.453 36.3846 127.721 36.3589 125.992C36.3225 123.533 36.1897 121.076 36.1128 118.618C36.104 118.338 36.2287 118.055 36.2266 117.773C36.1877 112.407 36.1174 107.042 36.098 101.676C36.0746 95.1871 36.1103 88.6982 36.0869 82.2095C36.0677 76.9136 35.9612 71.6178 35.9628 66.322C35.9646 60.5133 36.0548 54.7047 36.089 48.8959C36.1083 45.601 36.0748 42.3058 36.0982 39.011C36.1162 36.4658 36.189 33.921 36.2304 31.3759C36.243 30.5988 36.2243 29.8212 36.2337 29.044C36.2772 25.4499 36.333 21.856 36.369 18.2618C36.3871 16.459 36.354 14.6556 36.3775 12.8528C36.3994 11.1701 36.4659 9.48785 36.5115 7.80536C36.517 7.60262 36.5147 7.39966 36.516 7.19681C36.5613 7.42157 36.6216 7.64448 36.6495 7.87138C36.8406 9.4254 37.0303 10.9797 37.2086 12.5352C37.2729 13.0966 37.3111 13.6614 37.35 14.2254C37.4471 15.6319 37.5367 17.0388 37.6313 18.4455C37.7702 20.509 46.2005 22.4027 46.2191 22.1773C46.2937 22.3934 46.3733 22.6079 46.4422 22.8258C47.0667 24.8006 47.4578 26.8178 47.7207 28.8757C48.0938 31.7965 48.1242 34.7225 48.1239 37.6561C48.1202 75.7946 48.1235 113.933 48.1038 152.072C48.1034 152.688 48.2929 152.933 48.8499 153.094C50.6781 153.622 52.5582 153.814 54.4228 153.616C57.9493 153.243 64.2722 152.003 67.0486 149.697C69.2665 147.855 70.8455 145.601 71.7839 142.919C72.1509 141.871 72.2346 140.712 72.3588 139.593C72.4723 138.571 72.5737 137.526 72.4888 136.507C72.3446 134.778 72.0673 133.058 71.8125 131.339C71.6051 129.94 71.3088 128.554 71.1236 127.153C70.8536 125.109 70.5906 123.062 70.4324 121.008C70.2998 119.286 70.1736 117.54 70.3058 115.825C70.5759 112.32 71.1231 108.848 72.0902 105.455C73.1239 101.827 74.5647 98.3647 76.3569 95.0539C77.6901 92.5909 79.2176 90.2424 81.054 88.1203C82.4774 86.4756 83.9567 84.8772 85.4572 83.3021C86.0964 82.6312 86.8661 82.0866 87.5537 81.4596C90.1675 79.076 92.0816 76.1376 94.0568 73.2458C95.5984 70.9888 93.935 68.6695 95.628 66.5303C97.8575 63.7133 100.593 61.4803 104.148 60.498C105.455 60.1368 106.8 59.9054 108.135 59.6536C110.969 59.1189 113.842 59.1515 116.701 59.2524C119.672 59.3572 122.495 60.1059 125.032 61.7455C127.122 63.0964 128.639 64.991 129.932 67.0563C131.443 69.4705 132.87 71.9385 134.275 74.417C136.08 77.6037 137.833 80.8205 139.595 84.0314C140.543 85.7581 141.477 87.4929 142.395 89.2358C144.3 92.8519 151.565 107.094 153.307 110.592C153.372 110.723 153.452 110.846 153.525 110.973C153.592 110.814 153.708 110.658 153.718 110.496C153.823 108.694 153.913 106.891 154.005 105.087C154.1 103.215 154.193 101.342 154.284 99.4685C154.38 97.5024 154.474 95.5363 154.564 93.5699C154.66 91.4407 154.755 89.3113 154.843 87.1817C154.941 84.8427 155.032 82.5034 155.124 80.1641C155.172 78.9247 155.219 77.6851 155.263 76.4455C155.312 75.0662 155.357 73.6867 155.404 72.3073C155.45 70.9512 155.5 69.5952 155.543 68.239C155.593 66.6266 155.637 65.014 155.683 63.4014C155.731 61.7423 155.78 60.0832 155.822 58.4239C155.873 56.4618 155.919 54.4996 155.962 52.5373C156.012 50.2954 156.062 48.0535 156.102 45.8114C156.154 42.8702 156.19 39.9287 156.245 36.9875C156.279 35.2116 156.361 33.4363 156.377 31.6603C156.4 29.0416 156.366 26.4223 156.389 23.8036C156.403 22.1208 156.479 20.4387 156.518 18.756C156.522 18.587 156.462 18.4165 156.432 18.2467C156.288 18.3506 156.123 18.4346 156.005 18.5616C155.095 19.5343 153.946 19.8815 152.651 19.9314C150.661 20.0081 148.782 19.4211 146.873 19.0146C145.045 18.6253 143.207 18.1896 141.332 18.4135C140.219 18.5465 139.114 18.8798 138.045 19.2409C136.321 19.8233 134.681 19.6467 133.048 18.9478C131.464 18.2698 129.894 17.5502 128.28 16.9524C126.827 16.4143 125.286 16.4196 123.877 17.0341C123.189 17.334 122.499 17.9774 122.154 18.6436C121.346 20.2018 120.128 20.9267 118.454 21.2019C116.246 21.5651 114.3 20.8229 112.337 20.0171C110.743 19.3627 109.165 18.6258 107.514 18.1649C105.309 17.5496 103.283 18.2171 101.456 19.5321C100.307 20.3588 99.2239 21.3099 97.9871 21.9735C96.3285 22.8636 93.9108 22.9916 92.6019 21.5228C92.3729 21.2658 92.14 20.9578 92.0566 20.6351C91.7265 19.3576 90.8993 19.0825 89.7505 18.9498C88.0964 18.7587 86.8813 19.6485 85.6816 20.6088C84.571 21.4978 83.5355 22.4867 82.0259 22.7648C80.8275 22.9854 79.7011 22.8285 78.6386 22.3718C76.8369 21.5974 75.0692 20.739 73.3157 19.8589C71.7474 19.0718 70.0715 18.6799 68.3884 19.0012C67.3041 19.2082 66.2832 19.8826 65.3029 20.4639C64.1139 21.1691 63.0514 22.0969 61.838 22.7494C59.7501 23.8721 57.8793 23.8973 55.2052 23.4591C52.5312 23.0209 46.0801 18.8416 45.7573 18.4135C45.7123 18.3539 44.7157 4.84069 42.9583 4.67025Z" fill="white"/>
  <path fill-rule="evenodd" clip-rule="evenodd" d="M83.4681 146.703C82.8925 142.491 82.7342 138.627 82.9933 135.109C83.2524 131.591 84.0508 126.414 85.3885 119.58C82.8302 126.322 81.3098 131.498 80.8272 135.109C80.3446 138.719 80.6245 143.015 81.667 147.995L83.4681 146.703Z" fill="#FF9A76"/>
  <path fill-rule="evenodd" clip-rule="evenodd" d="M121.092 95.9827C123.627 95.7404 125.23 96.2457 125.713 97.6814C126.528 100.108 120.587 103.352 118.492 103.157C117.756 102.483 125.053 100.662 124.394 98.1247C124.226 97.479 123.188 97.1802 121.224 97.3678C120.842 97.4043 120.502 97.1239 120.465 96.7414C120.429 96.3589 120.709 96.0192 121.092 95.9827Z" fill="#00160A"/>
  <path fill-rule="evenodd" clip-rule="evenodd" d="M133.597 160.853C133.411 160.411 133.675 157.664 135.132 155.033C137.546 150.676 148.042 149.231 151.972 145.266C156.957 140.236 154.849 134.331 154.579 133.78C154.514 133.648 154.489 133.497 154.445 133.354C154.561 133.429 154.696 133.485 154.788 133.582C156.414 135.287 157.49 137.309 157.987 139.593C158.52 142.042 158.692 144.519 157.488 146.845C157.224 147.355 156.686 147.766 156.194 148.108C154.71 149.138 147.436 151.989 145.402 152.397C143.439 152.79 141.737 153.698 139.931 154.411C138.821 154.848 138.218 155.867 137.348 156.574C136.431 157.32 136.167 158.234 136.249 159.336C136.273 159.66 136.239 159.989 136.254 160.314C136.351 162.409 134.169 162.214 133.597 160.853Z" fill="#FF9A76"/>
  <path fill-rule="evenodd" clip-rule="evenodd" d="M91.7222 102.619C92.7215 102.619 93.0937 101.84 92.5638 100.88C92.0453 99.9192 91.0302 99.1405 90.2863 99.1405C89.5424 99.1405 89.1442 99.9192 89.4074 100.88C89.6819 101.84 90.7229 102.619 91.7222 102.619Z" fill="#FFB61D"/>
  <path fill-rule="evenodd" clip-rule="evenodd" d="M111.202 107.141C112.201 107.141 112.574 106.363 112.044 105.402C111.525 104.441 110.51 103.663 109.766 103.663C109.022 103.663 108.624 104.441 108.887 105.402C109.162 106.363 110.203 107.141 111.202 107.141Z" fill="#FFB61D"/>
  <path fill-rule="evenodd" clip-rule="evenodd" d="M169.93 0.000155578C171.153 -0.0106526 171.958 0.541557 172.246 1.69623C172.39 2.27154 172.315 2.90428 172.319 3.51118C172.33 5.07115 172.348 6.63142 172.328 8.19113C172.316 9.16267 172.239 10.1334 172.193 11.1045C172.184 11.2893 172.182 11.4746 172.182 11.6596C172.181 13.6957 172.197 15.7319 172.178 17.7679C172.144 21.3387 172.091 24.9093 172.04 28.4799C171.998 31.4445 171.948 34.409 171.902 37.3736C171.855 40.3848 171.809 43.396 171.762 46.4072C171.715 49.3718 171.675 52.3365 171.619 55.3009C171.586 57.0535 171.517 58.8054 171.486 60.5581C171.465 61.7779 171.495 62.9986 171.479 64.2186C171.441 67.2299 171.395 70.2411 171.339 73.2521C171.307 74.9815 171.236 76.7101 171.206 78.4394C171.185 79.6826 171.22 80.9267 171.198 82.1698C171.168 83.8759 171.095 85.5811 171.067 87.2872C171.045 88.6003 171.08 89.9143 171.058 91.2274C171.031 92.7936 170.955 94.359 170.927 95.9252C170.905 97.1916 170.936 98.4589 170.92 99.7255C170.881 102.807 170.832 105.888 170.782 108.969C170.739 111.607 170.694 114.245 170.641 116.884C170.603 118.799 170.536 120.714 170.507 122.63C170.485 124.107 170.521 125.584 170.498 127.06C170.474 128.58 170.392 130.098 170.368 131.618C170.345 133.071 170.381 134.525 170.358 135.978C170.335 137.357 170.25 138.736 170.228 140.116C170.205 141.592 170.238 143.069 170.22 144.546C170.183 147.604 170.132 150.661 170.082 153.719C170.039 156.404 170.04 159.091 169.929 161.773C169.822 164.353 170.416 166.745 171.699 168.947C173.006 171.19 174.406 173.38 175.794 175.574C177.167 177.743 178.372 180.002 179.01 182.491C179.465 184.269 179.532 186.114 179.021 187.914C178.846 188.529 177.78 192.774 178.687 193.877C179.851 195.292 181.322 195.928 183.134 195.969C184.9 196.009 186.577 195.579 188.27 195.188C190.328 194.711 192.395 194.367 194.467 195.119C195.498 195.493 196.428 196.022 197.038 196.976C197.131 197.121 197.356 197.366 196.864 197.368C195.671 197.375 194.478 197.449 193.285 197.495C190.899 197.588 188.514 197.684 186.128 197.774C184.748 197.826 183.369 197.87 181.99 197.914C180.447 197.963 178.905 198.011 177.362 198.054C175.563 198.104 173.764 198.152 171.965 198.193C169.723 198.245 167.481 198.292 165.239 198.333C162.484 198.384 159.73 198.433 156.975 198.473C153.311 198.525 149.647 198.562 145.983 198.616C143.485 198.653 140.986 198.709 138.488 198.753C138.061 198.761 137.633 198.751 137.205 198.755C132.049 198.8 126.894 198.848 121.738 198.893C121.287 198.897 120.836 198.89 120.385 198.894C115.113 198.94 109.84 198.987 104.568 199.033L103.145 199.034C97.9192 199.08 92.6935 199.127 87.4676 199.173C87.0168 199.177 86.5658 199.17 86.1149 199.174C80.8425 199.22 75.5701 199.267 70.2977 199.313C69.8701 199.317 69.4424 199.31 69.0148 199.314C63.7424 199.36 58.47 199.407 53.1976 199.453C52.7467 199.457 52.2957 199.45 51.8448 199.454C46.5724 199.5 41.3 199.547 36.0276 199.593C35.6233 199.596 35.219 199.59 34.8147 199.594C29.449 199.64 24.0834 199.686 18.7177 199.736C18.6321 199.737 18.5468 199.78 18.4614 199.838C18.4614 199.873 18.3914 199.873 18.3565 199.873C18.168 199.826 18.0149 199.741 17.8608 199.739C16.8119 199.727 15.7628 199.735 14.7138 199.73C14.6136 199.729 14.5136 199.681 14.4136 199.655C14.4983 199.634 14.5836 199.616 14.6678 199.593C16.9112 198.987 19.1389 198.312 21.4039 197.802C22.6878 197.513 24.0306 197.467 25.3509 197.364C26.4706 197.276 27.5959 197.247 28.7193 197.223C29.145 197.214 29.1097 197.119 28.9978 196.749C28.5267 195.191 27.985 193.634 27.7354 192.035C27.5281 190.708 27.641 189.319 27.7105 187.962C27.7603 186.99 27.9021 186.009 28.1311 185.063C28.3947 183.973 28.7423 182.896 29.1539 181.853C30.2399 179.1 32.1712 176.951 34.1676 174.828C35.3608 173.559 36.4434 172.165 37.4207 170.722C38.0116 169.85 38.3295 168.786 38.3251 167.677C38.3182 165.929 38.3403 164.18 38.3193 162.432C38.2881 159.84 38.2335 157.249 38.1823 154.657C38.1412 152.578 38.0771 150.5 38.0464 148.421C37.9898 144.594 37.9717 140.766 37.895 136.94C37.8542 134.904 37.6782 132.871 37.6486 130.835C37.6234 129.106 37.7761 127.373 37.7505 125.644C37.714 123.186 37.5812 120.729 37.5044 118.271C37.4956 117.99 37.6203 117.707 37.6182 117.425C37.5793 112.059 37.509 106.694 37.4896 101.328C37.4661 94.8392 37.5019 88.3503 37.4784 81.8617C37.4593 76.5657 37.3528 71.27 37.3544 65.9742C37.3561 60.1654 37.4464 54.3568 37.4805 48.548C37.4999 45.2532 37.4664 41.9579 37.4897 38.6631C37.5078 36.1179 37.5805 33.5731 37.622 31.028C37.6346 30.2509 37.6159 29.4733 37.6253 28.6962C37.6688 25.1021 37.7246 21.5081 37.7606 17.914C37.7787 16.1111 37.7456 14.3077 37.7691 12.505C37.791 10.8222 37.8575 9.13999 37.9031 7.4575C37.9086 7.25475 37.9062 7.0518 37.9075 6.84894C37.9529 7.0737 38.0132 7.29661 38.0411 7.52352C38.2322 9.07754 38.4219 10.6318 38.6002 12.1873C38.6645 12.7488 38.7027 13.3135 38.7416 13.8776C38.8387 15.284 38.9283 16.691 39.0229 18.0976C39.1617 20.1611 39.3117 22.224 39.4394 24.2882C39.5466 26.0204 39.6422 27.7536 39.7187 29.4874C39.825 31.896 39.9135 34.3054 39.9999 36.7148C40.0561 38.2803 40.1255 39.8463 40.1365 41.4124C40.1941 49.6222 40.2368 57.8321 40.28 66.0419C40.2899 67.9148 40.2977 69.788 40.2778 71.6608C40.2446 74.7887 40.1892 77.9164 40.1413 81.0442C40.096 84.0089 40.0559 86.9736 39.9985 89.9381C39.9705 91.3878 39.9028 92.8367 39.8646 94.2862C39.8484 94.8999 39.8654 95.5144 39.8613 96.1285C39.8156 102.986 39.7474 109.844 39.7313 116.702C39.7237 119.946 39.8077 123.191 39.8652 126.435C39.8925 127.978 39.9516 129.52 40.0028 131.063C40.044 132.302 40.0874 133.542 40.1434 134.781C40.23 136.701 40.3204 138.621 40.4238 140.54C40.5047 142.04 40.599 143.541 40.7033 145.04C40.8339 146.917 40.97 148.795 41.1263 150.67C41.1854 151.381 41.2761 152.092 41.4178 152.789C41.4658 153.026 41.67 153.293 41.8793 153.424C43.2013 154.246 44.5725 153.804 45.6687 152.985C46.9393 152.036 47.489 150.642 47.544 149.092C47.6313 146.633 47.6876 144.173 47.6886 141.713C47.6988 117.647 47.7115 93.5807 47.6887 69.5147C47.6739 53.845 47.6012 38.1754 47.5573 22.5057C47.5566 22.2803 47.5921 22.0548 47.6107 21.8294C47.6853 22.0455 47.7649 22.26 47.8338 22.4779C48.4582 24.4527 48.8494 26.4699 49.1123 28.5279C49.4854 31.4486 49.5158 34.3747 49.5155 37.3083L49.5114 94.516C49.5093 113.585 49.5052 132.654 49.4953 151.724C49.495 152.34 49.6845 152.585 50.2415 152.746C52.0697 153.274 53.9497 153.466 55.8144 153.268C59.3409 152.895 62.533 151.655 65.3095 149.349C67.5274 147.507 69.1064 145.253 70.0448 142.571C70.4117 141.523 70.4955 140.364 70.6196 139.245C70.7331 138.223 70.8346 137.178 70.7497 136.16C70.6054 134.43 70.3281 132.71 70.0733 130.991C69.866 129.592 69.5696 128.206 69.3844 126.805C69.1144 124.761 68.8514 122.714 68.6933 120.66C68.5606 118.938 68.4345 117.192 68.5667 115.477C68.8368 111.972 69.384 108.501 70.3511 105.107C71.3848 101.479 72.8256 98.0169 74.6178 94.706C75.951 92.243 77.4785 89.8945 79.3149 87.7725C80.7383 86.1277 82.2176 84.5294 83.7181 82.9542C84.3572 82.2833 85.127 81.7387 85.8146 81.1117C88.4284 78.7282 90.3425 75.7898 92.3177 72.898C93.8593 70.641 95.3265 68.3216 97.0195 66.1825C99.2491 63.3654 101.985 61.1325 105.539 60.1502C106.846 59.789 108.191 59.5575 109.526 59.3057C112.361 58.771 115.234 58.8036 118.093 58.9045C121.063 59.0093 123.887 59.7581 126.423 61.3976C128.513 62.7486 130.031 64.6432 131.323 66.7085C132.834 69.1226 134.262 71.5906 135.666 74.0691C137.472 77.2558 139.224 80.4726 140.987 83.6835C141.935 85.4103 142.869 87.145 143.787 88.8879C144.934 91.0654 145.591 91.9153 146.517 94.2862C147.129 95.8528 148.211 98.7873 148.951 100.235C150.426 103.123 150.682 105.028 151.76 107.709C151.981 108.258 153.142 108.929 153.408 109.541C153.904 110.679 154.912 112.329 154.985 112.455C155.052 112.297 155.1 110.31 155.109 110.148C155.215 108.346 155.305 106.543 155.396 104.74C155.491 102.867 155.585 100.994 155.676 99.1207C155.771 97.1546 155.866 95.1884 155.955 93.222C156.052 91.0928 156.146 88.9634 156.235 86.8338C156.332 84.4948 156.423 82.1555 156.515 79.8163C156.564 78.5768 156.611 77.3373 156.655 76.0976C156.704 74.7183 156.748 73.3388 156.795 71.9594C156.842 70.6033 156.892 69.2473 156.934 67.8911C156.985 66.2787 157.029 64.6661 157.075 63.0535C157.122 61.3944 157.172 59.7353 157.214 58.0761C157.264 56.1139 157.311 54.1517 157.354 52.1894C157.404 49.9475 157.454 47.7056 157.493 45.4636C157.545 42.5223 157.581 39.5808 157.637 36.6397C157.67 34.8637 157.753 33.0884 157.768 31.3124C157.791 28.6937 157.758 26.0745 157.78 23.4557C157.795 21.773 157.871 20.0908 157.91 18.4081C157.914 18.2391 157.854 18.0687 157.823 17.8989C157.68 18.0028 157.515 18.0867 157.396 18.2137C156.487 19.1865 155.337 19.5336 154.043 19.5835C152.052 19.6603 150.174 19.0732 148.265 18.6667C146.436 18.2774 144.598 17.8418 142.724 18.0656C141.61 18.1986 140.506 18.532 139.437 18.8931C137.713 19.4755 136.072 19.2988 134.439 18.5999C132.855 17.9219 131.286 17.2024 129.672 16.6046C128.219 16.0664 126.677 16.0717 125.268 16.6862C124.581 16.9862 123.89 17.6295 123.545 18.2958C122.738 19.8539 121.519 20.5788 119.846 20.8541C117.638 21.2173 115.691 20.475 113.728 19.6692C112.134 19.0149 110.557 18.278 108.905 17.817C106.701 17.2017 104.674 17.8693 102.847 19.1843C101.698 20.0109 100.615 20.962 99.3787 21.6257C97.7201 22.5157 95.3024 22.6437 93.9935 21.175C93.7645 20.918 93.5316 20.6099 93.4482 20.2872C93.1181 19.0097 92.2909 18.7346 91.1421 18.6019C89.488 18.4109 88.2729 19.3006 87.0731 20.261C85.9625 21.1499 84.927 22.1389 83.4174 22.4169C82.2191 22.6376 81.0927 22.4806 80.0301 22.0239C78.2285 21.2495 76.4607 20.3911 74.7073 19.511C73.139 18.7239 71.4631 18.3321 69.78 18.6533C68.6957 18.8603 67.6748 19.5347 66.6945 20.1161C65.5055 20.8212 64.443 21.7491 63.2295 22.4016C61.1417 23.5242 58.8998 23.5712 56.5968 23.1113C54.2077 22.6341 52.2402 21.4683 50.5849 19.729C50.217 19.3425 49.9167 18.8909 49.5939 18.4628C49.5489 18.4032 49.5533 18.3064 49.5348 18.2268C49.6007 18.2606 49.677 18.2826 49.7311 18.3299C51.4747 19.8525 53.4683 20.795 55.7795 21.1283C59.1191 21.6099 62.2129 21.0513 64.9955 19.1096C65.7734 18.5667 66.4109 17.826 67.1709 17.2531C68.3688 16.3503 69.7851 16.393 71.1701 16.5606C73.7689 16.875 76.0249 18.2272 78.4563 19.05C80.5599 19.7619 82.7195 20.3065 84.9448 19.4412C85.7275 19.1368 86.3828 18.7094 86.8674 17.9928C87.7175 16.7356 89.5592 16.2834 90.9585 16.4343C93.2148 16.6776 95.169 17.7994 97.3105 18.3461C98.8151 18.7302 100.323 18.9898 101.86 18.4642C102.69 18.1803 103.27 17.6125 103.716 16.9063C104.438 15.7633 105.535 15.3562 106.796 15.243C108.581 15.0828 110.188 15.6467 111.763 16.4216C113.275 17.1656 114.806 17.9274 116.492 18.1565C117.857 18.3419 119.208 18.0706 120.474 17.4994C122.458 16.6039 124.416 15.6486 126.417 14.7941C128.339 13.9733 130.21 14.1348 132.008 15.2641C132.997 15.885 134.021 16.4735 135.09 16.9363C136.37 17.4904 137.735 17.314 139.037 16.9662C140.792 16.4971 142.496 15.8143 144.268 15.4364C145.498 15.1739 146.775 15.2742 147.778 16.3424C148.713 17.3393 149.949 17.5862 151.228 17.2222C153.223 16.6543 155.187 15.9795 157.168 15.3607C158.145 15.0557 159.122 14.7606 160.163 15.0983C161.566 15.5532 161.723 15.7831 161.552 17.2408C161.455 18.0643 161.339 18.8866 161.278 19.7129C161.204 20.7173 161.188 21.7259 161.129 22.7316C160.996 25.0052 160.854 27.2784 160.711 29.5514C160.622 30.9585 160.515 32.3644 160.434 33.7718C160.331 35.5742 160.249 37.3779 160.151 39.1807C160.063 40.7975 159.956 42.4133 159.875 44.0305C159.772 46.0894 159.687 48.1493 159.592 50.2087C159.549 51.1453 159.494 52.0814 159.454 53.0182C159.357 55.2873 159.267 57.5567 159.173 59.8259C159.127 60.9256 159.075 62.0251 159.034 63.125C158.938 65.6972 158.846 68.2696 158.754 70.8419C158.706 72.1514 158.658 73.4608 158.614 74.7703C158.565 76.2429 158.52 77.7156 158.474 79.1883C158.427 80.7076 158.379 82.2268 158.334 83.7462C158.286 85.382 158.24 87.0178 158.194 88.6537C158.146 90.3827 158.1 92.1118 158.054 93.841C158.007 95.6633 157.959 97.4856 157.915 99.308C157.866 101.293 157.821 103.279 157.774 105.265C157.728 107.273 157.68 109.282 157.635 111.291C157.587 113.393 157.541 115.495 157.495 117.597L157.404 121.941C157.388 122.665 157.371 123.389 157.352 124.113C157.321 125.283 157.262 126.453 157.213 127.622C157.211 127.686 157.185 127.75 157.17 127.813C157.138 127.75 157.093 127.69 157.077 127.623C156.562 125.435 155.991 123.258 155.557 121.053C155.264 119.566 155.141 118.044 154.985 116.533C154.893 115.64 154.885 114.738 154.835 113.84C154.83 113.754 154.799 113.669 154.78 113.584C154.752 113.658 154.704 113.73 154.7 113.805C154.536 116.616 154.041 119.359 153.052 122.005C152.765 122.773 152.523 123.558 152.255 124.333C152.221 124.434 152.159 124.525 152.109 124.621C152.096 124.495 152.042 124.357 152.076 124.245C152.237 123.707 152.389 123.163 152.605 122.646C153.596 120.275 153.542 117.775 153.408 115.3C153.308 113.447 152.844 111.631 152.083 109.916C152.037 109.812 151.79 109.328 151.787 109.2C151.787 109.179 151.696 109.159 151.647 109.139C151.684 109.311 151.722 109.483 151.76 109.655C151.853 111.435 152.012 113.91 152.023 115.69C152.036 117.768 151.688 119.12 151.124 121.12C150.826 122.179 150.441 123.214 150.093 124.259C150.069 124.331 150.028 124.397 149.995 124.466C149.977 124.38 149.919 124.276 149.947 124.211C150.869 122.077 150.768 119.79 150.903 117.549C151.03 115.452 151.143 113.339 151.029 111.246C150.871 108.323 150.322 105.453 149.1 102.755C149.073 102.695 148.999 102.657 148.972 102.598C148.883 102.399 148.805 102.195 148.723 101.992C148.669 102.245 148.544 102.506 148.574 102.748C148.674 103.559 148.885 104.359 148.951 105.172C149.083 106.832 149.19 108.496 149.231 110.16C149.278 112.032 149.333 113.912 149.216 115.777C149.102 117.6 148.779 119.409 148.542 121.224C148.409 122.239 148.264 123.253 148.12 124.267C148.111 124.333 148.06 124.393 148.028 124.456C148.013 124.392 147.981 124.327 147.986 124.265C148.028 123.794 148.077 123.324 148.123 122.854C148.171 122.361 148.244 121.868 148.258 121.373C148.316 119.365 148.392 117.356 148.393 115.347C148.394 113.431 148.331 111.515 148.256 109.601C148.196 108.053 148.1 106.505 147.977 104.961C147.815 102.915 147.612 100.872 147.422 98.8285C147.387 98.4505 147.335 98.0737 147.28 97.6979C147.269 97.6238 147.211 97.5567 147.174 97.4863C147.118 97.5598 147.017 97.6299 147.011 97.7074C146.953 98.4331 146.901 99.1597 146.867 99.8869C146.811 101.056 146.785 102.227 146.722 103.395C146.591 105.786 146.451 108.176 146.302 110.565C146.224 111.809 146.105 113.051 146.028 114.296C145.878 116.731 145.752 119.169 145.603 121.604C145.524 122.895 145.408 124.184 145.328 125.475C145.18 127.864 145.057 130.255 144.9 132.644C144.845 133.47 145.053 136.166 145.023 136.537C144.845 138.729 144.224 140.827 143.476 142.883C143.331 143.283 143.032 143.695 142.689 143.943C141.723 144.639 141.084 144.529 140.575 143.315C140.45 143.017 140.384 142.694 140.29 142.384C140.277 142.343 140.256 142.304 140.239 142.265C140.21 142.333 140.171 142.399 140.152 142.47C139.963 143.184 139.852 143.931 139.57 144.607C139.288 145.283 138.901 145.94 138.443 146.511C137.887 147.203 136.876 147.238 136.232 146.625C135.865 146.276 135.868 146.721 135.84 146.788C135.551 147.461 135.355 148.178 135.02 148.825C134.497 149.832 133.596 150.284 132.473 150.206C131.97 150.172 131.875 150.327 131.884 150.804C131.906 152.05 131.412 153.065 130.297 153.684C130.025 153.836 129.644 153.868 129.323 153.839C128.866 153.8 128.776 153.966 128.813 154.375C128.85 154.792 128.826 155.214 128.82 155.633C128.803 156.627 128.12 157.323 127.139 157.352C126.394 157.374 126.254 157.581 126.549 158.227C126.845 158.876 126.379 159.501 125.504 159.586C124.614 159.672 123.872 159.472 123.166 158.796C120.266 156.018 118.044 152.773 116.387 149.144C115.312 146.791 114.474 144.339 114.143 141.755C113.91 139.926 113.705 138.091 113.589 136.252C113.458 134.163 113.787 132.106 114.213 130.06C115.018 126.185 116.525 122.544 117.869 118.846C118.179 117.992 118.399 117.101 118.603 116.213C118.956 114.676 119.292 113.134 119.573 111.583C119.672 111.041 119.608 110.465 119.57 109.908C119.564 109.815 119.296 109.649 119.173 109.669C118.108 109.842 117.045 110.027 115.99 110.253C114.186 110.641 112.459 111.242 110.789 112.049C110.171 112.348 109.396 112.316 108.697 112.455C107.579 112.678 106.466 112.927 105.348 113.145C105.116 113.191 104.867 113.147 104.626 113.153C104.213 113.165 103.532 113.045 103.438 113.226C103.186 113.712 103.11 114.326 103.097 114.893C103.024 117.95 102.953 121.008 102.96 124.066C102.964 125.659 103.126 127.253 103.226 128.845C103.311 130.206 103.375 131.569 103.514 132.925C103.655 134.297 103.888 135.66 104.059 137.03C104.174 137.945 104.233 138.866 104.347 139.781C104.518 141.151 104.723 142.516 104.901 143.886C105.05 145.039 105.182 146.194 105.322 147.348C105.414 148.102 105.506 148.857 105.607 149.61C105.616 149.677 105.678 149.776 105.736 149.793C106.785 150.1 107.018 151.021 107.271 151.889C107.667 153.245 108.1 154.602 108.329 155.99C108.503 157.053 108.501 158.179 108.368 159.251C108.232 160.342 107.862 161.408 107.555 162.473C107.092 164.08 106.175 165.435 105.127 166.713C105.059 166.796 105.026 166.909 104.977 167.007C105.079 167.006 105.181 167.004 105.283 167.003C105.469 167.002 105.656 167.003 105.842 167.003H114.304C116.457 167.003 118.61 167.019 120.762 166.999C124.286 166.966 127.81 166.909 131.334 166.864C131.692 166.859 132.05 166.868 132.407 166.862C135.465 166.817 138.523 166.769 141.581 166.724C141.892 166.719 142.203 166.731 142.514 166.722C145.092 166.645 147.67 166.562 150.249 166.491C150.502 166.485 150.758 166.582 151.012 166.579C154.093 166.539 157.174 166.495 160.255 166.442C162.358 166.405 164.459 166.346 166.562 166.306C167.145 166.295 167.457 166.168 167.449 165.436C167.427 163.428 167.522 161.419 167.563 159.41C167.576 158.773 167.593 158.134 167.56 157.498C167.493 156.243 166.555 155.747 165.475 155.692C163.33 155.583 161.179 155.552 159.03 155.54C155.293 155.517 151.555 155.527 147.817 155.54C147.137 155.542 146.457 155.628 145.777 155.671C145.688 155.677 145.598 155.655 145.508 155.646C145.562 155.564 145.612 155.478 145.671 155.399C146.251 154.618 147.123 154.384 148.004 154.292C149.142 154.174 150.3 154.234 151.439 154.121C152.697 153.996 153.943 153.76 155.196 153.578C155.333 153.558 155.475 153.578 155.615 153.575C159.283 153.482 162.951 153.393 166.618 153.283C166.784 153.278 167.038 153.123 167.092 152.979C167.527 151.812 167.772 150.648 167.656 149.351C167.534 147.968 167.768 146.554 167.844 145.154C167.852 145.014 167.845 144.874 167.845 144.734C167.845 143.522 167.834 142.31 167.847 141.098C167.888 137.247 167.933 133.397 167.987 129.546C168.024 126.908 168.079 124.27 168.125 121.632C168.172 118.9 168.218 116.169 168.265 113.437C168.311 110.768 168.358 108.098 168.405 105.429L168.545 97.3743C168.591 94.6814 168.638 91.9886 168.684 89.2958C168.731 86.5797 168.777 83.8635 168.824 81.1474C168.87 78.5091 168.918 75.871 168.964 73.2327C169.011 70.5166 169.057 67.8005 169.104 65.0843C169.151 62.3762 169.197 59.668 169.244 56.9599C169.29 54.3217 169.338 51.6835 169.384 49.0453C169.431 46.3138 169.477 43.5824 169.524 40.8509L169.663 32.8664C169.71 30.1582 169.756 27.4501 169.804 24.7419C169.849 22.127 169.898 19.5122 169.943 16.8972C169.991 14.0959 170.032 11.2944 170.085 8.49311C170.123 6.49946 170.167 4.50581 170.231 2.51288C170.244 2.09419 170.176 1.9279 169.692 1.94061C166.915 2.01353 164.136 2.04056 161.358 2.09548C159.597 2.13029 157.837 2.18812 156.077 2.23272C154.161 2.28124 152.246 2.32485 150.33 2.37347C148.578 2.41796 146.826 2.46772 145.073 2.5125C143.181 2.56086 141.289 2.60502 139.396 2.65309C137.621 2.6982 135.845 2.74744 134.069 2.79225C132.154 2.84059 130.238 2.88181 128.323 2.93383C126.85 2.97383 125.378 3.03408 123.905 3.07043C121.71 3.12459 119.514 3.16204 117.319 3.21339C115.567 3.25439 113.814 3.30743 112.062 3.35161C110.123 3.40049 108.184 3.44342 106.245 3.49258C104.516 3.53643 102.787 3.5872 101.058 3.63135C99.1427 3.68026 97.227 3.72084 95.3116 3.77314C93.8621 3.81272 92.4132 3.87391 90.9636 3.90954C88.7452 3.96407 86.5263 4.00149 84.3078 4.05255C82.5087 4.09395 80.7099 4.14568 78.9108 4.19111C77.0186 4.23888 75.1263 4.28327 73.2341 4.33163C71.4817 4.37641 69.7294 4.42641 67.977 4.47059C66.0382 4.51947 64.0995 4.58082 62.1604 4.60759C57.9838 4.66525 53.8067 4.75024 49.6302 4.72904C47.8692 4.7201 46.1073 4.49283 44.3499 4.32239C43.4239 4.23258 42.5066 4.05224 41.5859 3.90997C41.5232 3.90029 41.4642 3.86702 41.4035 3.84472C41.4613 3.82039 41.5175 3.78947 41.5776 3.77395C41.6213 3.76267 41.6703 3.7727 41.7169 3.77161C43.7024 3.72514 45.6883 3.6928 47.6732 3.62819C50.0595 3.55052 52.445 3.44833 54.8306 3.35063C55.7441 3.31322 56.6566 3.24915 57.5702 3.21449C59.0192 3.1595 60.4689 3.12244 61.918 3.0713C63.0878 3.03002 64.2571 2.97633 65.4268 2.93308C67.999 2.83799 70.5715 2.74898 73.1436 2.65126C74.127 2.61389 75.1094 2.54841 76.093 2.51538C77.7518 2.45968 79.4113 2.4243 81.0702 2.37147C82.2866 2.33274 83.5025 2.27634 84.7189 2.23404C86.168 2.18364 87.6176 2.14388 89.0667 2.09199C90.1899 2.05178 91.3124 1.99009 92.4357 1.95567C94.2345 1.90057 96.0337 1.86405 97.8326 1.81228C99.2355 1.7719 100.638 1.71818 102.041 1.67422C103.607 1.62515 105.172 1.58041 106.738 1.53379C108.304 1.48716 109.87 1.43946 111.436 1.39421C113.095 1.34627 114.754 1.30134 116.413 1.25385C118.011 1.20812 119.608 1.15851 121.205 1.11477C123.004 1.06552 124.803 1.02116 126.602 0.974229C128.378 0.92791 130.153 0.880093 131.929 0.834684C133.798 0.786892 135.667 0.741627 137.536 0.694421C139.358 0.648392 141.181 0.617631 143.002 0.549373C144.393 0.497271 145.781 0.391703 147.171 0.324143C147.377 0.314141 147.587 0.413089 147.794 0.410213C150.665 0.370381 153.537 0.325969 156.408 0.273484C158.557 0.234204 160.705 0.179915 162.854 0.135536C165.213 0.0868247 167.571 0.0257741 169.93 0.000155578ZM124.668 183.1C123.213 183.137 121.761 183.272 120.308 183.369C118.948 183.459 117.588 183.545 116.229 183.65C114.538 183.78 112.848 183.927 111.158 184.068C109.492 184.207 107.826 184.358 106.158 184.484C104.166 184.636 102.174 184.827 100.178 184.893C97.146 184.993 94.1108 185.002 91.0768 185.045C90.401 185.055 89.721 185.094 89.0498 185.038C87.1205 184.876 85.1949 184.671 83.2674 184.488C82.2344 184.39 81.1992 184.313 80.1673 184.204C78.4954 184.029 76.8294 183.763 75.1534 183.668C73.5192 183.575 71.8753 183.63 70.2361 183.653C68.9498 183.672 67.6629 183.718 66.3787 183.793C64.3377 183.913 62.2987 184.064 60.2592 184.208C58.3357 184.344 56.4127 184.486 54.4896 184.627C53.2462 184.719 52.003 184.814 50.7597 184.907C48.8832 185.047 47.0066 185.186 45.13 185.326C43.8867 185.419 42.6436 185.515 41.4001 185.605C39.4538 185.747 37.5076 185.892 35.5605 186.023C34.015 186.127 32.4677 186.205 30.922 186.308C30.0482 186.366 29.7754 186.665 29.7972 187.559C29.8093 188.053 29.8871 188.546 29.9304 189.039C30.1181 191.176 30.2893 193.315 30.4996 195.449C30.56 196.062 30.6245 196.749 31.2691 197.06C31.6524 197.245 32.1167 197.342 32.544 197.34C33.8534 197.335 35.1623 197.233 36.4718 197.222C39.0434 197.2 41.6154 197.231 44.1871 197.212C48.806 197.178 53.4248 197.122 58.0437 197.076C58.4712 197.072 58.8988 197.082 59.3262 197.074C61.7076 197.03 64.0888 196.966 66.4703 196.939C71.6018 196.881 76.7335 196.835 81.8652 196.799C84.3902 196.781 86.9156 196.812 89.4407 196.792C93.9664 196.758 98.492 196.702 103.018 196.657C103.468 196.652 103.919 196.663 104.37 196.655C106.751 196.611 109.133 196.546 111.514 196.519C116.646 196.462 121.777 196.416 126.909 196.379C129.411 196.362 131.913 196.392 134.415 196.373C138.964 196.338 143.512 196.283 148.061 196.237C148.512 196.232 148.963 196.242 149.414 196.235C152.261 196.191 155.109 196.131 157.956 196.1C159.914 196.079 161.872 196.112 163.83 196.093C167.633 196.058 171.436 196.005 175.239 195.955C176.073 195.944 176.706 195.348 176.794 194.464C176.991 192.468 177.17 190.47 177.357 188.333C177.403 187.607 177.478 186.881 177.491 186.154C177.508 185.049 176.952 184.625 175.857 184.759C173.743 185.018 171.627 185.376 169.505 185.432C166.357 185.516 163.204 185.395 160.054 185.317C158.576 185.28 157.1 185.154 155.625 185.043C154.004 184.92 152.384 184.773 150.764 184.625C149.33 184.494 147.897 184.345 146.463 184.208L143.503 183.923C142.516 183.828 141.529 183.737 140.541 183.652C138.713 183.494 136.883 183.338 135.051 183.237C133.418 183.148 131.781 183.115 130.145 183.094C128.32 183.07 126.492 183.053 124.668 183.1ZM76.9281 169.73C75.5349 169.8 74.1421 169.877 72.7486 169.938C71.4862 169.994 70.2231 170.033 68.9603 170.08C67.7208 170.126 66.4814 170.175 65.2419 170.22C62.6231 170.314 60.0042 170.405 57.3855 170.5C56.1925 170.544 55 170.601 53.8069 170.638C52.0781 170.692 50.3487 170.725 48.6201 170.783C47.8694 170.808 47.1154 170.836 46.3715 170.93C45.6539 171.021 44.9528 171.262 44.2348 171.323C43.3363 171.399 42.4115 171.419 41.8075 170.516C41.7639 170.45 41.4224 170.482 41.4173 170.508C41.0945 172.145 40.024 173.31 38.9182 174.438C38.0139 175.359 37.0403 176.213 36.1175 177.117C34.9549 178.256 33.7762 179.383 32.6737 180.578C31.8544 181.467 31.1432 182.455 30.3901 183.404C30.3153 183.498 30.2837 183.627 30.2321 183.739C30.3653 183.755 30.499 183.789 30.6315 183.785C32.0343 183.743 33.4371 183.699 34.8395 183.646C35.916 183.606 36.9919 183.547 38.0685 183.51C39.5875 183.456 41.1079 183.436 42.6257 183.361C43.7777 183.304 44.9258 183.171 46.0769 183.091C48.1863 182.943 50.297 182.814 52.4065 182.667C53.5808 182.585 54.7565 182.508 55.9265 182.382C57.414 182.223 58.8948 182.003 60.3814 181.834C61.4124 181.717 62.4495 181.655 63.4817 181.547C65.1771 181.37 66.8672 181.128 68.5662 181.007C69.757 180.921 70.9591 180.972 72.1555 180.995C73.3255 181.018 74.4996 181.032 75.6629 181.143C77.0131 181.272 78.3525 181.512 79.6987 181.687C80.8745 181.84 82.0562 181.949 83.2302 182.114C84.745 182.327 86.2537 182.582 87.7672 182.804C88.1554 182.861 88.5515 182.864 88.9439 182.892C88.6231 182.562 88.3344 182.191 87.9759 181.91C86.1827 180.5 84.7199 178.768 83.3908 176.954C82.1834 175.306 81.2106 173.485 80.1475 171.732C79.4228 170.537 78.5701 169.557 76.9281 169.73ZM166.736 168.81C165.619 168.917 164.492 168.924 163.369 168.959C161.64 169.014 159.911 169.058 158.182 169.1C156.08 169.151 153.978 169.207 151.876 169.238C148.049 169.295 144.222 169.335 140.395 169.38C139.875 169.386 139.354 169.373 138.833 169.382C136.358 169.426 133.883 169.474 131.269 169.521H116.955C112.596 169.521 108.237 169.502 103.878 169.539C103.182 169.545 102.485 169.805 102.144 170.534C101.542 171.823 101.006 173.145 100.351 174.406C98.807 177.383 96.6222 179.87 94.1615 182.11C93.6436 182.581 93.9965 182.734 94.2852 182.783C94.8142 182.873 95.3716 182.842 95.9128 182.802C97.5811 182.68 99.2475 182.531 100.914 182.388C102.512 182.251 104.108 182.105 105.706 181.97C107.419 181.826 109.133 181.693 110.846 181.549C112.444 181.414 114.039 181.248 115.638 181.135C117.91 180.975 120.183 180.829 122.457 180.72C123.558 180.667 124.665 180.676 125.767 180.719C127.385 180.78 129.001 180.887 130.617 180.993C132.611 181.122 134.604 181.27 136.597 181.41C137.934 181.503 139.27 181.595 140.607 181.69C142.577 181.829 144.547 181.969 146.517 182.109C147.807 182.202 149.097 182.298 150.387 182.388C151.747 182.484 153.107 182.574 154.467 182.669C155.757 182.76 157.047 182.866 158.337 182.946C160.023 183.05 161.71 183.216 163.396 183.208C165.572 183.198 167.752 183.099 169.922 182.931C171.883 182.779 173.834 182.489 175.788 182.246C176.802 182.12 177.18 181.37 176.654 180.514C174.703 177.334 172.721 174.174 170.789 170.983C169.852 169.436 168.592 168.633 166.736 168.81ZM89.3097 92.1741C89.2109 92.4575 89.143 92.7568 89.0075 93.0214C88.5442 93.9265 88.0509 94.8162 87.5806 95.7177C86.5027 97.7834 85.4335 99.821 83.4709 101.27C82.1921 102.214 80.6938 102.921 79.7809 104.332C79.5117 104.748 79.0384 105.031 78.7589 105.443C78.259 106.18 77.8598 106.984 77.3752 107.732C75.497 110.633 73.7805 113.609 72.7783 116.948C72.0021 119.534 71.4502 122.155 71.4787 124.868C71.4934 126.271 71.5262 127.676 71.6254 129.075C71.7075 130.232 71.8913 131.382 72.0442 132.534C72.2668 134.211 72.5421 135.883 72.7126 137.565C72.7827 138.256 72.563 138.975 72.6088 139.672C72.6881 140.876 72.8042 142.087 73.0261 143.272C73.4494 145.533 73.9315 147.784 74.4387 150.028C74.9578 152.324 75.5507 154.603 76.0855 156.896C76.9041 160.405 78.1002 163.781 79.6777 167.016C81.2686 170.279 83.1655 173.365 85.321 176.283C86.3502 177.675 87.4218 179.062 88.6462 180.279C90.0085 181.632 91.7857 181.898 93.2164 180.284C94.0961 179.292 94.931 178.257 95.7399 177.205C97.5044 174.912 99.24 172.597 100.984 170.288C101.046 170.206 101.074 170.098 101.117 170.001C101.009 169.981 100.902 169.958 100.793 169.941C99.9602 169.812 99.1065 169.762 98.2984 169.543C95.6412 168.822 93.5053 167.161 91.3561 165.547C89.3235 164.02 87.3251 162.448 85.3021 160.909C84.9794 160.663 84.6774 160.657 84.4342 161.094C83.7688 162.29 83.0736 163.469 82.3787 164.649C82.2631 164.845 82.0894 165.007 81.9425 165.185C81.763 164.966 81.5473 164.767 81.4105 164.524C80.896 163.609 81.4162 162.764 81.6697 161.931C82.2047 160.172 82.6013 158.405 82.5268 156.551C82.4619 154.94 82.377 153.326 82.4014 151.715C82.418 150.62 82.8193 149.544 83.7638 148.972C84.483 148.537 84.3781 148.029 84.3086 147.468C84.0596 145.457 83.6476 143.457 83.5336 141.439C83.3866 138.839 83.4523 136.225 83.9217 133.503C83.9683 133.197 83.9982 132.887 84.0644 132.585C84.3733 131.176 84.6209 129.748 85.025 128.366C85.5821 126.461 86.2265 124.579 86.8992 122.711C87.285 121.639 89.0832 118.004 88.9543 119.094C88.9004 119.694 88.1478 122.609 87.708 124.007C87.0257 126.175 86.3475 128.348 85.7776 130.548C85.0889 133.206 84.5728 135.904 84.6244 138.672C84.6523 140.169 84.6936 141.665 84.7673 143.159C84.8298 144.428 84.9457 145.693 85.0417 146.96C85.0742 147.389 85.3855 147.707 85.6225 147.559C86.0677 147.28 86.5078 146.992 86.9465 146.703C89.1591 145.244 91.114 143.483 92.9229 141.556C93.2691 141.187 93.6996 140.794 93.8234 140.34C94.1854 139.01 94.4451 137.648 94.6815 136.288C94.8725 135.189 94.9713 134.075 95.1116 132.967C95.3444 131.129 95.6686 129.296 95.7751 127.451C95.8344 126.425 95.5055 125.381 95.3985 124.34C95.2933 123.316 95.3015 122.279 95.163 121.261C94.9576 119.751 94.7317 118.238 94.39 116.755C94.1493 115.711 93.865 114.613 93.3124 113.716C92.191 111.897 90.8002 110.244 89.6622 108.433C88.7778 107.026 88.0104 105.488 87.869 103.807C87.7282 102.132 87.7801 100.434 87.8777 98.753C87.903 98.3163 88.3309 97.7041 88.7255 97.5421C89.1427 97.3708 89.4919 97.8935 89.6617 98.3678C89.9156 99.0773 90.2042 99.7744 90.4792 100.476C90.508 100.55 90.5446 100.62 90.5776 100.691C90.5969 100.606 90.637 100.519 90.6304 100.436C90.6218 100.33 90.5707 100.229 90.546 100.123C90.1871 98.5895 89.7643 97.0728 89.7789 95.4688C89.7861 94.6692 89.6189 93.8667 89.512 93.0681C89.4716 92.7665 89.3787 92.4719 89.3097 92.1741ZM72.7034 154.406C71.9567 154.481 71.2053 154.514 70.4553 154.553C69.4263 154.606 68.397 154.652 67.3675 154.693C64.9829 154.789 62.5981 154.881 60.0734 154.974C58.1081 155.067 56.1435 155.183 54.1771 155.248C51.937 155.321 49.6955 155.375 47.4545 155.379C46.6295 155.38 45.8031 155.224 44.9793 155.123C43.8727 154.988 42.7716 154.774 41.6615 154.711C40.3821 154.639 40.0176 155.057 40.0008 156.338C39.9684 158.807 39.929 161.278 40.7047 163.667C41.0175 164.631 41.2361 165.659 41.7362 166.52C42.4853 167.808 43.8258 168.374 45.2549 168.375C47.8959 168.376 50.537 168.216 53.178 168.121C54.3938 168.078 55.6094 168.028 56.8251 167.982C59.3496 167.888 61.8742 167.797 64.3987 167.702C65.5213 167.659 66.6433 167.594 67.7662 167.566C69.9836 167.508 72.2015 167.472 74.4191 167.421L74.5809 167.418C75.7133 167.389 76.835 167.362 77.5018 168.595C77.5608 168.704 77.8992 168.662 78.1077 168.691C78.122 168.512 78.2024 168.306 78.1401 168.16C77.5981 166.893 77.0349 165.635 76.4697 164.378C75.0906 161.311 74.0876 158.12 73.2915 154.859C73.2162 154.551 73.0821 154.368 72.7034 154.406ZM92.1006 146.184C90.4462 147.036 88.7916 147.897 87.2033 148.864C86.4958 149.294 85.8599 149.92 85.356 150.582C84.9667 151.094 84.8291 151.799 84.5876 152.421C83.9549 154.05 84.4641 155.539 85.3518 156.857C86.7368 158.914 88.2971 160.85 90.2176 162.451C91.3997 163.436 100.009 169.382 103.191 166.683C103.632 166.308 103.819 165.735 104.077 165.233C105.129 163.177 106.828 161.438 107.183 159.044C107.324 158.087 107.45 157.101 107.369 156.145C107.276 155.04 106.942 153.955 106.723 152.859C106.579 152.139 106.538 151.376 105.82 150.927C105.728 150.87 105.628 150.827 105.532 150.778C105.509 150.885 105.45 150.997 105.467 151.097C105.683 152.347 105.811 153.589 106.244 154.824C106.765 156.311 106.496 157.913 105.886 159.409C105.615 160.073 104.677 160.391 104.037 160.313C102.252 160.098 100.769 159.223 99.4766 158.008C97.6513 156.292 96.5138 154.149 95.6011 151.757C95.3913 151.145 95.1897 150.529 94.9698 149.921C94.6036 148.908 94.2726 147.879 93.8377 146.896C93.4949 146.121 92.7821 145.833 92.1006 146.184ZM123.404 79.6111C123.461 79.7867 123.485 79.9831 123.581 80.1346C124.153 81.0422 124.837 81.1966 125.305 82.1538C126.381 84.3604 127.184 85.9704 128.129 88.2363C128.495 89.1129 128.532 90.2564 128.836 91.7045C128.847 91.7584 129.007 91.91 129.123 91.9777C129.722 92.3289 130.372 92.6094 130.924 93.0214C132.505 94.2009 133.011 95.502 132.531 97.181C131.684 100.142 130.679 98.6622 131.282 96.8948C131.527 96.1763 131.344 95.4424 130.777 94.9192C130.588 94.7447 129.742 94.3184 128.696 93.8326C128.597 93.7862 128.669 94.1082 128.247 94.96C128.121 95.2145 127.632 95.9502 127.493 95.5767C127.255 94.9388 127.696 93.3758 127.493 93.2852L127.276 93.1887C125.611 92.4506 123.945 91.7625 123.74 91.7372C123.118 91.6599 122.541 91.9645 122.535 93.0759C122.521 95.7971 121.442 97.9956 119.373 99.7286C117.534 101.27 115.483 102.075 113.024 101.697C111.223 101.42 109.687 100.666 108.353 99.4629C107.178 98.4025 106.287 97.1485 105.886 95.5924C105.79 95.2187 105.686 95.2432 105.429 95.4815C104.145 96.6696 103.297 98.1161 102.816 99.7866C102.759 99.9854 102.747 100.197 102.714 100.403C102.933 100.384 103.161 100.396 103.371 100.339C103.976 100.175 104.574 99.9824 105.175 99.8023C105.253 99.7789 105.334 99.7644 105.414 99.7458C105.383 99.813 105.346 99.878 105.323 99.9478C105.043 100.81 104.422 101.351 103.604 101.639C102.69 101.96 101.304 101.072 101.564 100.154C101.75 99.4976 102.077 98.8749 102.388 98.2612C102.927 97.2004 103.503 96.1584 104.133 95.1085C104.193 94.9351 104.253 94.7616 104.312 94.5882C104.183 94.715 104.053 94.8418 103.854 94.9686C103.755 95.1142 103.682 95.2913 103.553 95.4006C101.756 96.9152 99.7509 97.7406 97.3298 97.5107C95.9482 97.3795 94.7458 96.8951 93.608 96.1825C92.6468 95.5806 91.6129 95.944 91.5031 97.063C91.4264 97.8434 91.5068 98.6779 91.7046 99.4395C92.3455 101.907 93.0318 104.35 94.0846 106.703C94.8594 108.435 95.9396 109.634 97.7011 110.204C99.0208 110.631 100.355 111.054 101.714 111.31C103.346 111.616 105.002 111.605 106.646 111.211C107.841 110.925 109.066 110.761 110.264 110.486C111.428 110.218 112.643 110.028 113.716 109.541C116.325 108.357 120.97 104.471 123.067 102.539C123.166 102.447 123.265 102.355 123.364 102.264C123.383 102.395 123.428 102.529 123.419 102.658C123.339 103.873 120.28 106.774 119.187 107.302C118.977 107.403 118.92 107.818 118.792 108.089C119.025 108.191 119.256 108.368 119.492 108.377C119.761 108.386 120.032 108.231 120.308 108.177C120.384 108.162 120.549 108.241 120.558 108.296C120.624 108.716 120.695 109.14 120.702 109.565C120.72 110.761 120.731 111.959 120.695 113.154C120.683 113.561 120.565 113.98 120.421 114.365C119.456 116.948 118.412 119.503 117.508 122.107C116.686 124.476 115.916 126.871 115.3 129.3C114.855 131.053 114.531 132.872 114.454 134.674C114.347 137.178 114.305 139.691 114.807 142.195C115.362 144.966 116.417 147.505 117.92 149.859C119.551 152.412 121.247 154.924 122.969 157.416C123.394 158.032 123.839 158.693 124.59 159.011C124.782 159.092 125.285 158.996 125.558 158.831C125.861 158.65 125.96 158.335 125.758 157.915C125.068 156.478 124.435 155.014 123.786 153.558C122.84 151.432 121.889 149.309 120.957 147.177C119.349 143.499 118.728 139.6 118.644 135.632C118.596 133.316 118.87 130.992 119.037 128.675C119.135 127.331 119.259 125.985 119.461 124.654C119.792 122.471 120.229 120.305 120.559 118.122C120.916 115.757 121.516 113.472 122.701 111.386C123.59 109.82 124.752 108.461 126.436 107.709C128.471 106.799 130.388 105.788 131.808 103.969C133.131 102.275 133.934 100.386 134.115 98.2826C134.351 95.5241 133.704 92.9579 132.032 90.6942C130.627 88.7916 129.294 86.8494 128.247 84.7115C127.188 82.5486 125.981 81.1649 123.839 79.8447C123.699 79.7583 123.549 79.6886 123.404 79.6111ZM88.6232 98.7609C88.548 98.9757 88.418 99.1875 88.4062 99.4057C88.2968 101.417 88.5916 103.394 89.2639 105.272C89.8402 106.882 90.5328 108.483 91.6939 109.784C92.6115 110.811 93.2191 112.103 94.3794 112.925C94.4825 112.998 94.5077 113.193 94.5503 113.337C94.9236 114.601 95.331 115.856 95.6518 117.133L95.7372 117.476C96.0047 118.562 96.2331 119.661 96.0933 120.8C96.0736 120.961 96.0748 121.128 96.093 121.289C96.3225 123.314 96.5501 125.339 96.7921 127.363C96.9891 129.011 96.3977 130.563 96.2248 132.166C96.1151 133.184 95.9646 134.198 95.8071 135.21C95.6373 136.3 95.4537 137.39 95.247 138.474C95.0336 139.594 94.8834 140.74 94.513 141.808C94.3098 142.394 94.3777 142.819 94.578 143.328C95.0042 144.41 95.3809 145.513 95.815 146.592C96.8277 149.11 97.7943 151.649 98.9102 154.121C99.7586 156 101.241 157.283 103.259 157.877C104.238 158.165 105.118 157.822 105.284 157.02C105.364 156.634 105.319 156.199 105.229 155.809C105.139 155.42 104.821 155.071 104.782 154.686C104.678 153.639 104.669 152.582 104.623 151.529C104.615 151.345 104.627 151.158 104.608 150.975C104.476 149.702 104.33 148.431 104.206 147.157C104.093 146.003 104.029 144.844 103.894 143.693C103.748 142.457 103.524 141.231 103.371 139.997C103.285 139.299 103.305 138.587 103.217 137.889C103.057 136.634 102.802 135.39 102.676 134.132C102.491 132.283 102.369 130.427 102.25 128.572C102.135 126.794 102.011 125.014 101.977 123.233C101.93 120.787 101.925 118.337 101.988 115.891C102.009 115.069 102.26 114.246 102.466 113.438C102.553 113.097 102.525 113.045 102.169 112.998C101.029 112.849 99.882 112.703 98.7656 112.438C96.9061 111.997 95.3906 111 94.4183 109.315C93.3887 107.531 92.4073 105.72 91.3349 103.851C91.104 103.526 90.8556 103.213 90.6459 102.876C90.2575 102.251 89.8367 101.637 89.5345 100.97C89.3044 100.463 89.2653 99.8724 89.0832 99.3387C89.0084 99.1193 88.7811 98.9519 88.6232 98.7609ZM121.211 77.0621C121.146 77.0691 121.082 77.088 121.018 77.1014C121.064 77.1673 121.096 77.2537 121.158 77.296C121.939 77.8276 122.73 78.3432 123.506 78.8816C125.218 80.0692 126.688 80.8111 127.836 82.5514C129.258 84.707 130.652 86.8811 132.034 89.0624C133.354 91.1454 134.596 93.2355 134.872 95.7983C135.054 97.4915 134.963 99.1216 134.461 100.707C133.331 104.273 130.94 106.781 127.52 108.184C125.113 109.172 123.707 110.963 122.831 113.245C122.313 114.596 121.994 116.031 121.672 117.448C121.259 119.267 120.896 121.099 120.58 122.938C120.335 124.365 120.169 125.808 120.015 127.25C119.803 129.244 119.506 131.242 119.485 133.24C119.464 135.302 119.653 137.375 119.894 139.426C120.077 140.991 120.392 142.555 120.812 144.075C121.971 148.273 124.129 152.032 126.167 155.837C126.503 156.464 127.193 156.612 127.596 156.081C127.835 155.766 127.975 155.197 127.867 154.826C127.319 152.94 126.625 151.096 126.079 149.209C125.227 146.27 124.453 143.309 123.645 140.217C123.599 140.167 123.519 140.122 123.51 140.065C123.318 138.838 123.114 137.613 122.951 136.382C122.745 134.83 122.438 133.275 122.418 131.719C122.39 129.382 122.464 127.031 122.702 124.707C122.884 122.927 123.293 121.154 123.765 119.423C124.603 116.347 125.948 113.484 127.851 110.913C128.602 109.899 129.434 108.942 130.277 108.002C131.304 106.856 132.531 105.861 133.404 104.613C135.07 102.232 135.787 99.4622 135.925 96.5873C135.997 95.0723 135.931 93.5103 135.635 92.028C135.236 90.0367 134.65 88.0687 133.974 86.1504C132.905 83.1125 131.273 80.4283 128.619 78.4618C126.405 76.8218 123.962 76.7634 121.211 77.0621ZM122.01 73.1784C120.861 73.145 119.702 74.1203 118.55 74.2772C118.504 74.2834 118.426 74.5107 118.462 74.5919C118.793 75.3481 119.469 75.7513 120.196 75.9194C121.549 76.2324 122.933 75.7195 124.306 75.9446C127.553 76.4769 129.982 78.3817 132.003 80.787C133.69 82.7952 134.817 85.1792 135.471 87.7271C135.962 89.6379 136.449 91.582 136.604 93.5378C136.773 95.6595 136.744 97.8065 136.263 99.9397C135.683 102.51 134.603 104.772 132.821 106.7C131.896 107.699 130.921 108.654 130.01 109.665C128.705 111.114 127.648 112.74 126.722 114.454C125.692 116.36 124.871 118.347 124.261 120.429C123.578 122.762 123.155 125.148 123.12 127.563C123.092 129.508 123.319 131.461 123.521 133.401C123.679 134.921 123.908 136.44 124.219 137.935C124.775 140.608 125.369 143.276 126.039 145.922C126.564 147.993 127.203 150.045 128.253 151.922C128.503 152.369 129.01 152.902 129.455 152.96C130.171 153.053 131.252 151.282 131.054 150.563C130.777 149.559 130.499 148.556 130.219 147.553C129.301 144.261 128.88 140.877 128.726 137.489C128.598 134.67 128.805 131.83 128.984 129.007C129.093 127.278 129.349 125.547 129.681 123.845C130.055 121.922 130.599 120.032 131.049 118.123C131.597 115.806 132.86 113.791 133.775 111.63C134.782 109.25 135.872 106.903 136.819 104.5C137.605 102.504 138.061 100.415 138.359 98.2771C138.609 96.484 138.737 94.6871 138.435 92.9292C138.097 90.9636 137.532 89.0301 136.963 87.1131C136.196 84.5305 135.304 81.9824 135.395 79.0931C135.449 77.8849 134.714 77.1361 133.832 76.5119C132.382 75.4859 130.685 74.9974 129.036 74.421C126.765 73.6272 124.401 73.2477 122.01 73.1784ZM71.0613 144.139C70.322 145.458 69.6081 146.792 68.8155 148.19C68.717 148.382 68.6179 148.573 68.5201 148.765C68.0552 149.678 67.2812 150.507 67.9299 151.68C68.0687 151.931 68.1044 152.06 68.4053 152.043C69.478 151.981 70.5599 152.003 71.6218 151.866C72.0153 151.815 72.5672 151.482 72.6819 151.152C72.8366 150.706 72.6664 150.134 72.5853 149.624C72.472 148.91 72.301 148.206 72.177 147.493C72.1114 147.117 72.0703 146.733 72.058 146.351C72.0338 145.594 72.1087 144.854 71.5633 144.177C71.3059 143.858 71.1983 143.895 71.0613 144.139ZM136.377 80.4726C136.463 81.4133 136.44 82.3857 136.682 83.2862C137.248 85.395 137.976 87.4596 138.575 89.5603C139.068 91.2895 139.48 93.0452 139.446 94.8635C139.429 95.7539 139.356 96.6431 139.312 97.5331C139.212 99.55 138.674 101.477 138.088 103.391C136.895 107.282 134.97 110.864 133.365 114.582C132.666 116.202 132.097 117.894 131.644 119.6C131.156 121.443 130.823 123.332 130.514 125.216C130.254 126.805 129.987 128.414 129.969 130.017C129.929 133.382 129.773 136.756 130.216 140.112C130.38 141.356 130.499 142.607 130.639 143.994C130.872 145.529 131.061 147.074 131.369 148.594C131.449 148.988 131.855 149.545 132.196 149.615C133.315 149.843 134.224 149.31 134.686 148.25C135.39 146.634 135.909 145.028 135.434 143.171C134.974 141.374 134.79 139.501 134.568 137.652C134.327 135.653 134.114 133.646 134.014 131.636C133.904 129.403 133.925 127.155 134.43 124.961C134.805 123.335 135.232 121.711 135.778 120.136C136.759 117.306 137.956 114.548 138.865 111.697C140.069 107.92 140.675 104.005 140.97 100.055C141.09 98.4475 140.97 96.8233 140.994 95.2072C141.03 92.8637 140.844 90.5401 140.426 88.2363C140.168 86.8098 139.952 85.3678 139.569 83.9735C139.134 82.3881 138.212 81.1112 136.735 80.2656C136.339 80.0391 136.35 80.1796 136.377 80.4726ZM140.482 83.5176C140.511 83.6979 140.541 83.8782 140.57 84.1285C140.896 85.9745 141.31 87.8103 141.526 89.6691C141.767 91.7436 141.906 93.8375 141.944 95.9255C141.974 97.5627 141.833 99.2088 141.675 100.842C141.502 102.639 141.323 104.446 140.965 106.212C140.472 108.644 139.91 111.072 139.189 113.445C138.54 115.584 137.659 117.655 136.842 119.741C135.378 123.478 134.674 127.34 134.832 131.355C134.858 132.03 134.781 132.712 134.846 133.382C134.999 134.963 135.187 136.541 135.402 138.114C135.543 139.141 135.791 140.152 135.926 141.179C136.069 142.274 136.315 143.404 136.171 144.471C136.073 145.197 136.404 145.629 136.615 146.164C136.672 146.309 136.981 146.413 137.183 146.43C137.736 146.476 138.607 145.675 138.895 144.951C139.62 143.125 139.804 141.198 139.841 139.272C139.863 138.121 139.565 136.967 139.457 135.81C139.302 134.149 139.041 132.479 139.094 130.822C139.16 128.812 139.424 126.798 139.755 124.812C140.059 122.985 140.41 121.138 141.014 119.394C142.462 115.209 143.327 110.931 143.5 106.515C143.589 104.252 143.616 101.986 143.639 99.721C143.646 98.9717 143.547 98.2219 143.509 97.4716C143.456 96.3959 143.48 95.3117 143.353 94.2452C143.124 92.3274 142.95 90.3845 142.485 88.5191C142.09 86.9365 141.316 85.4485 140.71 83.8487C140.634 83.7384 140.558 83.628 140.482 83.5176ZM143.975 90.7948C143.912 90.8854 143.818 90.9687 143.795 91.0685C143.764 91.2009 143.776 91.3473 143.789 91.486C143.926 92.9895 144.106 94.4904 144.196 95.9967C144.291 97.5824 144.294 99.1734 144.352 100.762C144.362 101.046 144.44 101.329 144.486 101.752C144.44 102.968 144.429 104.187 144.339 105.399C144.18 107.538 144.098 109.693 143.752 111.804C143.404 113.927 142.892 116.041 142.239 118.091C141.149 121.515 140.249 124.975 140.04 128.562C139.924 130.537 140.068 132.532 140.16 134.514C140.256 136.587 140.416 138.657 140.578 140.726C140.628 141.363 140.695 142.021 140.907 142.616C141.062 143.051 141.468 143.398 141.762 143.784C142.151 143.394 142.677 143.068 142.901 142.599C143.317 141.729 143.636 140.793 143.848 139.851C144.096 138.749 144.289 137.613 144.314 136.488C144.335 135.594 143.983 134.697 143.945 133.795C143.879 132.205 143.873 130.609 143.941 129.019C144.019 127.233 144.172 125.449 144.356 123.671C144.545 121.852 144.825 120.043 145.043 118.226L145.256 116.453C145.432 114.975 145.602 113.496 145.734 112.014C145.884 110.334 145.996 108.644 146.009 106.958C146.027 104.717 145.955 102.475 145.877 100.235C145.827 98.781 145.732 97.3264 145.597 95.8776C145.437 94.1701 144.937 92.5529 144.122 91.0385C144.077 90.955 144.024 90.8759 143.975 90.7948ZM177.321 131.363C178.579 131.654 179.843 131.926 181.112 132.167C181.834 132.304 182.571 132.361 183.371 132.454C185.154 132.594 186.865 132.81 188.58 132.858C191.811 132.947 194.958 132.42 198.002 131.318C198.042 131.304 198.068 131.227 198.102 131.226C198.398 131.217 198.694 131.22 198.99 131.219C198.792 131.398 198.618 131.616 198.393 131.749C196.716 132.743 194.929 133.393 192.991 133.74C190.836 134.127 188.674 134.07 186.534 133.949C184.177 133.816 181.827 133.478 179.506 132.91C177.538 132.428 175.644 131.787 173.775 131.037C173.657 130.99 173.554 130.908 173.444 130.842C173.551 130.82 173.659 130.801 173.766 130.776C175.034 130.475 176.147 131.092 177.321 131.363ZM178.414 113.581C179.182 113.861 179.945 114.158 180.699 114.473C181.156 114.663 181.595 114.896 182.077 115.145C184.244 116.118 186.436 116.818 188.742 117.239C190.944 117.64 193.146 117.695 195.35 117.599C196.734 117.538 198.105 117.188 199.482 116.977C199.651 116.951 199.827 116.979 200 116.983C199.895 117.145 199.829 117.371 199.68 117.458C198.217 118.314 196.666 118.893 194.952 119.034C190.846 119.373 186.999 118.347 183.298 116.743C181.558 115.989 179.952 114.922 178.292 113.985C178.151 113.906 178.06 113.739 177.945 113.612C178.103 113.599 178.28 113.531 178.414 113.581ZM69.9899 113.586C69.8755 113.84 69.7759 114.103 69.6436 114.347C69.3736 114.846 68.9335 115.3 69.1015 115.929C69.3572 116.887 69.6521 117.835 69.9422 118.783C69.9567 118.831 70.1455 118.875 70.149 118.868C70.2262 118.716 70.2887 118.556 70.3541 118.257C70.485 118.033 70.5745 117.764 70.7571 117.596C71.0067 117.366 71.0396 117.188 70.9277 116.86C70.6424 116.023 70.4271 115.163 70.1856 114.312C70.1172 114.071 70.055 113.828 69.9899 113.586ZM71.5503 109.942C71.4779 110.023 71.3811 110.093 71.3372 110.187C71.0747 110.751 70.7486 111.299 70.5856 111.891C70.2331 113.172 70.8411 114.362 71.0534 115.59C71.1467 115.547 71.2874 115.529 71.3259 115.457C71.7298 114.698 72.1511 113.945 72.4912 113.157C72.6116 112.878 72.6053 112.483 72.5106 112.187C72.3749 111.764 72.1052 111.383 71.8927 110.844C71.846 110.655 71.8128 110.461 71.7481 110.278C71.7056 110.158 71.6178 110.054 71.5503 109.942ZM73.1759 103.361C73.1211 103.506 73.0162 103.652 73.0197 103.796C73.0453 104.834 72.758 105.787 72.385 106.747C72.1505 107.351 72.0179 107.986 72.1208 108.716C72.2307 109.494 72.736 109.923 73.0892 110.491C73.2488 110.748 73.4787 110.961 73.6767 111.194C73.8513 110.961 74.026 110.728 74.2705 110.425C74.5499 109.912 74.8423 109.406 75.1062 108.886C75.6923 107.73 75.6861 107.727 74.7589 106.715C74.6836 106.633 74.6157 106.543 74.5508 106.453C73.9716 105.642 73.6501 104.73 73.4665 103.758C73.4391 103.613 73.2761 103.493 73.1759 103.361ZM75.1639 98.7609C75.0982 98.8732 75.0264 98.9825 74.9679 99.0984C74.6865 99.656 74.464 100.253 74.1169 100.766C73.5799 101.559 73.9552 102.298 74.1343 103.054C74.4572 104.415 74.8934 105.73 75.8344 106.814C76.0517 107.064 76.0492 107.067 76.2987 106.578C76.7588 105.931 77.2029 105.273 77.686 104.644C77.912 104.349 78.1145 104.165 77.7391 103.793C77.318 103.377 76.9138 102.893 76.668 102.361C76.1729 101.29 75.792 100.167 75.358 99.0675C75.3144 98.957 75.2296 98.8627 75.1639 98.7609ZM95.2724 103.246C95.7638 103.474 96.2416 103.773 96.65 104.129C97.7836 105.118 99.0758 105.567 100.574 105.467C100.784 105.453 105.239 105.229 104.906 105.801C104.679 106.192 101.314 106.839 100.929 106.845C99.3787 106.865 97.5186 106.125 96.7402 105.801C96.4256 105.671 94.1087 104.276 94.5438 103.457C94.7122 103.141 95.099 103.166 95.2724 103.246ZM77.3582 95.3078C77.1216 95.6719 76.783 96.0082 76.6743 96.4071C76.5409 96.8967 76.066 97.2805 76.227 97.8586C76.559 99.0502 76.8148 100.268 77.2321 101.429C77.4949 102.16 77.992 102.807 78.3954 103.485C78.4043 103.5 78.5873 103.458 78.6278 103.4C79.1758 102.616 79.9117 102.071 80.8445 101.613C81.0799 101.449 81.3017 101.26 81.5541 101.13C81.8501 100.977 81.8141 100.942 81.5494 100.763C79.8703 99.626 78.7061 98.0433 77.7712 96.2758C77.6077 95.9668 77.4946 95.6312 77.3582 95.3078ZM0.0358227 81.713C0.0852619 81.7876 0.129816 81.8659 0.184857 81.936C1.55189 83.6777 2.92046 85.4181 4.28728 87.1599C4.42433 87.3346 4.55194 87.5166 4.7189 87.7302C6.08888 89.1468 7.3621 90.5957 8.77476 91.8928C10.4875 93.4654 12.3111 94.918 14.0999 96.4067C15.3877 97.4785 16.6737 98.5817 18.2714 99.1608C19.2889 99.5296 20.3551 99.8847 21.4219 99.9723C23.799 100.167 26.1926 100.153 28.5743 100.306C29.2967 100.353 30.0051 100.657 30.7119 100.869C30.8166 100.901 31.1158 101.068 30.657 101.136C29.3263 101.332 28.0107 101.639 26.677 101.804C25.8656 101.904 25.0316 101.832 24.208 101.82C22.088 101.789 20.086 101.246 18.1325 100.452C15.6437 99.4409 13.4151 98.0213 11.4193 96.2388C10.0484 95.0143 8.61801 93.8324 7.39998 92.4659C5.22515 90.026 3.15275 87.4911 1.11953 84.9307C0.46488 84.1064 0.0454165 83.0853 0.000325062 81.9771C-0.0032305 81.8897 0.0232842 81.8011 0.0358227 81.713ZM79.4054 91.7344C78.7867 92.5145 77.9938 93.2482 78.2031 94.369C78.3532 95.1731 78.6377 95.9543 78.8895 96.7369C79.435 98.4328 80.8344 99.3874 82.1423 100.413C82.2121 100.468 82.4526 100.412 82.5335 100.329C83.6285 99.2085 84.7092 98.0741 85.7937 96.9433C86.0015 96.7266 86.2944 96.5391 85.6714 96.4886C85.2521 96.4546 84.8491 96.2373 84.4353 96.1138C83.9163 95.9589 83.3937 95.816 82.7328 95.668C82.2443 95.2261 81.7978 94.7223 81.2579 94.3562C80.3396 93.7334 79.7711 92.9242 79.5787 91.8374C79.5707 91.792 79.4121 91.726 79.4054 91.7344ZM113.237 87.0002L112.759 87.1598C111.537 87.5686 110.325 88.0034 109.345 88.9139C108.22 89.959 107.643 91.3024 107.29 92.7466C107.219 93.0385 107.169 93.3284 107.142 93.6149C107.167 93.5079 107.2 93.4037 107.234 93.3086C107.329 93.0508 107.565 92.8391 107.759 92.6248L107.837 92.5393C108.218 92.1315 108.626 91.8203 109.24 92.22C109.916 92.6602 109.617 93.2083 109.428 93.7443C109.365 93.9252 109.268 94.0946 109.152 94.3042C108.837 94.825 108.406 95.108 107.869 94.9443C107.578 94.8555 107.253 94.5609 107.143 94.2807C107.135 94.2587 107.127 94.2358 107.121 94.2123C107.144 95.1957 107.462 96.127 108.136 96.9513C108.727 97.6721 109.447 98.3014 110.172 98.8934C111.929 100.327 113.902 100.578 115.9 99.5381C118.445 98.2128 119.712 95.8116 120.848 93.2202C120.919 92.6387 121.081 92.0512 121.043 91.4769C120.968 90.35 120.242 89.5526 119.425 88.8722C117.634 87.3801 115.733 86.1625 113.237 87.0002ZM82.0305 86.5792C81.8683 86.7679 81.6949 86.9485 81.5486 87.1488C81.4751 87.2494 81.4416 87.3832 81.4054 87.5065C81.0766 88.6269 80.6814 89.734 80.4504 90.8743C80.3054 91.5896 80.4924 92.3326 80.9844 93.0803C81.5414 93.4766 82.0973 93.8745 82.6556 94.2689C83.7816 95.0643 85.1108 95.3195 86.4073 95.6507C86.513 95.6777 86.767 95.4864 86.8069 95.353C87.169 94.1433 87.5 92.9241 87.8298 91.705C87.8364 91.6808 87.7226 91.5938 87.6585 91.5853C86.5167 91.434 85.3872 91.3687 84.4206 90.539C83.3637 89.6318 82.7149 88.5157 82.2448 87.2523C82.1628 87.0319 82.1014 86.8038 82.0305 86.5792ZM95.2216 81.674C93.8687 81.8998 92.9788 82.8895 92.2013 83.96C91.2498 85.2699 90.7127 86.7513 90.6604 88.347C90.617 89.6706 90.9941 90.9442 91.6083 92.1394L91.7058 92.3294C92.0788 93.0555 92.4576 93.7483 93.263 94.137C95.2584 95.1002 97.35 95.4215 99.5251 95.0903C100.176 94.9913 100.937 94.8384 101.401 94.4296C103.176 92.8633 104.159 90.8461 104.413 88.3946C104.39 87.8642 104.398 87.3301 104.337 86.8039C104.157 85.2332 103.331 84.0381 102.113 83.0781C101.042 82.234 99.7887 81.7503 98.4792 81.5767C97.4135 81.4353 96.2868 81.4963 95.2216 81.674ZM98.6105 71.6812C97.8854 73.8668 97.1644 76.0537 96.455 78.2444C96.6128 78.2126 96.7803 78.1501 96.9115 78.1946C97.7001 78.462 98.4584 78.7823 99.0747 79.3859C99.4215 79.7254 99.8457 79.9859 100.27 80.317C100.36 80.3935 100.449 80.4655 100.535 80.5355C100.588 80.5489 100.64 80.5635 100.692 80.5782C102.279 81.0278 103.649 81.8672 104.624 83.2552C105.927 85.1109 106.244 87.277 106.581 89.4374C106.598 89.5474 106.611 89.658 106.626 89.7684C106.739 89.7191 106.869 89.6916 106.96 89.6159C107.138 89.4668 107.295 89.2927 107.458 89.1258C108.73 87.8216 110.156 86.7038 111.799 85.9292C113.545 85.1059 115.343 84.9022 117.233 85.6541C118.652 86.2187 119.791 87.1256 120.9 88.1063C121.383 88.5339 123.656 89.6174 127.718 91.3566C127.054 88.5514 126.369 86.5358 125.665 85.3099C124.778 83.766 123.777 82.5866 122.529 81.433C120.35 79.4176 118.071 77.5657 115.541 76.0014C112.879 74.3554 110.003 73.2631 107.007 72.4599C104.902 71.8955 102.768 71.4371 100.65 70.9209C99.7245 70.6955 98.8343 71.0064 98.6105 71.6812ZM84.7845 83.9279C83.6719 84.6821 82.7843 85.9685 83.2895 87.5524C83.8495 89.3084 85.8299 90.8257 87.709 90.8931C87.887 90.8995 88.1604 90.6756 88.2414 90.4929C88.4677 89.9823 88.6282 89.4407 88.7852 88.9028C88.8151 88.8002 88.7124 88.5511 88.667 88.5501C87.4749 88.5239 86.713 87.7608 85.8799 86.9259C85.3421 86.0457 84.9743 85.1168 85.0293 84.058C85.0314 84.016 84.8228 83.902 84.7845 83.9279ZM26.4261 85.8121C27.0441 86.1197 27.6597 86.4369 28.2511 86.7922C29.4817 87.5317 30.6709 88.3439 31.9279 89.0337C32.598 89.4015 33.3767 89.5692 34.1 89.8439C34.2596 89.9044 34.3924 90.0353 34.5375 90.1338C34.388 90.2068 34.2123 90.2507 34.093 90.3575C33.2236 91.1359 32.4059 90.4161 31.5942 90.2482C29.9173 89.9014 28.7455 88.7514 27.5881 87.5204C27.0793 87.0582 26.5978 86.6391 26.1372 86.198C26.0267 86.0922 25.986 85.9136 25.9131 85.7685C26.0855 85.7801 26.2832 85.741 26.4261 85.8121ZM92.9376 87.094C93.5266 87.3435 93.4751 87.8169 93.4433 88.2754C93.3906 89.0355 92.3559 90.0286 91.6937 89.9062C91.4574 89.8625 91.1023 89.5038 91.1078 89.2971C91.1221 88.7607 91.3066 88.2289 91.4581 87.6603C91.5589 87.5595 91.6256 87.4945 91.6904 87.4277C92.0392 87.0678 92.3969 86.865 92.9376 87.094ZM86.7891 81.8206C86.5793 82.1287 86.291 82.4096 86.173 82.7496C85.5947 84.4158 86.6512 87.0146 88.8529 87.6472C88.958 87.6774 89.1926 87.5823 89.2239 87.4945C89.5709 86.5217 89.8915 85.5394 90.2115 84.5572C90.2318 84.4948 90.1894 84.3476 90.1747 84.3474C88.5364 84.3248 87.7402 83.3167 87.2643 81.9053C87.2349 81.8181 86.9989 81.8006 86.7891 81.8206ZM115.562 84.8439C115.701 84.9178 115.817 85.037 115.943 85.1352C115.806 85.1027 115.67 85.0617 115.532 85.039C114.098 84.8037 112.664 84.577 111.232 84.3318C111.032 84.2976 110.847 84.1763 110.656 84.0953C110.865 84.0364 111.075 83.9776 111.355 83.9187C112.88 83.8896 114.269 84.1574 115.562 84.8439ZM90.2775 77.493C90.1171 77.729 89.9542 77.9634 89.7993 78.2029C89.7781 78.2357 89.8131 78.3029 89.7939 78.3393C89.3495 79.1793 88.9221 80.0293 88.4454 80.8507C88.1786 81.3104 88.1635 82.2108 88.5615 82.4539C89.1295 82.8007 89.7472 83.067 90.3487 83.3573C90.7481 83.55 90.9895 83.3057 91.1911 83.0108C91.5746 82.4499 91.9263 81.8656 92.3343 81.3235C92.6531 80.8999 92.3382 80.9879 92.0343 80.9114C90.5839 80.5488 90.4171 79.3357 90.2238 78.1522C90.1893 77.941 90.257 77.7131 90.2775 77.493ZM92.6508 74.1406C92.4453 74.3071 92.1631 74.4323 92.047 74.6471C91.4037 75.8382 91.1639 77.1413 91.2088 78.4771C91.2439 79.5229 91.8865 80.2362 92.8986 80.5045C93.0386 80.5416 93.2375 80.4851 93.3679 80.4049C93.705 80.1975 94.019 79.9525 94.4121 79.6526C94.552 79.4083 94.7302 79.1775 94.8225 78.9164C94.9523 78.5494 95.0365 78.163 95.1016 77.7784C95.1244 77.6437 95.0813 77.425 94.9866 77.3547C94.0492 76.6594 93.3522 75.7786 92.875 74.7192C92.7902 74.5309 92.725 74.3337 92.6508 74.1406ZM96.4368 78.3035L96.1491 79.1917C96.1173 79.2905 96.254 79.5453 96.3503 79.5685C97.204 79.7734 98.0661 79.9475 98.923 80.139C98.4517 79.7916 97.9808 79.4429 97.5078 79.0973C97.2614 78.9173 96.9873 78.7754 96.7391 78.5978C96.626 78.5169 96.5341 78.4064 96.4368 78.3035ZM96.8895 68.0928C96.4014 68.5051 95.9359 68.9439 95.3913 69.4419C94.4731 70.1477 94.0965 71.1591 93.8673 72.2323C93.5624 73.6603 93.7134 74.9852 94.8604 76.0511C95.2491 76.4123 95.5044 76.259 95.6653 75.8639C96.1602 74.6484 96.6307 73.423 97.1081 72.2004C97.6093 70.9169 97.8913 69.6382 97.376 68.261C97.2179 67.8383 97.1023 67.913 96.8895 68.0928ZM114.358 69.3964C113.749 69.5333 113.056 70.4676 112.809 71.1919C112.701 71.5102 112.542 71.7563 113.16 71.9255C114.514 72.2964 115.807 72.8879 117.002 73.8442C117.27 73.8552 117.548 73.9151 117.806 73.8683C118.777 73.6926 119.737 72.6517 120.709 72.622C122.018 72.5822 123.344 72.7039 124.643 72.8886C125.985 73.0791 127.338 73.3214 128.624 73.7344C130.322 74.2798 131.959 75.0141 133.623 75.6649C133.734 75.7082 133.852 75.7323 133.967 75.7653C133.937 75.6693 133.891 75.5751 133.879 75.4769C133.801 74.8296 133.368 74.4244 132.859 74.137C131.409 73.3176 129.961 72.4848 128.461 71.7627C125.952 70.5545 123.36 69.6134 120.568 69.2017C118.464 68.8914 116.406 68.9363 114.358 69.3964ZM112.877 65.7368C110.812 65.8233 109.078 66.6047 107.781 68.2472C107.154 69.0421 107.295 70.2031 108.25 70.4823C109.436 70.8293 110.634 71.14 111.966 71.4664C112.246 71.0468 112.441 69.8159 112.823 69.5339C113.888 68.7465 115.155 68.4259 116.466 68.4062C117.611 68.3889 118.767 68.4095 119.9 68.5525C121.25 68.7228 122.607 68.9471 123.914 69.3153C126.792 70.1262 129.468 71.4351 132.084 72.8675C132.243 72.9544 132.412 73.0226 132.576 73.0996C132.574 72.8501 132.602 72.5949 132.556 72.3537C132.535 72.2402 132.385 72.1322 132.271 72.058C131.243 71.3936 130.255 70.6467 129.168 70.0974C126.899 68.9507 124.583 67.9068 122.121 67.2016C119.094 66.3346 116.056 65.6038 112.877 65.7368ZM108.588 60.9629C106.293 61.215 104.292 61.9828 102.748 63.7614C101.854 64.792 101.32 65.9675 101.266 67.4837C101.266 67.6937 101.223 68.611 101.277 68.8066C101.343 69.0516 101.449 69.443 101.606 69.4793C102.298 69.6394 103.013 69.7096 103.723 69.7715C103.826 69.7805 104.032 69.5805 104.049 69.4577C104.126 68.8978 104.068 67.6129 104.211 67.0747C104.765 64.9913 106.26 63.7949 108.195 63.0836C109.821 62.4861 111.513 62.4745 113.231 62.4931C115.78 62.5208 118.271 62.8891 120.722 63.5185C121.715 63.7735 122.65 64.2574 123.604 64.6568C123.727 64.7084 123.8 64.8788 123.897 64.9942C123.754 64.9726 123.604 64.9724 123.47 64.9261C120.228 63.8068 116.874 63.2822 113.466 63.0858C111.794 62.9895 110.118 63.1622 108.531 63.6641C106.778 64.2189 105.305 65.2127 104.707 67.1166C104.384 68.1443 104.849 69.7486 105.851 70.1191C106.437 70.3354 106.646 70.0637 106.874 69.5872C107.164 68.981 107.47 67.6527 107.912 67.16C109.307 65.6072 111.191 65.0927 113.178 65.0658C114.493 65.048 115.828 65.2315 117.126 65.4752C119.078 65.8418 121.039 66.2316 122.936 66.8075C125.775 67.6692 128.488 68.861 130.992 70.4849C131.172 70.6012 131.406 70.6332 131.615 70.7044C131.551 70.4986 131.512 70.2812 131.42 70.0888C130.281 67.6982 128.891 65.4812 126.871 63.7231C125.688 62.6922 124.338 61.9253 122.809 61.5518C121.701 61.2809 120.583 61.2135 119.415 61.3597C118.315 61.4974 117.174 61.3135 116.051 61.2561C115.51 61.2284 114.966 61.1947 114.431 61.1143C112.489 60.8225 110.552 60.7472 108.588 60.9629ZM100.631 65.3156C100.552 65.3497 100.463 65.3699 100.396 65.4201C99.9875 65.7275 99.6214 66.1198 99.1703 66.336C98.4398 66.686 98.571 67.2412 98.6698 67.8229C98.6841 67.9069 98.7397 67.9857 98.7451 68.069C98.7732 68.5011 98.7912 68.934 98.8127 69.3665C98.9102 69.9726 99.6556 69.9726 100.147 69.8579C100.24 69.5015 100.372 69.1501 100.419 68.7877C100.528 67.9431 100.599 66.3977 100.679 65.5495C100.686 65.4738 100.648 65.3937 100.631 65.3156ZM73.7088 26.2707C73.8381 26.4274 73.74 26.7868 73.7118 27.0534C73.6938 27.2229 73.5681 27.3901 73.5791 27.5522C73.7065 29.4298 73.8993 31.3042 73.9763 33.1834C74.045 34.8589 73.9879 36.5393 73.9942 38.2175C73.995 38.4384 74.0199 38.8439 74.0724 38.8504C74.4847 38.9014 74.9067 38.882 75.3244 38.8603C75.3514 38.8589 75.3953 38.656 75.3844 38.5517C75.3521 38.2432 75.2824 37.9385 75.2519 37.6299C75.0609 35.7031 74.8151 33.7789 74.7089 31.8472C74.6181 30.1973 74.6587 28.5372 74.7233 26.8848C74.7332 26.6314 75.1689 26.2204 75.4376 26.1945C75.7943 26.1602 75.9998 26.5146 75.9607 26.9606C75.9119 27.5157 75.9074 28.082 75.9565 28.6371C76.1232 30.5195 76.319 38.3253 76.3843 38.7888C76.3908 38.8349 76.6164 38.8758 76.7404 38.876C80.1668 38.8807 83.5935 38.9076 87.0194 38.867C88.5434 38.849 90.0653 38.6867 91.5889 38.6022C92.6411 38.5439 93.7 38.5592 94.7464 38.4501C97.6657 38.1457 100.589 38.0322 103.524 38.0174C105.005 38.0099 106.483 37.7404 107.966 37.6258C110.028 37.4664 112.09 37.2936 114.155 37.2134C116.675 37.1157 119.198 37.0995 121.719 37.0705C122.104 37.0661 122.281 37.0437 122.26 36.5687C122.181 34.7014 122.159 32.8317 122.105 30.9632C122.068 29.677 122.019 28.391 121.963 27.1054C121.947 26.7348 122.056 26.5605 122.465 26.5605C122.889 26.5605 122.945 26.7672 122.953 27.1213C122.982 28.3611 122.9 29.6254 123.119 30.8336C123.446 32.6406 123.31 34.4431 123.367 36.2478C123.388 36.9376 123.712 37.1933 124.366 37.0637C124.67 37.0034 124.979 36.9278 125.286 36.9275C131.673 36.9196 138.06 36.9101 144.446 36.928C146.571 36.9339 152.175 37.0078 154.3 37.0661C154.864 37.0816 155.428 37.1434 155.99 37.2043C156.584 37.2688 157.049 37.882 157.054 38.6132C157.063 39.8718 157.057 41.1305 157.057 42.3892C157.057 42.5057 157.051 42.6227 157.058 42.7388C157.079 43.0834 157.243 43.6399 157.103 43.7301C156.758 43.9525 156.279 44.0256 155.848 44.0444C153.23 44.1589 147.133 44.2692 144.514 44.3278C141.154 44.403 137.793 44.4328 134.433 44.4734C130.164 44.525 125.894 44.5601 121.625 44.6183C119.895 44.6419 118.167 44.7042 116.438 44.7555C115.059 44.7965 113.68 44.8538 112.3 44.8927C110.432 44.9455 108.563 44.9922 106.694 45.033C104.336 45.0844 101.978 45.1252 99.6197 45.1747C97.5412 45.2182 95.4628 45.2673 93.3843 45.3139C91.3058 45.3605 89.2266 45.3872 87.1491 45.4596C85.2754 45.5249 83.4028 45.6286 81.531 45.7377C80.3097 45.8088 79.0878 45.8922 77.8714 46.0203C76.3838 46.177 74.9035 46.4018 73.4168 46.5675C72.3396 46.6875 71.2586 46.7919 70.1764 46.8457C67.862 46.961 65.544 47.0096 63.2307 47.1433C61.8633 47.2224 53.5469 47.4339 52.1803 47.5392C51.7396 47.5732 51.2788 47.4957 50.8449 47.3939C50.6686 47.3525 50.4335 47.1272 50.4067 46.9569C50.2741 46.116 50.1906 45.2666 50.1127 44.4181C50.0483 43.7165 49.9676 43.0107 49.9849 42.3091C49.9981 41.7783 50.1438 41.2702 50.0245 40.7105C49.9895 40.546 50.594 40.0825 50.9474 40.0279C52.062 39.8556 60.1565 39.838 61.2797 39.7125C62.6977 39.554 64.1102 39.3467 65.5256 39.1649C65.6629 39.1472 65.8043 39.1648 65.9435 39.1588C68.0959 39.0665 70.2479 38.96 72.4011 38.8922C72.7715 38.8805 72.7362 38.712 72.7345 38.4707C72.7281 37.5384 72.7137 36.6055 72.7371 35.6738C72.76 34.7604 72.8252 33.848 72.8718 32.8652C72.6906 31.4951 72.4749 30.1985 72.3414 28.8934C72.2637 28.1339 72.274 27.357 72.3406 26.5963C72.359 26.3859 72.6954 26.0993 72.933 26.0414C73.1702 25.9836 73.5605 26.0912 73.7088 26.2707ZM144.7 37.9088C138.007 37.9347 131.314 37.9865 124.621 38.0436C121.214 38.0726 117.806 38.097 114.401 38.1962C112.755 38.2442 111.114 38.4715 109.47 38.5971C107.478 38.7492 105.484 38.8809 103.491 39.019C102.764 39.0693 102.038 39.1117 101.311 39.1597C99.2015 39.299 97.0935 39.4759 94.9818 39.5688C92.8589 39.6622 90.7324 39.6723 88.4676 39.719C87.9276 39.7656 87.388 39.8466 86.8475 39.8534C82.4153 39.9097 77.9825 39.9309 73.5507 40.0088C71.6771 40.0417 69.8053 40.1835 67.9329 40.2793C67.1129 40.3212 66.2919 40.3542 65.4739 40.4217C63.3361 40.5981 54.243 40.7966 52.1053 40.974C51.6009 41.0158 51.3112 41.1413 51.353 41.7624C51.4471 43.1616 51.4829 44.5661 51.4943 45.9688C51.4976 46.3805 51.6119 46.4714 51.9941 46.439C53.2826 46.3296 61.5304 46.2451 62.8204 46.1535C64.1567 46.0586 65.4926 45.9539 66.83 45.8765C68.6552 45.7708 70.482 45.6908 72.3074 45.5892C72.5696 45.5746 72.827 45.4892 73.089 45.4557C74.2192 45.3113 75.3485 45.1573 76.4815 45.0389C77.5826 44.9237 78.6866 44.8288 79.7915 44.7583C82.18 44.6058 84.5686 44.444 86.9596 44.3439C89.106 44.254 91.2557 44.2427 93.404 44.1946C95.4124 44.1495 97.4207 44.0983 99.4292 44.0559C101.81 44.0056 104.192 43.9558 106.573 43.9166C109.77 43.8641 112.967 43.8294 116.164 43.7721C117.754 43.7437 119.342 43.6847 120.931 43.6346C122.287 43.5919 123.642 43.5251 124.999 43.499C128.009 43.4412 131.02 43.3989 134.03 43.3565C137.6 43.3062 141.171 43.2848 144.74 43.2082C147.243 43.1544 153.223 43.0336 155.724 42.9232C155.846 42.9178 156.06 42.7267 156.062 42.6187C156.087 41.4305 156.077 40.2416 156.078 39.053C156.079 38.5493 155.788 38.2649 155.333 38.19C154.8 38.1022 154.256 38.0622 153.715 38.045C151.87 37.9866 146.546 37.9017 144.7 37.9088ZM125.333 25.5285C125.502 27.9642 125.678 30.3999 125.894 32.8318C125.964 33.6175 126.142 34.396 126.307 35.1701C126.45 35.8394 126.056 36.309 125.219 36.3271C125.044 35.8151 124.843 35.3464 124.777 34.8594C124.642 33.8572 124.532 32.847 124.494 31.8369C124.416 29.741 124.391 27.6431 124.346 25.546C124.339 25.2262 124.276 24.8993 124.791 24.8812C125.307 24.8631 125.306 25.1407 125.333 25.5285Z" fill="#00160A"/>
  <path fill-rule="evenodd" clip-rule="evenodd" d="M100.445 164.176C97.6802 171.104 86.4364 162.663 85.0272 157.695C84.4988 155.832 88.1191 152.016 89.9304 153.525C93.1549 156.213 92.9234 160.474 97.8806 161.541C98.6191 161.7 100.206 161.677 100.923 161.883C101.292 161.989 101.133 162.753 100.445 164.176Z" fill="#FF9A76"/>
  <path fill-rule="evenodd" clip-rule="evenodd" d="M145.624 130.496C145.947 132.057 146.229 133.548 146.195 135.089C146.176 136 146.266 136.915 146.325 137.827C146.492 140.422 145.296 142.243 143.197 143.652C141.757 144.618 140.456 145.79 139.033 146.785C137.837 147.62 136.582 148.382 135.305 149.089C132.724 150.518 130.08 151.856 128.907 154.839C128.363 156.222 127.64 157.572 127.352 159.008C127.018 160.666 127.323 162.316 128.849 163.449C128.902 163.488 128.927 163.565 128.981 163.602C129.218 163.761 129.473 164.044 129.697 164.023C129.87 164.007 130.031 163.617 130.155 163.372C130.431 162.825 130.178 162.342 130.054 161.791C129.866 160.957 130.013 160.047 130.038 159.17C130.041 159.075 130.177 158.983 130.251 158.89C130.293 159.002 130.363 159.11 130.373 159.224C130.429 159.833 130.414 160.455 130.537 161.05C130.626 161.482 130.846 161.907 131.089 162.282C131.341 162.671 132.19 162.486 132.329 162.015C132.586 161.144 132.541 160.269 132.353 159.379C132.258 158.928 132.335 158.438 132.363 157.967C132.367 157.897 132.53 157.836 132.62 157.771C132.665 157.856 132.738 157.946 132.749 158.025C133.164 161.243 133.772 161.243 134.022 161.338C134.271 161.433 134.591 161.305 134.707 161.243C134.854 161.165 134.963 160.908 134.983 160.718C135.056 159.994 134.968 159.232 135.163 158.548C135.414 157.666 135.797 156.793 136.282 156.015C136.603 155.499 137.192 155.142 137.681 154.739C138.954 153.69 140.275 152.714 141.879 152.218C143.017 151.866 144.163 151.544 145.302 151.196C147.266 150.595 149.267 150.087 151.182 149.356C154.168 148.215 156.394 146.237 157.072 142.966C157.444 141.173 157.158 139.365 156.481 137.676C155.944 136.339 155.216 135.078 154.579 133.78C154.514 133.648 154.489 133.497 154.445 133.354C154.561 133.429 154.696 133.485 154.788 133.582C156.414 135.287 157.49 137.309 157.987 139.593C158.52 142.042 158.692 144.519 157.488 146.845C157.224 147.355 156.686 147.766 156.194 148.108C154.71 149.138 153.052 149.833 151.355 150.427C149.38 151.118 147.436 151.989 145.402 152.397C143.439 152.79 141.737 153.698 139.931 154.411C138.822 154.849 138.218 155.867 137.348 156.574C136.431 157.32 136.167 158.234 136.249 159.336C136.273 159.66 136.239 159.989 136.254 160.314C136.351 162.409 135.311 162.598 133.734 161.976C133.666 161.949 133.472 162.039 133.466 162.089C133.336 163.27 132.662 163.848 131.584 163.463C131.12 163.297 131.144 163.609 131.098 163.718C130.624 164.853 129.463 165.22 128.667 164.342C127.841 163.431 127.075 162.422 126.51 161.338C126.23 160.8 126.359 159.976 126.484 159.316C126.698 158.188 126.987 157.063 127.366 155.98C127.869 154.546 128.692 153.292 129.65 152.094C130.627 150.871 131.846 149.995 133.164 149.256C134.975 148.241 136.758 147.188 138.444 145.981C139.135 145.486 139.722 144.848 140.401 144.336C141.298 143.659 142.241 143.044 143.162 142.399C144.418 141.519 145.278 140.468 145.236 138.782C145.208 137.655 145.574 136.523 145.598 135.39C145.622 134.266 145.423 133.138 145.35 132.01C145.315 131.469 145.34 130.923 145.348 130.379C145.349 130.282 145.399 130.186 145.427 130.09C145.493 130.202 145.558 130.314 145.624 130.496Z" fill="#00160A"/>
  <path fill-rule="evenodd" clip-rule="evenodd" d="M7.8492 54.6853C7.91508 54.5414 8.03824 54.4021 8.03879 54.4026C9.47686 55.6639 10.3855 57.2343 10.9588 59.0627C11.2056 59.8498 11.7499 60.569 12.2601 61.2426C13.2224 62.5131 14.2607 63.7259 15.2521 64.9749C15.2913 65.0243 15.2063 65.2557 15.1217 65.3065C14.5531 65.6481 13.5372 65.4662 12.9253 64.8485C12.4031 64.3214 11.9442 63.7282 11.4865 63.1414C10.7997 62.2609 9.83796 61.9133 8.80439 61.6775C7.16078 61.3026 5.9368 60.2928 4.91661 59.0182C3.19561 56.8682 2.47555 54.3232 2.12153 51.6512C2.03587 51.0047 1.90113 50.3179 2.02948 49.6996C2.29467 48.4221 3.43638 47.7235 4.8653 48.1428C7.42963 48.8953 9.98093 49.7333 12.4539 50.7411C14.0614 51.3962 14.7027 52.9124 15.0025 54.5981C15.2557 56.0215 14.9405 57.305 14.3783 58.5694C14.1836 59.0072 14.1494 58.991 13.8624 58.5806C13.3021 57.7796 13.1601 56.8355 13.3334 55.951C13.714 54.0077 12.8368 52.4745 11.2903 51.893C9.49507 51.2181 7.70502 50.5187 5.87599 49.9477C4.06572 49.3824 4.09077 49.5045 4.42519 51.2597C4.87864 53.6396 5.74866 55.9589 6.62904 58.231C7.09849 59.4426 8.06892 60.3527 9.44349 60.7208C9.93226 60.8517 9.86512 60.5777 9.79547 60.3803C9.46602 59.4465 9.11554 58.5188 8.73301 57.6054C8.34611 56.6816 7.80033 55.8124 7.8492 54.6853Z" fill="#FFB61D"/>
  <path fill-rule="evenodd" clip-rule="evenodd" d="M149.785 128.293C147.994 127.74 146.311 127.989 144.633 128.652C144.239 128.807 143.687 128.718 143.263 128.576C143.068 128.51 143.681 127.462 144.173 127.275C144.757 127.053 145.357 126.809 145.969 126.737C147.834 126.52 149.563 127.017 151.205 127.888C151.927 128.271 152.689 128.579 153.407 128.969C153.715 129.136 153.969 129.412 154.219 129.667C154.288 129.738 154.303 129.992 154.256 130.02C154.141 130.091 153.953 130.138 153.834 130.091C153.095 129.799 152.365 129.484 151.637 129.163C151.027 128.894 150.425 128.607 149.785 128.293Z" fill="#00160A"/>
  <path fill-rule="evenodd" clip-rule="evenodd" d="M94.5352 28.9139C93.322 29.7541 92.1732 30.6073 90.9576 31.3516C89.6309 32.1641 88.251 32.8924 86.8708 33.6123C86.6733 33.7153 86.192 33.6541 86.109 33.5124C85.9641 33.2651 85.9108 32.9256 86.3759 32.7055C87.1961 32.3172 87.977 31.8354 88.7406 31.3406C89.9188 30.5771 91.0645 29.7636 92.2319 28.9833C92.8668 28.5589 93.4902 28.1 94.1755 27.7773C94.455 27.6458 95.101 27.7127 95.206 27.8995C95.5198 28.458 95.0313 28.7039 94.5352 28.9139Z" fill="#E7EAEE"/>
  <path fill-rule="evenodd" clip-rule="evenodd" d="M103.207 116.614C103.615 116.252 103.983 115.92 104.364 115.602C104.475 115.509 104.622 115.46 104.753 115.39C104.809 115.511 104.897 115.627 104.915 115.753C105.035 116.587 105.05 117.473 105.825 118.027C106.154 118.263 106.539 118.508 106.924 118.56C108.356 118.754 110.049 118.607 111.028 117.073C111.424 116.451 111.302 115.818 111.365 115.178C111.382 115.01 111.496 114.738 111.613 114.711C112.084 114.599 111.918 115 111.905 115.193C111.851 115.964 112.048 116.725 111.526 117.488C110.894 118.41 110.063 118.998 109.056 119.123C108.069 119.246 107.029 119.317 106.025 118.904C105.126 118.534 104.694 117.883 104.499 116.995C104.474 116.877 104.425 116.764 104.387 116.649C104.295 116.709 104.204 116.769 104.112 116.828C103.138 117.45 102.212 118.199 100.971 118.171C100.793 118.167 100.62 117.943 100.445 117.821C100.604 117.757 100.764 117.696 100.922 117.627C101.672 117.302 102.422 116.975 103.207 116.614Z" fill="#00160A"/>
  <path fill-rule="evenodd" clip-rule="evenodd" d="M132.86 29.3334C133.676 28.6108 134.44 27.9019 135.25 27.2495C135.466 27.0748 135.819 27.028 136.115 27.0106C136.247 27.0028 136.506 27.2105 136.508 27.3231C136.511 27.5376 136.43 27.8231 136.277 27.9558C135.914 28.2697 135.46 28.4766 135.096 28.7885C133.905 29.8073 132.753 30.8708 131.547 31.8697C131.381 32.0066 130.918 31.9794 130.727 31.8416C130.47 31.656 130.569 31.3152 130.821 31.096C131.486 30.5164 132.157 29.9438 132.86 29.3334Z" fill="#E7EAEE"/>
  <path fill-rule="evenodd" clip-rule="evenodd" d="M110.236 153.715C109.553 153.808 108.943 153.944 108.327 153.984C107.6 154.031 106.865 154.037 106.142 153.971C105.908 153.95 105.7 153.646 105.48 153.472C105.695 153.366 105.901 153.204 106.127 153.165C107.327 152.961 108.528 152.731 109.739 152.624C110.761 152.533 111.798 152.588 112.828 152.611C112.946 152.613 113.145 152.818 113.149 152.933C113.153 153.051 112.977 153.258 112.852 153.282C112.008 153.448 111.156 153.575 110.236 153.715Z" fill="#00160A"/>
  <path fill-rule="evenodd" clip-rule="evenodd" d="M60.0564 28.8439C60.3394 28.6224 60.5635 28.3663 60.8427 28.2703C61.0886 28.1858 61.5963 28.2034 61.6375 28.3106C61.7461 28.5937 61.7975 28.9107 61.404 29.2105C60.2059 30.1234 59.0788 31.1293 57.9207 32.0949C57.8045 32.1918 57.6693 32.3202 57.5354 32.3299C57.3007 32.3469 56.9346 32.3631 56.8526 32.234C56.7401 32.0571 56.7361 31.6248 56.8678 31.5087C57.8943 30.6041 58.9647 29.7491 60.0564 28.8439Z" fill="#E7EAEE"/>
  <path fill-rule="evenodd" clip-rule="evenodd" d="M135.973 32.026C136.916 31.1989 137.876 30.4607 138.795 29.6746C139.129 29.3887 139.471 29.1713 139.789 29.5132C140.07 29.8161 139.899 30.1838 139.578 30.4523C138.66 31.2206 137.766 32.019 136.821 32.7529C136.639 32.8947 136.271 32.7981 135.989 32.8115C135.983 32.573 135.978 32.3344 135.973 32.026Z" fill="#E7EAEE"/>
  <path fill-rule="evenodd" clip-rule="evenodd" d="M104.256 119.551C104.501 119.866 104.887 120.15 104.881 120.426C104.871 120.887 104.735 121.368 104.202 121.661C103.416 122.093 102.749 121.922 102.105 121.447C101.543 121.032 101.573 120.288 102.139 119.501C102.374 119.174 103.288 119.042 103.698 119.269C103.866 119.362 104.046 119.435 104.256 119.551ZM104.082 119.936C103.89 119.837 103.706 119.713 103.504 119.645C103.035 119.488 102.662 119.6 102.409 120.064C102.16 120.517 102.38 120.842 102.716 121.062C102.938 121.207 103.274 121.287 103.531 121.242C103.812 121.192 104.161 121.02 104.293 120.793C104.395 120.618 104.209 120.274 104.082 119.936Z" fill="#00160A"/>
  <path fill-rule="evenodd" clip-rule="evenodd" d="M95.9342 32.4106C96.5284 32.0496 97.0717 31.689 97.6574 31.4208C97.8114 31.3503 98.2889 31.5703 98.2872 31.6497C98.2804 31.9632 98.2403 32.4029 98.0334 32.5602C97.5047 32.9623 96.9004 33.2891 96.2829 33.538C96.0544 33.6301 95.5347 33.5064 95.445 33.33C95.2575 32.9614 95.4454 32.5887 95.9342 32.4106Z" fill="#E7EAEE"/>
</svg>
