<svg width="200" height="198" viewBox="0 0 200 198" fill="none" xmlns="http://www.w3.org/2000/svg">
  <path fill-rule="evenodd" clip-rule="evenodd" d="M3.12571 162.769C2.64234 160.545 2.11228 158.332 1.64941 156.104C1.42557 155.027 1.29761 153.929 1.14537 152.838C0.861459 150.802 0.580895 148.767 0.321576 146.728C0.230373 146.011 0.165001 145.286 0.156781 144.564C0.0902275 138.715 -0.068811 132.863 0.0333371 127.016C0.0806449 124.308 0.642097 121.609 0.978724 118.907C1.42151 115.353 2.35168 111.911 3.4249 108.506C4.96945 103.605 6.53336 98.7105 8.09217 93.8142C8.92961 91.1838 9.82894 88.5713 10.5901 85.9191C10.9413 84.6952 11.0833 83.4014 11.219 82.1285C11.348 80.9185 11.486 79.6809 11.37 78.4796C11.1529 76.2319 10.7795 73.9979 10.4247 71.7656C10.1219 69.86 9.76793 67.9622 9.41187 66.0656C8.85886 63.1199 8.69555 60.1472 8.75496 57.158C8.80183 54.8001 8.72913 52.4298 8.95073 50.0879C9.27106 46.7025 9.75833 43.3105 11.0948 40.1511C12.1174 37.7338 13.2508 35.3454 14.5539 33.0696C15.8412 30.8213 17.3697 28.7068 18.8577 26.5793C19.7654 25.2816 20.7271 24.0075 21.7884 22.8348C23.4233 21.0282 25.1135 19.2645 26.8724 17.5787C29.6192 14.9461 32.6963 12.7268 35.9665 10.7914C39.0527 8.96498 42.319 7.51731 45.7491 6.45739C48.097 5.73189 50.465 5.06987 52.8017 4.31048C54.4734 3.76719 56.0757 2.99043 57.7672 2.53319C59.8663 1.96577 62.0117 1.52999 64.1625 1.20456C66.3699 0.87055 68.6061 0.718968 70.833 0.524047C72.4662 0.381084 74.1033 0.262522 75.7412 0.195266C77.9226 0.105685 80.1062 0.0522679 82.2894 0.0277355C84.7618 -4.82715e-05 87.2356 -0.0203497 89.7071 0.0348645C91.5929 0.0769971 93.4781 0.214765 95.3598 0.358864C97.8897 0.552604 100.418 0.771905 102.943 1.02106C104.813 1.20556 106.684 1.40244 108.54 1.68858C111.067 2.0782 113.587 2.52304 116.098 3.00768C119.64 3.69132 123.197 4.3263 126.699 5.17921C130.399 6.08028 134.1 7.05203 137.574 8.66491C140.698 10.1151 143.827 11.5665 146.866 13.1839C149.634 14.6573 152.278 16.3621 154.986 17.9491C156.026 18.5582 157.108 19.0962 158.139 19.7183C158.83 20.1355 159.526 20.5786 160.117 21.1223C162.802 23.5923 165.462 26.0892 168.105 28.603C169.38 29.8153 170.599 31.0862 171.843 32.3305C173.24 33.7275 174.704 35.0651 176.018 36.5364C177.685 38.4042 179.215 40.3946 180.834 42.3065C183.012 44.8776 184.473 47.8765 186.053 50.8145C187.125 52.8091 187.792 54.9501 188.576 57.0498C189.111 58.4847 189.724 59.93 189.968 61.4252C190.341 63.7077 191.693 65.5205 192.504 67.5815C193.335 69.6933 193.998 71.8721 194.703 74.0318C195.307 75.8794 195.934 77.7238 196.425 79.6024C196.877 81.3317 197.166 83.1038 197.52 84.8587C197.791 86.2089 198.075 87.5573 198.307 88.9145C198.472 89.8771 198.555 90.8533 198.68 91.8228C198.898 93.5238 199.134 95.2228 199.336 96.9257C199.471 98.0626 199.593 99.2029 199.664 100.345C199.752 101.782 199.785 103.221 199.837 104.66C199.895 106.264 200.054 107.872 199.981 109.47C199.809 113.236 193.61 128.375 191.107 132.09C189.656 134.244 188.258 136.434 186.769 138.561C184.818 141.348 182.822 144.104 180.807 146.845C178.393 150.126 175.968 153.4 173.489 156.631C172.317 158.158 171.033 159.601 169.75 161.039C168.679 162.241 167.603 163.453 166.411 164.529C164.081 166.631 161.68 168.652 159.288 170.683C156.136 173.36 152.678 175.623 149.104 177.66C146.187 179.322 143.1 180.721 139.991 182.002C135.304 183.932 130.541 185.681 125.794 187.464C122.167 188.826 118.538 190.194 114.865 191.425C111.758 192.467 108.611 193.407 105.438 194.22C102.751 194.909 100.009 195.392 97.2775 195.889C95.3646 196.237 93.4327 196.495 91.5007 196.719C89.6178 196.937 87.7248 197.072 85.8346 197.222C84.8393 197.302 83.841 197.366 82.843 197.387C79.5301 197.456 76.2168 197.528 72.9034 197.546C71.2723 197.555 69.6367 197.5 68.0102 197.379C65.7267 197.209 63.4396 197.024 61.1727 196.711C58.5868 196.353 56.0234 195.835 53.4464 195.411C51.3257 195.061 49.19 194.796 47.0779 194.403C43.4521 193.727 39.8223 193.056 36.2269 192.239C33.3491 191.586 30.4838 190.83 27.6771 189.922C23.2119 188.476 19.028 186.407 15.2502 183.597C13.9837 182.655 12.731 181.647 11.6655 180.491C9.12683 177.737 7.08549 174.63 5.60992 171.087C4.48064 168.35 3.73685 165.58 3.12571 162.769Z" fill="#FF9A76"/>
  <path d="M110.003 168.771C109.672 170.508 109.54 172.237 108.959 173.799C108.206 175.826 106.463 177.051 104.449 177.674C102.238 178.359 99.9601 178.839 97.6965 179.341C96.9447 179.508 96.1476 179.476 95.3704 179.523C92.572 179.692 89.7728 179.848 86.9748 180.023C85.4481 180.119 83.9242 180.261 82.3971 180.346C80.9327 180.427 79.4647 180.521 78.0001 180.498C77.675 180.493 75.6432 180.787 72.8005 180.987C72.2484 181.026 73.1076 184.008 72.115 184.321C69.9036 185.018 64.4872 184.822 63.5423 183.343C62.5973 181.864 62.9323 181.241 61.8847 180.813C56.7615 178.723 51.4843 178.234 49.9378 173.799C48.9085 170.847 50.8676 163.854 50.2979 158.485C48.8371 144.718 45.9316 129.357 45.8368 129.278C45.8464 129.268 42.7429 129.533 42.5117 128.395C39.6441 114.28 38.3363 95.6784 45.8368 90.9876C50.3533 88.163 58.9565 85.262 68.4944 82.8923C69.8806 82.5479 70.699 80.5112 72.115 80.1911C72.4318 80.1195 73.4008 78.2793 74.232 76.4306C75.069 74.5691 75.7729 72.6991 77.4911 72.6173C81.0231 72.4492 87.1159 67.9253 91.2494 69.337C95.0343 70.6296 96.9533 77.9061 98.415 77.0249C99.8882 76.1369 101.192 77.6788 103.21 77.6788C117.653 77.6788 128.53 105.116 130.043 111.867C127.515 115.515 120.028 115.515 112.954 117.676C111.783 116.232 109.431 111.902 108.672 109.466C107.89 106.959 107.62 112.644 107.565 114.658C107.495 117.264 107.728 119.878 107.857 122.488C107.942 124.208 108.082 125.925 108.181 127.644C108.354 130.663 108.537 133.682 108.672 136.702C108.767 138.828 108.726 140.961 108.863 143.083C109.003 145.258 109.293 147.422 109.504 149.592C109.628 150.869 109.742 152.146 109.833 153.425C109.91 154.504 110.018 155.587 109.988 156.664C109.929 158.752 109.71 160.838 109.701 162.925C109.697 164.015 110.062 165.101 110.137 166.198C110.194 167.021 110.055 167.857 110.003 168.771Z" fill="white"/>
  <path d="M133.097 38.583C132.166 37.7009 131.596 36.5989 130.864 35.618C130.843 35.5891 130.822 35.5588 130.807 35.5264C130.234 34.2831 129.674 33.0401 129.402 31.681C129.243 30.8874 129.249 30.1139 129.37 29.3267C129.43 28.9352 129.455 28.5376 129.533 28.1501C129.772 26.9609 130.352 25.9252 131.032 24.9403C131.237 24.6441 131.472 24.3683 131.671 24.0684C132.418 22.9452 133.471 22.2221 134.697 21.7182C135.495 21.3904 136.315 21.1139 137.096 20.7432C137.192 20.6976 137.298 20.6567 137.402 20.6468C138.694 20.5246 139.986 20.3976 141.28 20.2945C142.541 20.1937 143.805 20.2216 145.067 20.303C145.751 20.3469 146.438 20.366 147.119 20.4351C148.597 20.5852 150.026 20.9189 151.398 21.5187C152.357 21.9378 153.323 22.3297 154.242 22.8366C155.298 23.4192 156.193 24.1927 157.041 25.0329C157.429 25.4176 157.726 25.8684 157.992 26.3423C158.151 26.6252 158.291 26.9214 158.477 27.1856C159.556 28.7221 159.789 30.4329 159.527 32.2417C159.465 32.6683 159.328 33.0843 159.364 33.5235C159.151 34.3999 158.944 35.2796 158.422 36.0385C158.012 36.6336 157.568 37.2008 157.015 37.675C156.824 37.8395 156.631 38.0049 156.458 38.1881C156.083 38.5854 155.625 38.87 155.192 39.1924C154.257 39.887 153.217 40.3772 152.187 40.893C152.06 40.957 151.924 41.0081 151.787 41.0496C151.236 41.2175 150.683 41.3795 150.13 41.5426C149.507 41.7261 148.887 41.9209 148.26 42.0877C147.278 42.3491 146.26 42.3529 145.26 42.4857C145.119 42.5044 144.969 42.4942 144.828 42.47C143.761 42.2889 142.679 42.2337 141.606 42.0999C141.428 42.0778 141.253 42.0315 141.077 41.9947C139.876 41.7448 138.668 41.5229 137.503 41.1256C137.211 41.0261 136.947 41.0486 136.675 41.2083C136.365 41.3904 136.035 41.5395 135.711 41.6972C135.025 42.0301 134.428 42.4986 133.81 42.9354C133.635 43.0593 133.451 43.172 133.264 43.2782C133.119 43.3603 132.872 43.2371 132.834 43.0658C132.788 42.8557 132.742 42.6477 132.804 42.4268C133.151 41.1947 133.139 39.9343 133.097 38.583Z" fill="white"/>
  <path fill-rule="evenodd" clip-rule="evenodd" d="M72.5845 79.1669C72.5845 79.1669 74.1567 77.0142 74.6995 75.8922C75.2423 74.7701 75.7526 72.6174 75.7526 72.6174C75.7526 72.6174 86.9716 88.5022 85.1964 88.709C81.6479 89.1223 72.5845 79.1669 72.5845 79.1669Z" fill="#E7EAEE"/>
  <path d="M120.964 130.016C119.187 127.192 115.413 120.61 113.675 117.829C113.635 117.765 121.728 110.323 128.933 112.207C129.648 112.394 131.023 115.182 131.698 115.515C132.954 116.134 132.729 113.109 135.132 108.848C138.916 102.138 145.885 92.1181 148.62 86.1362C149.732 83.705 148.946 81.8101 148.829 81.2792C148.395 79.3154 147.376 77.7134 145.905 76.3679C144.951 75.4951 144.913 73.5474 145.999 73.0108C146.801 72.6145 147.706 72.489 148.62 72.9461C149.665 73.4681 150.705 73.9617 151.424 74.9347C151.521 75.0661 151.692 75.1433 151.828 75.2456C151.894 75.0798 151.966 74.9164 152.024 74.7479C152.603 73.0579 153.136 71.3504 153.771 69.6815C154.331 68.2067 154.953 66.7486 155.658 65.3386C155.891 64.874 156.477 64.2755 156.889 64.2849C157.496 64.2987 157.891 64.9535 157.982 65.64C158.03 66.004 158.082 66.3682 158.151 66.7287C158.181 66.8871 158.257 67.0367 158.313 67.1902C158.423 67.0587 158.525 66.9193 158.644 66.797C159.004 66.4282 159.324 65.9931 159.747 65.719C160.328 65.3424 160.99 65.761 160.943 66.4844C160.879 67.4837 160.801 68.4996 160.56 69.4662C160.126 71.2044 159.565 72.9107 159.064 74.6323C159.034 74.7348 159.063 74.8543 159.065 74.966C159.178 74.9055 159.346 74.8736 159.394 74.7799C159.71 74.168 160.047 73.5605 160.286 72.9177C160.672 71.8788 161.257 70.9891 162.103 70.2865C162.3 70.123 162.619 70.107 162.882 70.0231C162.958 70.2673 163.148 70.5423 163.091 70.7508C162.684 72.2589 162.332 73.7947 161.765 75.2445C160.337 78.8971 158.812 82.5118 157.312 86.1362C156.446 88.2307 155.439 90.2754 154.704 92.4141C153.954 94.5948 153.517 96.881 152.836 99.088C152.115 101.428 151.283 103.735 150.471 106.046C149.237 109.559 148.126 113.126 146.684 116.552C145.556 119.23 144.088 121.778 142.611 124.289C141.505 126.171 140.238 127.98 138.861 129.674C138.052 130.668 136.903 131.393 135.878 132.204C134.238 133.501 132.375 134.329 130.336 134.796C127.989 135.334 125.906 134.916 124.155 133.203C123.094 132.166 122.054 131.107 120.964 130.016Z" fill="white"/>
  <path fill-rule="evenodd" clip-rule="evenodd" d="M65.7506 60.3906C65.5245 60.8479 65.5392 61.248 65.8339 61.6364C65.9659 61.8104 66.1087 61.9763 66.2515 62.1422C66.4048 62.3204 66.5581 62.4986 66.6981 62.6867C66.9095 62.9709 67.1279 63.2514 67.3463 63.5321C67.9199 64.2688 68.4939 65.0063 68.9442 65.8123C69.5804 66.9512 70.3172 67.791 71.6543 68.0322C72.197 68.1302 72.4019 68.5638 72.4668 69.1349C72.5573 69.9296 72.7053 70.7352 72.9691 71.4868C73.1579 72.0246 73.6572 72.381 74.2931 72.3122C74.5912 72.28 74.8882 72.2296 75.1849 72.1793L75.1849 72.1793C75.6417 72.1018 76.0977 72.0245 76.556 72.0135C76.9952 72.003 77.5648 72.1177 77.8601 72.401C78.649 73.1577 79.3754 73.9806 80.101 74.8027L80.1011 74.8027C80.2511 74.9726 80.401 75.1425 80.5515 75.3118C80.607 75.3742 80.6614 75.4371 80.7155 75.4996L80.7158 75.4999C81.2457 76.1121 81.7382 76.6811 82.7913 76.3158C84.0416 75.882 85.3566 75.6877 86.7131 75.776C87.9571 75.8569 88.443 75.4355 88.8258 74.2173C88.8651 74.0924 88.8984 73.9647 88.9316 73.8371L88.9316 73.8371C88.9958 73.5907 89.0599 73.3445 89.1672 73.1187C89.208 73.033 89.2482 72.9462 89.2886 72.859C89.5097 72.382 89.7358 71.8943 90.0769 71.5195C90.6931 70.8426 91.4919 70.9466 92.3108 71.237C93.2323 71.5638 93.7103 71.3634 94.1079 70.5255C94.2761 70.1709 94.3318 70.1755 94.6395 70.4024C94.8884 70.586 95.2807 70.6708 95.5981 70.6474C96.3833 70.5893 97.1697 70.4793 97.9395 70.3148C98.2176 70.2554 98.5862 70.0353 98.6813 69.7962C98.7976 69.5037 98.9147 69.2114 99.0318 68.919L99.0318 68.919L99.0318 68.9189C99.692 67.2702 100.353 65.619 100.882 63.9276C101.742 61.1762 102.383 58.3593 102.382 55.4531C102.381 53.5062 102.323 51.5592 102.266 49.6125L102.266 49.6118C102.252 49.1186 102.237 48.6254 102.224 48.1323C102.217 47.898 102.212 47.6635 102.206 47.429V47.4288C102.181 46.3611 102.155 45.2921 102.048 44.2321C101.855 42.3194 101.605 40.4122 101.356 38.5053C101.314 38.1847 101.273 37.8642 101.231 37.5436C101.109 36.6042 100.967 35.6674 100.825 34.7306C100.778 34.4207 100.731 34.1108 100.685 33.8008L100.584 33.1293C100.362 31.64 100.14 30.1507 99.9057 28.6634C99.8966 28.6052 99.8882 28.5451 99.8798 28.4841C99.8369 28.1746 99.7909 27.8429 99.6163 27.6337C99.4603 27.4467 99.3046 27.2592 99.1489 27.0716C98.1522 25.8711 97.1527 24.6673 96.041 23.581C95.1688 22.7288 94.1176 22.0444 93.0853 21.3724L92.9511 21.285C90.1302 19.4471 86.9706 18.6197 83.6494 18.4014C82.7393 18.3415 81.8247 18.3553 80.9097 18.3691C80.362 18.3774 79.8141 18.3856 79.267 18.3781C78.7676 18.3712 78.4971 18.5303 78.173 18.966C77.743 19.544 77.1003 20.0092 76.4658 20.3809C74.8812 21.3094 73.4867 22.4 72.4156 23.9331C71.0088 25.9469 69.7198 28.0188 68.8773 30.3287C68.2276 32.1102 67.778 33.94 67.623 35.8565C67.5729 36.4753 67.4482 37.086 67.3234 37.697C67.0819 38.8792 66.8402 40.0628 67.1385 41.3094C67.2671 41.8466 67.3419 42.3975 67.4166 42.948C67.5043 43.5935 67.5918 44.2384 67.7659 44.8599L67.8621 45.2026C68.4173 47.1766 68.9621 49.1136 68.8537 51.2378C68.7372 53.5212 67.927 55.5161 66.9885 57.6774C66.8685 57.9427 66.7505 58.2088 66.6324 58.475C66.3473 59.1179 66.0621 59.7608 65.7506 60.3906ZM102.889 45.3562C102.89 45.3759 102.887 45.3971 102.885 45.4181C102.881 45.4558 102.877 45.4929 102.893 45.5188C102.941 45.5989 102.999 45.6732 103.057 45.7475C103.08 45.7768 103.102 45.8061 103.125 45.8358C103.149 45.8138 103.175 45.7928 103.2 45.7717C103.256 45.7262 103.311 45.6808 103.356 45.6265C103.483 45.4724 103.611 45.3191 103.739 45.1658L103.739 45.1651L103.739 45.1649C104.104 44.728 104.468 44.2911 104.81 43.8371C105.564 42.8358 106.301 41.8215 107.023 40.7969C107.449 40.1928 107.026 39.9426 106.521 39.9067C105.469 39.8322 104.579 40.2765 103.676 40.7958C103.03 41.1668 102.555 41.4775 102.724 42.4569L102.749 42.8949L102.749 42.8955C102.795 43.7157 102.842 44.536 102.889 45.3562ZM66.8851 45.821C66.8623 45.8581 66.8395 45.8952 66.823 45.9311C66.3734 45.7168 65.9564 45.4607 65.5437 45.2073C65.1823 44.9854 64.8242 44.7655 64.4502 44.5772C63.6047 44.1516 63.3072 43.3787 63.0365 42.6106C62.7249 41.7265 63.4183 40.882 64.3584 40.8884C64.4003 40.8887 64.4423 40.8889 64.4844 40.889C64.8195 40.8902 65.1597 40.8914 65.4819 40.9621C66.115 41.1009 66.1778 41.5915 66.2383 42.0642C66.2571 42.2109 66.2756 42.3559 66.311 42.4881C66.537 43.3341 66.7021 44.1967 66.8671 45.0585C66.9012 45.2369 66.9354 45.4151 66.97 45.5932C66.9832 45.6611 66.9342 45.741 66.8851 45.821Z" fill="white"/>
  <circle cx="97.0393" cy="55.6317" r="2.21263" fill="#FFB61D"/>
  <circle cx="73.9651" cy="53.7352" r="2.21263" fill="#FFB61D"/>
  <path fill-rule="evenodd" clip-rule="evenodd" d="M84.4252 27.0744C85.6859 27.3453 87.0533 27.674 88.3274 26.982C88.7589 26.7477 89.1646 26.4592 89.5578 26.1632C89.7976 25.9827 90.0135 25.7586 90.202 25.5236C91.6986 23.6579 92.803 23.9365 94.8639 25.1546C97.5004 26.7131 100.554 31.2527 92.3791 31.2527C88.2618 31.2527 71.8166 29.0107 74.1128 26.7821C75.0512 25.8712 76.2806 25.2616 77.3699 24.5038C77.7801 24.2184 78.1978 23.9327 78.5598 23.5917C79.0843 23.0977 79.4025 23.3585 79.7299 23.8126C80.1603 24.4095 80.6097 24.9928 81.0922 25.6233C82.2271 26.1516 83.2799 26.8284 84.4252 27.0744Z" fill="#E7EAEE"/>
  <path fill-rule="evenodd" clip-rule="evenodd" d="M128.484 112.423L128.484 112.423C128.056 112.68 127.63 112.937 127.171 113.111C126.061 113.532 124.935 113.913 123.799 114.297L123.798 114.297L123.798 114.298C123.078 114.541 122.354 114.786 121.626 115.044C121.406 115.129 121.213 115.186 121.027 115.24L121.026 115.24L121.026 115.24L121.026 115.24L121.026 115.24L121.026 115.24L120.954 115.261L120.895 115.279C120.245 115.472 119.596 115.667 118.946 115.863C117.315 116.354 115.684 116.845 114.044 117.304C113.38 117.491 112.831 117.282 112.471 116.564C111.574 114.781 110.615 113.029 109.65 111.282C109.583 111.16 109.418 111.093 109.253 111.027C109.176 110.996 109.099 110.964 109.032 110.928C109.007 111.012 108.967 111.105 108.927 111.197C108.841 111.395 108.755 111.594 108.818 111.715C109.894 113.782 110.999 115.835 112.154 117.859C112.297 118.109 112.815 118.339 113.1 118.282C114.617 117.983 116.123 117.618 117.618 117.221C118.196 117.068 118.767 116.889 119.339 116.71L119.339 116.71L119.339 116.71L119.339 116.71L119.339 116.71L119.339 116.71L119.339 116.71L119.339 116.71L119.34 116.71L119.34 116.71L119.34 116.71L119.34 116.71L119.34 116.71L119.34 116.71L119.34 116.71L119.341 116.71C120.164 116.452 120.988 116.194 121.828 116.014C124.714 115.396 127.476 114.503 129.953 112.853C130.842 112.261 131.087 111.354 130.654 110.415C130.503 110.088 130.35 109.761 130.196 109.435L130.196 109.435L130.196 109.435L130.196 109.434L130.196 109.434L130.195 109.434L130.195 109.434L130.195 109.434L130.195 109.434L130.195 109.434L130.195 109.434L130.195 109.433C129.664 108.306 129.133 107.177 128.717 106.008C127.443 102.424 126.008 98.9091 124.319 95.5045C123.25 93.3499 122.115 91.2235 120.909 89.1429C119.297 86.3632 117.609 83.5859 115.018 81.6079C113.218 80.2342 111.29 78.9405 109.241 78.0015C106.246 76.6292 102.956 76.3286 99.683 76.1004C99.0142 76.0538 98.3113 75.8029 97.7205 75.4733C96.536 74.8125 96.0547 73.6418 95.5702 72.463L95.4906 72.2698L95.4481 72.1674L95.41 72.0762C95.1709 71.5076 95.5557 71.4012 95.7979 71.3511C96.4215 71.222 97.0803 71.1198 97.7072 71.1831C98.684 71.2818 99.2214 70.827 99.5799 70.0171C100.459 68.0305 101.229 66.0102 101.811 63.9077C102.615 60.9969 103.303 58.0862 103.229 55.0357C103.198 53.7136 103.205 52.3905 103.212 51.0673C103.216 50.3774 103.22 49.6874 103.218 48.9976C103.218 48.8094 103.195 48.6126 103.172 48.4163L103.172 48.4162C103.126 48.0216 103.081 47.6294 103.218 47.315C103.556 46.5416 104.111 45.8476 104.649 45.1807C105.075 44.6532 105.52 44.1408 105.965 43.6286L105.965 43.6284C106.504 43.0076 107.043 42.3869 107.548 41.7393C107.954 41.2178 108.257 40.5536 107.848 39.861C107.448 39.1846 106.807 38.9101 106.062 39.0782C105.934 39.107 105.805 39.1342 105.676 39.1615C104.74 39.3596 103.793 39.56 103.132 40.3903C102.814 40.7892 102.63 40.7906 102.548 40.212C102.487 39.7822 102.4 39.3561 102.313 38.93L102.313 38.93L102.313 38.9299L102.313 38.9299L102.313 38.9298L102.313 38.9298L102.313 38.9297L102.313 38.9296L102.313 38.9296L102.313 38.9295L102.313 38.9295L102.313 38.9294L102.313 38.9294L102.313 38.9293L102.313 38.9292C102.223 38.4883 102.133 38.0473 102.071 37.6024C101.996 37.0538 101.945 36.5018 101.894 35.9498C101.845 35.4157 101.796 34.8816 101.724 34.3504C101.624 33.605 101.51 32.8612 101.397 32.1174L101.397 32.117L101.397 32.1168L101.397 32.1167L101.397 32.1165L101.397 32.1164L101.397 32.1162L101.397 32.116L101.397 32.1159L101.397 32.1157L101.397 32.1156L101.397 32.1154L101.397 32.1152L101.397 32.1151L101.397 32.1149L101.397 32.1148C101.225 30.9894 101.053 29.8642 100.927 28.7337C100.852 28.062 100.665 27.5241 100.214 27.0345C99.9806 26.7804 99.7431 26.5288 99.5055 26.2771C98.7773 25.5057 98.0483 24.7333 97.4202 23.8871C95.687 21.5518 93.2257 20.327 90.6715 19.2162C89.0256 18.5004 87.3238 17.9884 85.514 17.8851C84.7176 17.8397 83.9218 17.7829 83.126 17.7262C82.3134 17.6683 81.5008 17.6103 80.6874 17.5644C80.0184 17.5266 79.3381 17.4996 78.6773 17.5829C78.3488 17.6243 78.0202 17.8869 77.7491 18.1172C77.4815 18.3446 77.2269 18.5878 76.9723 18.8309L76.9723 18.8309C76.6444 19.1441 76.3166 19.4571 75.9616 19.7358C75.5873 20.0296 75.1909 20.2994 74.795 20.5688L74.795 20.5689C74.145 21.0112 73.4964 21.4526 72.9494 21.9981C72.3206 22.6251 71.8183 23.3806 71.317 24.1348L71.3169 24.1349L71.3169 24.1349C71.1323 24.4125 70.9479 24.69 70.7573 24.9607C69.3429 26.9703 68.2561 29.1422 67.6578 31.5331C67.2875 33.013 66.9739 34.5076 66.6626 36.0014L66.6133 36.2378L66.6133 36.2379C66.385 37.3314 66.1561 38.4276 66.0123 39.5334L66.006 39.5824C65.8923 40.4584 65.8837 40.5249 65.0433 40.2141C64.1755 39.8933 63.4275 40.11 62.8166 40.6987C62.2163 41.2772 62.1502 42.0575 62.3589 42.8441C62.9701 45.1479 64.7309 46.1125 66.8358 46.6871C67.0196 46.7373 67.2224 46.9165 67.31 47.0896C68.2175 48.8847 68.2568 50.7939 67.6824 52.6453C67.1534 54.3502 66.5269 56.0248 65.9003 57.6994C65.6239 58.4383 65.3474 59.1771 65.0794 59.9186C64.8033 60.6822 64.652 61.3823 65.2844 62.1219C66.6445 63.7126 67.9435 65.359 68.9246 67.225C69.3137 67.9648 69.9108 68.4975 70.7118 68.6583C71.4748 68.8114 71.5783 69.1887 71.6681 69.9046C71.7866 70.8481 72.1006 71.8396 72.6103 72.6301C72.7722 72.881 73.2086 72.9489 73.6553 73.0184L73.6553 73.0184L73.6554 73.0184L73.6554 73.0184L73.6555 73.0184L73.6555 73.0184L73.6556 73.0184H73.6556C73.8919 73.0552 74.1311 73.0924 74.3341 73.1574C74.4999 73.2106 74.7631 73.4316 74.7427 73.5215C74.7066 73.681 74.6714 73.8412 74.6362 74.0015L74.6361 74.0017L74.6361 74.0019L74.636 74.0021L74.636 74.0023L74.6359 74.0024L74.6359 74.0026L74.6359 74.0027C74.4666 74.7732 74.2965 75.5476 74.0105 76.275C73.3843 77.8675 72.0523 78.8638 70.7595 79.8308L70.7593 79.831L70.7582 79.8318L70.7572 79.8326L70.7569 79.8328C70.5811 79.9643 70.406 80.0952 70.2336 80.2271C67.9765 81.9527 65.2916 82.9002 62.5941 83.7179C61.3262 84.1023 60.0401 84.4257 58.7538 84.7492C57.9193 84.959 57.0848 85.1688 56.2552 85.3954C55.7382 85.5365 55.2273 85.7035 54.7167 85.8704C53.9595 86.1178 53.2028 86.3651 52.4278 86.5277C49.4503 87.1524 46.8239 88.4373 44.5171 90.405C42.9665 91.7277 42.1342 93.5062 41.2973 95.2947L41.1752 95.5555C40.044 97.9663 39.0522 100.537 38.9125 103.145C38.8733 103.877 38.9292 104.613 38.9851 105.35C39.0134 105.723 39.0417 106.095 39.0577 106.467C39.0936 107.304 39.1244 108.141 39.1552 108.978C39.2222 110.798 39.2892 112.618 39.4092 114.435C39.4761 115.448 39.6563 116.455 39.8362 117.46C39.8879 117.749 39.9395 118.037 39.9884 118.326C40.1216 119.111 40.2702 119.893 40.4189 120.676L40.4189 120.676C40.5181 121.198 40.6172 121.72 40.7118 122.243C40.7735 122.584 40.8397 122.925 40.9059 123.265L40.9059 123.265C41.084 124.182 41.2622 125.099 41.3527 126.024C41.4358 126.874 41.4116 127.736 41.3875 128.596C41.3803 128.85 41.3732 129.105 41.3688 129.359C41.3612 129.806 41.4394 130.169 41.9773 130.047C42.5088 129.927 43.0311 129.766 43.5531 129.604L43.5533 129.604L43.5536 129.604C43.7175 129.554 43.8814 129.503 44.0456 129.453C44.5997 129.287 44.9392 129.482 45.0106 130.052C45.0813 130.615 45.1436 131.18 45.2059 131.745L45.2059 131.745C45.3004 132.602 45.3949 133.459 45.5188 134.311C45.8199 136.384 46.1512 138.454 46.5084 140.518C47.1643 144.307 48.1097 148.029 49.3518 151.665C50.456 154.897 51.6504 158.1 52.8563 161.297C53.5509 163.138 54.2938 164.961 55.0366 166.783C55.2265 167.249 55.4163 167.715 55.6054 168.181C56.3712 170.07 57.1535 171.952 57.937 173.833C58.1183 174.268 58.2973 174.704 58.4764 175.14L58.4767 175.141L58.477 175.142L58.4772 175.142L58.4775 175.143L58.4778 175.144L58.4781 175.144L58.4782 175.145C59.005 176.428 59.5319 177.711 60.1136 178.969C60.6186 180.061 61.1924 181.121 61.7661 182.181L61.7665 182.182C61.9356 182.495 62.1046 182.807 62.2719 183.12C62.3239 183.218 62.4284 183.287 62.533 183.357C62.5815 183.389 62.63 183.421 62.6732 183.456C62.6941 183.399 62.7184 183.342 62.7426 183.285C62.7995 183.151 62.8563 183.017 62.8693 182.88C62.8795 182.772 62.8183 182.654 62.7599 182.542L62.7422 182.507C62.7329 182.489 62.7239 182.471 62.7155 182.454C62.5204 182.045 62.3186 181.639 62.1168 181.233C61.6936 180.381 61.2705 179.529 60.9093 178.652C59.6579 175.614 58.4574 172.554 57.2613 169.493C56.7239 168.118 56.1984 166.737 55.673 165.357C55.1558 163.999 54.6385 162.64 54.1098 161.286C53.7811 160.444 53.4336 159.608 53.0861 158.773L53.086 158.773C52.464 157.278 51.8421 155.783 51.3284 154.251C50.2378 151 49.2621 147.705 48.3786 144.391C47.8807 142.523 47.5385 140.612 47.197 138.705C47.1356 138.362 47.0742 138.019 47.0119 137.676C46.8397 136.729 46.73 135.77 46.6203 134.812C46.5829 134.485 46.5454 134.157 46.5055 133.831C46.3321 132.411 46.1687 130.991 46.0097 129.57C45.9568 129.096 46.1665 128.872 46.6499 128.719C48.5009 128.133 50.343 127.519 52.1852 126.905C52.8389 126.687 53.4927 126.469 54.1468 126.253C54.633 126.092 55.1507 125.937 55.6829 125.779L55.6834 125.779L55.6838 125.778C57.6555 125.191 59.8257 124.544 61.3263 123.281C61.4133 123.208 61.6407 123.166 61.6952 123.22C61.7932 123.316 61.8625 123.499 61.8522 123.639C61.8004 124.339 61.7375 125.04 61.6747 125.74L61.6747 125.74L61.6747 125.74L61.6747 125.74L61.6747 125.74L61.6747 125.74L61.6746 125.74L61.6746 125.74L61.6746 125.74L61.6746 125.74L61.6746 125.74L61.6746 125.74L61.6746 125.74L61.6746 125.741L61.6746 125.741C61.5506 127.122 61.4266 128.503 61.3877 129.886C61.3384 131.641 61.4227 133.402 61.5068 135.159L61.5068 135.161C61.5179 135.392 61.529 135.624 61.5398 135.855C61.5916 136.97 61.6748 138.094 61.8748 139.19C62.3838 141.979 63.4398 144.588 64.6797 147.123C64.86 147.492 65.0744 147.846 65.2885 148.2C65.6086 148.73 65.928 149.258 66.1312 149.83C66.4418 150.703 66.7702 151.571 67.0986 152.439C68.0003 154.822 68.9024 157.205 69.4378 159.713C69.6063 160.501 69.803 161.284 69.9997 162.067C70.2179 162.935 70.4361 163.803 70.6158 164.68C70.8928 166.031 71.1085 167.396 71.3242 168.76C71.3739 169.074 71.4236 169.389 71.474 169.703C71.5357 170.087 71.6044 170.47 71.6732 170.854C71.8599 171.896 72.0467 172.939 72.0917 173.988C72.1813 176.074 72.2097 178.162 72.2382 180.251C72.2534 181.366 72.2685 182.481 72.293 183.596C72.2967 183.762 72.3673 183.926 72.4379 184.091C72.4707 184.168 72.5036 184.244 72.5297 184.321C72.5734 184.243 72.6277 184.167 72.6821 184.09C72.7997 183.923 72.9173 183.757 72.9273 183.585C72.9819 182.644 73.0139 181.703 73.046 180.762L73.046 180.761C73.0667 180.154 73.0874 179.547 73.1141 178.939C73.1269 178.65 73.157 178.361 73.1871 178.072C73.2322 177.639 73.2772 177.206 73.2636 176.775C73.2495 176.327 73.2367 175.879 73.224 175.43L73.2239 175.429L73.2239 175.427L73.2238 175.426L73.2238 175.424L73.2237 175.423L73.2237 175.421L73.2236 175.42L73.2236 175.418C73.1647 173.349 73.1058 171.279 72.9115 169.222C72.7812 167.843 72.4545 166.478 72.1292 165.12L72.129 165.119C72.0666 164.858 72.0043 164.598 71.9434 164.338C71.7976 163.715 71.6552 163.09 71.5128 162.466L71.5125 162.464C71.0073 160.248 70.5018 158.03 69.8378 155.861C68.7475 152.3 67.2674 148.882 65.5671 145.555C64.7941 144.042 64.1463 142.428 63.7123 140.788C62.8601 137.568 62.7862 134.24 62.7128 130.931L62.7059 130.62C62.6717 129.097 62.7344 127.571 62.797 126.046L62.797 126.046L62.797 126.046L62.797 126.046L62.797 126.046L62.797 126.046L62.797 126.046L62.797 126.046L62.797 126.045L62.797 126.045L62.797 126.045L62.797 126.045L62.797 126.045L62.7971 126.045L62.7971 126.045L62.7971 126.045C62.8184 125.525 62.8398 125.005 62.8573 124.485C62.8803 123.802 62.9327 123.119 62.9852 122.437C62.9967 122.288 63.0082 122.139 63.0194 121.989C63.0702 121.309 63.1323 120.63 63.1944 119.95C63.3301 118.465 63.4657 116.981 63.4842 115.494C63.4991 114.299 63.4215 113.102 63.3439 111.906C63.2796 110.914 63.2153 109.923 63.2035 108.931C63.1869 107.532 62.783 106.238 62.3789 104.944C62.2507 104.534 62.1224 104.123 62.0066 103.709C61.962 103.55 61.7974 103.424 61.6328 103.299C61.5566 103.241 61.4804 103.183 61.4161 103.121C61.391 103.211 61.3548 103.303 61.3186 103.395C61.2396 103.596 61.1606 103.797 61.1967 103.974C61.269 104.33 61.3769 104.681 61.4845 105.031C61.6353 105.521 61.7856 106.01 61.8375 106.51C62.0701 108.751 62.2906 111.001 62.3267 113.251C62.3418 114.193 62.2682 115.136 62.1948 116.08C62.1128 117.132 62.0308 118.185 62.0721 119.233C62.1309 120.728 61.3682 121.522 60.3469 122.281C59.0034 123.279 57.0845 123.856 55.3618 124.373C54.9054 124.511 54.4628 124.644 54.0482 124.779C51.4735 125.622 48.914 126.511 46.3546 127.4L46.3545 127.4L46.3543 127.4L46.3542 127.4L46.354 127.4L46.3539 127.4L46.3537 127.4L46.3536 127.4L46.3534 127.401L46.3533 127.401L46.3532 127.401L46.353 127.401L46.3529 127.401L46.3527 127.401L46.3526 127.401C45.2963 127.768 44.24 128.135 43.1826 128.499L43.1648 128.505C42.8111 128.627 42.5194 128.727 42.5199 128.123C42.5205 127.388 42.4442 126.65 42.3682 125.916L42.3642 125.876C42.321 125.458 42.2786 125.04 42.2362 124.622C42.0725 123.007 41.9088 121.391 41.6958 119.782C41.5657 118.799 41.4077 117.82 41.2497 116.841C41.0608 115.671 40.872 114.5 40.7309 113.324C40.5324 111.671 40.4147 109.999 40.4012 108.335C40.3876 106.649 40.4395 104.962 40.4914 103.276C40.5118 102.614 40.5321 101.952 40.5486 101.29C40.5926 99.5139 41.4646 97.8845 42.3151 96.2955L42.3151 96.2954C42.6333 95.7009 42.9484 95.1121 43.216 94.5233C44.5734 91.5372 47.1294 89.8906 50.0065 88.7274C51.3892 88.1684 52.8317 87.7554 54.2733 87.3426L54.2734 87.3426C54.803 87.1909 55.3325 87.0393 55.8589 86.8805C57.0382 86.5247 58.2206 86.1782 59.4029 85.8316C61.7352 85.148 64.0674 84.4645 66.3765 83.7098C68.4361 83.0367 70.3973 82.0726 72.0193 80.5801C72.4636 80.1713 72.6823 80.2438 73.0742 80.6184C74.3537 81.8414 75.6637 83.0327 76.9734 84.2238L76.9737 84.224L77.1987 84.4287C79.4316 86.4597 81.917 88.1203 84.6803 89.3315C85.0897 89.5109 85.7603 89.4859 86.1408 89.2646C86.9988 88.7655 87.8013 88.1685 88.6021 87.5728C88.7671 87.4501 88.9321 87.3274 89.0974 87.2056C89.4297 86.9608 89.7627 86.7167 90.0956 86.4725L90.0959 86.4724L90.096 86.4723L90.0961 86.4722L90.0961 86.4721L90.0962 86.4721L90.0963 86.472L90.0964 86.4719L90.0965 86.4719L90.0966 86.4718L90.0967 86.4717L90.0968 86.4717L90.0969 86.4716L90.097 86.4715L90.0971 86.4715C91.4805 85.457 92.8643 84.4423 94.2097 83.3794C95.6395 82.25 96.6626 80.7619 97.6821 79.279L97.6832 79.2774L97.6846 79.2754L97.6848 79.275C97.847 79.0392 98.009 78.8035 98.1726 78.5694C98.2373 78.4769 98.0092 78.0004 97.8632 77.9708C97.2901 77.8548 97.0271 78.2281 96.7513 78.6196L96.7512 78.6196L96.7512 78.6197C96.6988 78.6941 96.6459 78.7692 96.5903 78.8417C96.3614 79.1402 96.1381 79.4468 95.9143 79.7538C95.2211 80.7053 94.5242 81.6619 93.6482 82.4004C92.2502 83.579 90.7819 84.6735 89.3131 85.7683L89.313 85.7684L89.313 85.7684L89.3129 85.7685L89.3129 85.7685L89.3128 85.7686L89.3128 85.7686L89.3127 85.7686L89.3126 85.7687L89.3126 85.7687L89.3125 85.7688L89.3125 85.7688L89.3124 85.7689L89.3124 85.7689L89.3123 85.769C88.2683 86.5472 87.224 87.3255 86.2047 88.1344C85.5702 88.6379 85.1032 88.6009 84.4899 88.2548C84.3555 88.179 84.221 88.1034 84.0867 88.028C82.6561 87.2245 81.2373 86.4276 79.9997 85.2902C78.4091 83.8285 76.7396 82.4521 75.0706 81.0761L75.0704 81.076C74.5932 80.6825 74.1161 80.2891 73.6408 79.8938C73.2 79.5271 73.2793 79.3005 73.6583 78.9538C74.9284 77.792 75.6098 76.3547 75.7945 74.6204C75.8058 74.5146 75.8096 74.3983 75.8135 74.2775V74.2773C75.8312 73.7306 75.8519 73.0917 76.5833 72.9211C77.2863 72.7572 77.8106 73.2166 78.2302 73.7259C78.4997 74.053 78.7569 74.3904 79.0141 74.7277L79.0142 74.7278L79.0142 74.7278L79.0143 74.7279L79.0143 74.728L79.0144 74.728L79.0144 74.7281L79.0144 74.7281L79.0145 74.7282L79.0145 74.7282L79.0146 74.7283L79.0146 74.7284L79.0147 74.7284L79.0147 74.7285L79.0148 74.7285C79.3345 75.1479 79.6541 75.5671 79.9972 75.9664L80.0617 76.0416C80.718 76.8072 81.4408 77.6504 82.5817 77.2559C84.1768 76.7044 85.7869 76.6017 87.4447 76.5821C87.9159 76.5766 88.5704 76.2242 88.812 75.8295C89.2114 75.177 89.5065 74.4606 89.8015 73.7443C89.9157 73.4673 90.0297 73.1903 90.1499 72.9171C90.573 71.9546 91.013 71.5949 92.0724 71.9807C92.5326 72.1483 93.142 72.2817 93.5585 72.1161C94.3833 71.7881 94.5393 72.1857 94.7707 72.7757L94.7993 72.8484C95.3395 74.2166 95.8891 75.5888 97.1927 76.4811C98.0521 77.0694 99.025 77.2322 99.9986 77.3951L99.9996 77.3953L100.001 77.3955C100.09 77.4105 100.18 77.4255 100.27 77.4409C101.117 77.586 101.967 77.7161 102.816 77.8462C104.038 78.0333 105.26 78.2203 106.473 78.4519C109.633 79.0551 112.342 80.6783 114.663 82.7788C116.284 84.2459 117.594 86.0934 118.871 87.8949L118.908 87.9469C119.835 89.2552 120.59 90.6927 121.339 92.1214C121.426 92.2862 121.512 92.4508 121.599 92.6152C121.832 93.0576 122.067 93.4995 122.302 93.9415C123.375 95.9603 124.45 97.9816 125.36 100.073C126.413 102.493 127.374 104.953 128.334 107.413L128.334 107.413L128.334 107.413L128.334 107.413L128.334 107.413L128.334 107.413L128.334 107.414L128.334 107.414L128.334 107.414L128.334 107.414L128.334 107.414L128.334 107.414L128.334 107.414L128.334 107.414L128.335 107.415L128.335 107.416L128.336 107.417L128.336 107.419L128.336 107.42L128.337 107.421L128.337 107.421C128.803 108.614 129.268 109.807 129.744 110.995C129.904 111.393 129.955 111.645 129.471 111.874C129.131 112.033 128.807 112.228 128.484 112.423ZM66.6327 58.4751L66.6328 58.475L66.6328 58.4749L66.6328 58.4748L66.6329 58.4748L66.6329 58.4747L66.633 58.4746L66.633 58.4745L66.633 58.4744L66.6331 58.4744L66.6331 58.4743L66.6331 58.4742L66.6332 58.4741C66.7511 58.2083 66.869 57.9424 66.9888 57.6775C67.9274 55.5161 68.7375 53.5212 68.854 51.2379C68.9624 49.1137 68.4176 47.1767 67.8625 45.2027L67.8625 45.2027L67.8625 45.2026L67.7662 44.8599C67.5922 44.2384 67.5046 43.5936 67.417 42.9481L67.417 42.9481C67.3422 42.3975 67.2674 41.8466 67.1389 41.3094C66.8405 40.0629 67.0823 38.8793 67.3237 37.697C67.4485 37.086 67.5733 36.4754 67.6233 35.8566C67.7784 33.9401 68.2279 32.1103 68.8777 30.3287C69.7201 28.0188 71.0091 25.9469 72.416 23.9331C73.487 22.4001 74.8815 21.3095 76.4662 20.381C77.1006 20.0092 77.7433 19.5441 78.1734 18.966C78.4975 18.5304 78.7679 18.3713 79.2673 18.3782C79.8144 18.3857 80.3623 18.3774 80.9101 18.3692C81.825 18.3554 82.7397 18.3416 83.6498 18.4014C86.9709 18.6197 90.1305 19.4471 92.9514 21.285L93.0856 21.3724C94.1179 22.0445 95.1691 22.7289 96.0413 23.5811C97.1531 24.6674 98.1525 25.8712 99.1492 27.0717C99.3049 27.2593 99.4606 27.4468 99.6166 27.6337C99.7913 27.843 99.8372 28.1746 99.8801 28.4841L99.8802 28.4847L99.8803 28.4852L99.8804 28.4859V28.4859V28.4859C99.8887 28.5463 99.897 28.6058 99.9061 28.6634C100.141 30.1507 100.363 31.6401 100.585 33.1294L100.685 33.8009C100.731 34.1106 100.778 34.4203 100.825 34.7299L100.825 34.7307C100.967 35.6674 101.109 36.6042 101.231 37.5436C101.273 37.8627 101.314 38.1818 101.356 38.5009L101.357 38.5053C101.606 40.4122 101.855 42.3195 102.048 44.2322C102.156 45.2921 102.181 46.3611 102.207 47.4289V47.429C102.212 47.6636 102.218 47.898 102.224 48.1323C102.238 48.6252 102.252 49.118 102.267 49.6108L102.267 49.6118L102.267 49.6126C102.324 51.5593 102.381 53.5063 102.382 55.4532C102.384 58.3594 101.743 61.1763 100.882 63.9276C100.354 65.6188 99.6925 67.2696 99.0324 68.9181L99.0324 68.9182L99.0323 68.9182L99.0323 68.9183L99.0323 68.9184L99.0322 68.9185L99.0322 68.9186L99.0322 68.9187L99.0322 68.9187L99.0322 68.9188L99.0321 68.9188L99.0321 68.9189L99.0321 68.9189L99.0321 68.919L99.0321 68.919L99.0321 68.9191C98.915 69.2115 98.7979 69.5038 98.6816 69.7963C98.5866 70.0354 98.2179 70.2555 97.9399 70.3149C97.1701 70.4794 96.3837 70.5893 95.5984 70.6474C95.281 70.6709 94.8888 70.5861 94.6398 70.4025C94.3321 70.1756 94.2765 70.171 94.1082 70.5256C93.7106 71.3634 93.2326 71.5639 92.3111 71.237C91.4923 70.9466 90.6934 70.8427 90.0772 71.5196C89.7361 71.8943 89.51 72.382 89.2889 72.8591C89.2485 72.9462 89.2083 73.033 89.1676 73.1187C89.0602 73.3446 88.9961 73.5907 88.9319 73.8372L88.9319 73.8372L88.9319 73.8372L88.9319 73.8373L88.9319 73.8373L88.9319 73.8374L88.9319 73.8374L88.9318 73.8375L88.9318 73.8375L88.9318 73.8376C88.8986 73.965 88.8654 74.0926 88.8262 74.2174C88.4434 75.4355 87.9575 75.857 86.7134 75.776C85.357 75.6877 84.042 75.882 82.7916 76.3158C81.7386 76.6811 81.2461 76.1122 80.7161 75.4999C80.6619 75.4374 80.6074 75.3743 80.5518 75.3118C80.4013 75.1426 80.2514 74.9727 80.1014 74.8028L80.1014 74.8027L80.1013 74.8027L80.1013 74.8027L80.1013 74.8027L80.1013 74.8026L80.1012 74.8026L80.1012 74.8026L80.1012 74.8026L80.1012 74.8026L80.1012 74.8025L80.1011 74.8025L80.1011 74.8025L80.1011 74.8025L80.1011 74.8024C79.3755 73.9805 78.6492 73.1577 77.8604 72.401C77.5651 72.1178 76.9955 72.003 76.5563 72.0136C76.098 72.0246 75.642 72.1019 75.1853 72.1793L75.1852 72.1793C74.8885 72.2297 74.5915 72.28 74.2935 72.3123C73.6575 72.3811 73.1583 72.0247 72.9694 71.4868C72.7056 70.7353 72.5576 69.9297 72.4672 69.135C72.4022 68.5639 72.1973 68.1302 71.6546 68.0323C70.3175 67.7911 69.5808 66.9512 68.9446 65.8123C68.4943 65.0063 67.9202 64.2689 67.3467 63.5321C67.1282 63.2515 66.9098 62.971 66.6984 62.6868C66.5584 62.4986 66.4051 62.3205 66.2518 62.1423L66.2517 62.1422L66.2517 62.1421C66.1089 61.9763 65.9662 61.8104 65.8342 61.6364C65.5395 61.2481 65.5248 60.8479 65.751 60.3907C66.0625 59.7608 66.3476 59.118 66.6327 58.4751ZM102.749 42.895L102.724 42.4569C102.555 41.4776 103.031 41.1668 103.676 40.7958C104.579 40.2766 105.47 39.8322 106.521 39.9068C107.026 39.9426 107.449 40.1929 107.024 40.797C106.302 41.8215 105.564 42.8359 104.81 43.8372C104.468 44.2912 104.104 44.7282 103.74 45.1651L103.738 45.1665C103.611 45.3196 103.483 45.4727 103.356 45.6265C103.312 45.6808 103.256 45.7263 103.201 45.7718C103.175 45.7928 103.149 45.8139 103.125 45.8358L103.11 45.8156L103.095 45.7963L103.057 45.7475L103.057 45.7475C102.999 45.6732 102.941 45.5989 102.893 45.5188C102.878 45.4929 102.882 45.4559 102.886 45.4182C102.888 45.3971 102.89 45.3759 102.889 45.3563C102.843 44.5369 102.796 43.7176 102.749 42.8982L102.749 42.8977L102.749 42.8971L102.749 42.8966L102.749 42.8961L102.749 42.8955L102.749 42.895ZM66.8854 45.821L66.8854 45.8211C66.8626 45.8582 66.8399 45.8953 66.8233 45.9312C66.3738 45.7168 65.9569 45.4609 65.5441 45.2074L65.544 45.2074L65.544 45.2073L65.5439 45.2073C65.1826 44.9854 64.8245 44.7655 64.4505 44.5773C63.605 44.1517 63.3075 43.3788 63.0368 42.6106C62.7253 41.7266 63.4186 40.8821 64.3588 40.8885L64.4847 40.8891C64.8198 40.8903 65.16 40.8915 65.4823 40.9621C66.1153 41.1009 66.1781 41.5915 66.2386 42.0642C66.2574 42.2109 66.276 42.3559 66.3113 42.4881C66.5373 43.3342 66.7025 44.1968 66.8674 45.0586C66.9016 45.2369 66.9357 45.4152 66.9704 45.5933C66.9836 45.6611 66.9345 45.7411 66.8854 45.821ZM117.009 123.699L117.011 123.703L117.017 123.713C118.322 125.802 119.631 127.898 120.964 130.016C121.305 130.357 121.64 130.695 121.974 131.03L121.975 131.031L121.978 131.035C122.709 131.77 123.427 132.492 124.155 133.203C125.906 134.916 127.99 135.334 130.337 134.796C132.376 134.329 134.238 133.501 135.879 132.204C136.139 131.998 136.407 131.798 136.675 131.598C137.464 131.008 138.257 130.416 138.861 129.674C140.238 127.98 141.505 126.171 142.612 124.289C144.088 121.778 145.556 119.23 146.684 116.552C147.735 114.056 148.61 111.486 149.484 108.916C149.81 107.958 150.136 107 150.471 106.046L150.615 105.637L150.839 105C151.531 103.038 152.224 101.075 152.837 99.0881C153.134 98.1238 153.385 97.1444 153.636 96.1653L153.636 96.1652L153.636 96.1651L153.636 96.165L153.636 96.1649L153.636 96.1648L153.636 96.1647L153.636 96.1645L153.636 96.1644L153.636 96.1643L153.636 96.1642L153.636 96.1641L153.636 96.164L153.636 96.1639L153.636 96.1637L153.636 96.1635L153.636 96.1633L153.636 96.1631L153.636 96.1628L153.636 96.1626L153.636 96.1624L153.636 96.1621L153.637 96.1619L153.637 96.1617L153.637 96.1615L153.637 96.1612L153.637 96.161L153.637 96.1608L153.637 96.1605C153.96 94.9003 154.282 93.6405 154.704 92.4142C155.189 91.0051 155.791 89.6368 156.393 88.2682L156.393 88.2679C156.705 87.5594 157.017 86.8507 157.313 86.1362C157.624 85.3846 157.936 84.6333 158.248 83.8821C159.441 81.0109 160.634 78.1396 161.766 75.2446C162.214 74.0969 162.528 72.8954 162.842 71.6964L162.842 71.6961L162.842 71.6957L162.842 71.6954L162.842 71.6951L162.842 71.6948L162.842 71.6945L162.842 71.6941L162.842 71.6938L162.843 71.6935L162.843 71.6932L162.843 71.6929L162.843 71.6925C162.925 71.3781 163.007 71.0639 163.092 70.7509C163.13 70.6084 163.053 70.4348 162.977 70.2612C162.941 70.1808 162.906 70.1004 162.882 70.0231C162.799 70.0496 162.711 70.0693 162.622 70.089C162.43 70.1318 162.238 70.1746 162.103 70.2866C161.257 70.9891 160.673 71.8789 160.286 72.9177C160.088 73.4499 159.823 73.9579 159.559 74.4642L159.559 74.4644L159.463 74.6469L159.394 74.78C159.361 74.844 159.272 74.8792 159.183 74.9144C159.142 74.9306 159.101 74.9469 159.065 74.966C159.065 74.9306 159.061 74.8943 159.058 74.8581C159.051 74.7802 159.044 74.7023 159.065 74.6324C159.224 74.0834 159.39 73.536 159.556 72.9886L159.556 72.9881L159.556 72.9876L159.556 72.9872L159.557 72.9867L159.557 72.9863L159.557 72.9858L159.557 72.9854L159.557 72.9849L159.557 72.9844L159.557 72.984L159.557 72.9835L159.558 72.9831L159.558 72.9826L159.558 72.9822C159.912 71.8151 160.265 70.648 160.56 69.4663C160.801 68.4997 160.879 67.4838 160.944 66.4844C160.99 65.7611 160.328 65.3425 159.747 65.7191C159.446 65.9144 159.197 66.1914 158.948 66.468C158.848 66.5796 158.748 66.6911 158.644 66.7971C158.562 66.881 158.489 66.973 158.415 67.065C158.395 67.0906 158.374 67.1162 158.353 67.1417C158.34 67.158 158.327 67.1742 158.313 67.1903C158.296 67.1423 158.276 67.0948 158.257 67.0472C158.214 66.9425 158.172 66.8377 158.151 66.7288C158.082 66.3682 158.031 66.0041 157.982 65.6401C157.891 64.9536 157.496 64.2988 156.889 64.285C156.477 64.2756 155.891 64.874 155.658 65.3387C154.953 66.7486 154.332 68.2068 153.771 69.6816C153.335 70.8278 152.947 71.9922 152.559 73.1566L152.559 73.1568L152.559 73.1574L152.559 73.1578L152.559 73.1582L152.559 73.1586L152.559 73.159L152.558 73.1594C152.382 73.6895 152.205 74.2196 152.024 74.748C151.985 74.8631 151.938 74.9759 151.892 75.0887C151.871 75.1409 151.849 75.1932 151.828 75.2457C151.785 75.2133 151.739 75.1834 151.692 75.1536C151.591 75.0891 151.491 75.0246 151.424 74.9348C150.733 73.9996 149.746 73.5072 148.743 73.0069L148.621 72.9462C147.706 72.4891 146.801 72.6146 145.999 73.0108C144.913 73.5475 144.951 75.4952 145.905 76.368C147.376 77.7135 148.395 79.3155 148.829 81.2793C149.419 83.9461 148.861 86.3563 147.284 88.564L147.05 88.8915L147.049 88.8921L147.049 88.8922C146.264 89.9912 145.477 91.0914 144.754 92.2313C142.902 95.1526 141.069 98.0862 139.277 101.045L139.171 101.22L139.17 101.22L139.17 101.221L139.17 101.221L139.17 101.221L139.17 101.222L139.17 101.222L139.169 101.222L139.169 101.222L139.169 101.223L139.169 101.223L139.169 101.223L139.168 101.224L139.168 101.224L139.168 101.224C137.512 103.958 135.855 106.694 134.324 109.499C133.632 110.767 133.07 112.108 132.509 113.448C132.311 113.921 132.113 114.394 131.909 114.863C131.727 115.283 131.599 115.43 131.252 115.004C130.992 114.684 130.695 114.385 130.371 114.134C130.271 114.057 130.12 114.047 129.969 114.036C129.9 114.031 129.832 114.027 129.768 114.016C129.764 114.063 129.753 114.116 129.742 114.17C129.719 114.285 129.695 114.401 129.742 114.453L129.781 114.496L129.824 114.545L129.927 114.662C130.247 115.026 130.57 115.395 130.958 115.669C132.168 116.523 132.311 116.424 132.845 115.015C132.912 114.838 132.979 114.661 133.045 114.483C133.508 113.251 133.974 112.011 134.606 110.868C136.322 107.764 138.133 104.712 139.956 101.669C141.758 98.6598 143.592 95.6686 145.471 92.7069C145.895 92.0388 146.366 91.3984 146.837 90.7586L146.837 90.7585L146.837 90.7583L146.838 90.7581L146.838 90.758L146.838 90.7578L146.838 90.7577L146.838 90.7575L146.838 90.7573L146.838 90.7572L146.838 90.757L146.838 90.7569L146.839 90.7567L146.839 90.7565L146.839 90.7564L146.839 90.7563C147.499 89.8594 148.158 88.9635 148.685 87.994C150.644 84.391 150.358 80.8057 148.077 77.4125C147.85 77.0759 147.557 76.7831 147.264 76.4909C146.94 76.1687 146.618 75.8472 146.387 75.4682C146.138 75.0599 146.111 74.3201 146.321 73.8974C146.463 73.6123 147.259 73.4106 147.65 73.5324C149.529 74.1181 151.316 74.8794 151.71 77.1682C151.729 77.2754 151.854 77.3643 151.979 77.4532L151.979 77.4532C152.037 77.4945 152.095 77.5358 152.142 77.579C152.165 77.5447 152.19 77.5113 152.216 77.478C152.271 77.406 152.327 77.334 152.351 77.2527C152.584 76.4904 152.807 75.7254 153.031 74.9603L153.031 74.9601L153.031 74.9598L153.031 74.9595L153.031 74.9593L153.031 74.959L153.031 74.9588L153.031 74.9585L153.031 74.9582L153.031 74.958L153.031 74.9577L153.031 74.9574L153.031 74.9572L153.031 74.9569L153.032 74.9567L153.136 74.5997C153.305 74.0195 153.47 73.4374 153.634 72.8553C154.019 71.4883 154.404 70.1214 154.861 68.7789C155.148 67.9374 155.564 67.139 155.98 66.3426L155.98 66.3424C156.109 66.0949 156.238 65.8477 156.363 65.5994C156.449 65.429 156.674 65.3105 156.86 65.2214C156.909 65.1983 157.13 65.3672 157.142 65.464C157.162 65.6318 157.192 65.8024 157.221 65.9737L157.221 65.9737C157.304 66.4511 157.387 66.9331 157.288 67.3717C157.086 68.2612 156.811 69.1335 156.536 70.0063L156.536 70.0064L156.536 70.0064L156.536 70.0065L156.536 70.0066L156.536 70.0066L156.536 70.0067L156.536 70.0068L156.536 70.0068L156.536 70.0069L156.536 70.007L156.536 70.007L156.536 70.0071L156.535 70.0072L156.535 70.0072C156.379 70.5024 156.223 70.9978 156.08 71.4964C155.755 72.6327 155.455 73.7772 155.189 74.9286C155.166 75.0276 155.275 75.1567 155.383 75.2859C155.433 75.3457 155.483 75.4055 155.52 75.4623C155.57 75.4188 155.629 75.3781 155.687 75.3375C155.814 75.2495 155.941 75.1615 155.982 75.0437C156.249 74.2716 156.492 73.4914 156.736 72.7111C156.82 72.4418 156.904 72.1724 156.989 71.9034C157.557 70.1025 158.162 68.3182 159.509 66.9122C159.593 66.8244 159.705 66.7641 159.818 66.7038L159.819 66.7034L159.852 66.6857L159.868 66.6768L159.894 66.6625C159.921 66.6478 159.947 66.6328 159.972 66.617C159.989 66.68 160.014 66.7449 160.039 66.8098C160.093 66.9495 160.148 67.0892 160.119 67.2095C159.647 69.2157 159.154 71.2172 158.651 73.2162C158.577 73.5115 158.49 73.8041 158.403 74.0966L158.403 74.0968L158.403 74.0969C158.262 74.5678 158.122 75.0383 158.037 75.519C157.999 75.7323 158.092 75.9691 158.186 76.2059L158.186 76.2061C158.229 76.3139 158.271 76.4216 158.301 76.5271C158.385 76.4976 158.479 76.476 158.573 76.4544C158.778 76.4073 158.983 76.3602 159.081 76.2316C159.584 75.5746 160.049 74.8803 160.452 74.1577C160.689 73.7333 160.895 73.2918 161.101 72.8502L161.101 72.8501L161.101 72.8501L161.101 72.85L161.101 72.8499L161.101 72.8498L161.101 72.8497L161.101 72.8497L161.101 72.8496L161.101 72.8495L161.101 72.8494L161.101 72.8493L161.101 72.8493L161.101 72.8492L161.101 72.8491L161.101 72.849L161.102 72.8488L161.102 72.8487L161.102 72.8485L161.102 72.8484L161.102 72.8483L161.102 72.8481L161.102 72.848L161.102 72.8479L161.102 72.8477L161.102 72.8476L161.102 72.8475L161.102 72.8473L161.102 72.8472C161.274 72.4802 161.445 72.1132 161.634 71.7558C161.702 71.6272 161.847 71.5393 161.992 71.4515C162.059 71.4111 162.126 71.3707 162.185 71.3263C162.178 71.3925 162.175 71.4602 162.172 71.528C162.166 71.6742 162.16 71.8205 162.11 71.9505L161.892 72.5286L161.892 72.5291L161.892 72.5294L161.892 72.5297L161.891 72.5301L161.891 72.5304L161.891 72.5307L161.891 72.5311L161.891 72.5314L161.891 72.5317L161.891 72.5321L161.89 72.5324L161.89 72.5327L161.89 72.5331L161.89 72.5334C161.37 73.9122 160.849 75.2914 160.289 76.6544C160.059 77.2157 159.801 77.7657 159.542 78.3157L159.542 78.3159C159.291 78.8507 159.04 79.3855 158.815 79.9308C158.395 80.9461 157.989 81.9679 157.584 82.9898C156.862 84.8102 156.14 86.6305 155.335 88.413C154.193 90.9372 153.281 93.5266 152.519 96.1801C152.215 97.2375 151.903 98.2939 151.555 99.337C151.182 100.451 150.796 101.562 150.411 102.672C149.657 104.842 148.904 107.012 148.247 109.211C147.279 112.448 146.202 115.632 144.773 118.693C143.251 121.955 141.372 125.019 139.184 127.86C138.155 129.195 136.857 130.432 135.436 131.325C133.815 132.343 132.078 133.283 130.134 133.673C128.842 133.933 127.54 134.085 126.355 133.402C124.174 132.144 122.545 130.269 121.106 128.262C120.022 126.748 118.997 125.193 117.972 123.637C117.382 122.743 116.792 121.848 116.191 120.961C116.093 120.816 115.922 120.721 115.751 120.625C115.672 120.581 115.592 120.537 115.52 120.488C115.517 120.57 115.512 120.653 115.508 120.735C115.496 120.955 115.483 121.174 115.495 121.393C115.498 121.439 115.549 121.479 115.604 121.522C115.646 121.555 115.691 121.589 115.715 121.629C116.137 122.303 116.558 122.977 116.979 123.652L117.009 123.699ZM110.003 168.771C109.906 169.282 109.826 169.793 109.746 170.299C109.556 171.512 109.37 172.697 108.96 173.799C108.207 175.826 106.463 177.051 104.45 177.674C102.47 178.287 100.438 178.736 98.4103 179.184L98.406 179.185L98.4018 179.186L98.3975 179.186L98.3874 179.189L98.3793 179.191L98.3732 179.192L98.0202 179.27L97.6971 179.341C97.1588 179.461 96.5973 179.478 96.0365 179.496H96.0361C95.8138 179.503 95.5916 179.51 95.3709 179.523C94.2673 179.59 93.1635 179.654 92.0597 179.719L92.0331 179.721H92.0329H92.0328H92.0326H92.0324H92.0322H92.0321H92.0319H92.0317H92.0315H92.0314H92.0312H92.031H92.0309C90.3455 179.819 88.6602 179.918 86.9753 180.023C86.2888 180.066 85.6028 180.119 84.9168 180.171H84.9166H84.9164H84.9163H84.9161H84.9159H84.9158H84.9156H84.9154H84.9152H84.9151H84.9149H84.9147H84.9146C84.0759 180.235 83.2372 180.299 82.3976 180.346L81.9886 180.369L81.9879 180.369C80.6595 180.444 79.3287 180.519 78.0006 180.498C77.0748 180.484 76.1498 180.372 75.2263 180.26H75.2262H75.2261H75.226H75.2258H75.2257H75.2256H75.2255H75.2253H75.2252H75.2251C74.9832 180.23 74.7414 180.201 74.4998 180.174C74.4024 180.162 74.3143 180.07 74.2262 179.978C74.1854 179.935 74.1445 179.892 74.1028 179.857C74.1351 179.823 74.1661 179.78 74.197 179.738L74.1972 179.738C74.2646 179.645 74.3321 179.553 74.414 179.538C74.4534 179.53 74.493 179.523 74.5327 179.515C74.579 179.505 74.6255 179.496 74.6721 179.487L74.6723 179.486C75.0593 179.408 75.4548 179.327 75.8295 179.375C78.421 179.71 80.9913 179.491 83.5667 179.201C84.8256 179.059 86.0912 178.972 87.3557 178.886L87.3564 178.886L87.3581 178.885L87.647 178.866C88.5255 178.805 89.4049 178.755 90.2844 178.706L90.2848 178.706L90.2852 178.706L90.2856 178.706L90.2861 178.706L90.2865 178.706L90.2869 178.706L90.2873 178.705L90.2877 178.705L90.2882 178.705L90.2887 178.705L90.2891 178.705L90.2896 178.705L90.2901 178.705L90.2917 178.705L90.2922 178.705L90.2928 178.705L90.2933 178.705L90.2938 178.705L90.2944 178.705L90.2949 178.705L90.2954 178.705L90.296 178.705L90.2965 178.705L90.2971 178.705L90.2976 178.705L90.2981 178.705C91.9668 178.61 93.6353 178.516 95.2965 178.348C98.5252 178.022 101.719 177.443 104.74 176.203C106.487 175.486 107.689 174.122 108.145 172.323L108.191 172.14L108.191 172.14C108.694 170.159 109.205 168.145 109.003 166.06C108.955 165.574 108.875 165.089 108.794 164.605C108.671 163.862 108.548 163.121 108.545 162.378C108.541 161.401 108.613 160.425 108.685 159.448V159.448V159.448V159.448V159.447V159.447V159.447V159.447V159.447V159.447V159.447V159.447V159.446V159.446C108.747 158.595 108.81 157.743 108.822 156.891C108.834 156.131 108.734 155.369 108.635 154.608L108.635 154.607C108.592 154.283 108.55 153.959 108.516 153.636C108.487 153.355 108.46 153.073 108.432 152.792L108.432 152.792C108.36 152.042 108.287 151.293 108.177 150.55C107.783 147.874 107.63 145.188 107.675 142.483C107.686 141.775 107.642 141.066 107.598 140.356L107.598 140.355C107.568 139.875 107.538 139.394 107.526 138.913C107.498 137.832 107.478 136.75 107.458 135.669V135.669V135.669V135.669V135.668V135.668V135.668V135.668V135.668V135.668V135.668V135.668V135.668V135.667L107.458 135.666C107.429 134.124 107.4 132.583 107.348 131.042C107.306 129.776 107.233 128.511 107.16 127.246C107.114 126.434 107.067 125.622 107.028 124.81C106.997 124.145 106.974 123.479 106.952 122.813C106.925 122.013 106.898 121.212 106.855 120.413C106.824 119.845 106.772 119.276 106.719 118.708V118.708V118.708V118.708V118.708V118.708V118.708V118.708V118.707V118.707V118.707V118.707V118.707V118.707C106.621 117.638 106.522 116.569 106.569 115.506C106.619 114.353 106.823 113.207 107.026 112.06C107.117 111.549 107.207 111.037 107.284 110.524C107.336 110.182 107.389 109.84 107.442 109.498C107.585 108.569 107.729 107.639 107.846 106.706C107.912 106.18 107.961 105.651 108.009 105.122C108.066 104.51 108.122 103.899 108.205 103.291C108.224 103.156 108.376 103.04 108.528 102.923C108.598 102.869 108.668 102.816 108.725 102.76C108.755 102.824 108.796 102.889 108.836 102.954C108.923 103.094 109.009 103.234 108.995 103.362C108.801 105.121 108.58 106.877 108.348 108.632C108.261 109.285 108.154 109.938 108.047 110.591L108.047 110.591C107.825 111.946 107.603 113.299 107.566 114.658C107.513 116.597 107.629 118.541 107.745 120.483C107.785 121.152 107.825 121.82 107.857 122.488C107.906 123.469 107.972 124.448 108.039 125.428C108.089 126.167 108.139 126.905 108.181 127.645C108.21 128.146 108.239 128.647 108.268 129.148L108.268 129.151L108.268 129.153L108.269 129.155L108.269 129.158L108.269 129.16L108.269 129.163L108.269 129.165C108.414 131.677 108.56 134.189 108.672 136.702C108.713 137.622 108.729 138.544 108.745 139.466V139.466V139.466V139.466V139.466V139.467V139.467V139.467V139.467V139.467V139.468V139.468V139.468V139.468V139.468C108.765 140.675 108.786 141.881 108.863 143.083C108.955 144.508 109.111 145.928 109.267 147.349L109.267 147.349L109.267 147.349L109.267 147.349L109.267 147.35L109.267 147.35L109.267 147.35L109.267 147.35L109.268 147.351L109.268 147.351L109.268 147.351L109.268 147.352L109.268 147.352L109.268 147.352L109.268 147.353C109.35 148.099 109.432 148.846 109.505 149.593C109.629 150.869 109.742 152.147 109.833 153.425C109.842 153.546 109.851 153.667 109.86 153.789L109.878 154.019C109.945 154.901 110.013 155.784 109.988 156.664C109.963 157.565 109.908 158.466 109.853 159.366L109.852 159.367L109.852 159.367L109.852 159.368L109.852 159.368L109.852 159.369L109.852 159.369L109.852 159.37L109.852 159.371L109.852 159.371L109.852 159.372L109.852 159.372L109.852 159.373L109.852 159.373C109.78 160.557 109.707 161.741 109.702 162.925C109.699 163.535 109.812 164.144 109.926 164.754C110.015 165.234 110.104 165.715 110.138 166.198C110.176 166.753 110.125 167.314 110.072 167.9L110.072 167.9L110.072 167.9L110.072 167.901L110.072 167.901L110.072 167.901L110.072 167.901C110.046 168.184 110.02 168.474 110.003 168.771ZM49.1693 171.795C49.864 174.741 51.7675 176.926 54.2085 178.739L54.4111 178.82L54.4118 178.82L54.4132 178.821C55.4769 179.246 56.5001 179.656 57.5441 180.003C57.7442 180.069 57.9784 180.033 58.2127 179.997C58.3202 179.981 58.4278 179.964 58.532 179.957C58.4717 179.894 58.4117 179.83 58.3518 179.766L58.3516 179.766C58.176 179.578 58.0004 179.391 57.8157 179.213C57.792 179.19 57.7462 179.194 57.6978 179.197C57.6563 179.2 57.6129 179.204 57.58 179.19C57.3071 179.081 57.0208 178.987 56.7343 178.894C56.0789 178.68 55.4227 178.465 54.9244 178.058C53.7089 177.065 52.6003 175.897 51.6308 174.659C50.6727 173.435 50.1841 171.965 50.2744 170.352C50.307 169.768 50.3245 169.184 50.342 168.599C50.3667 167.773 50.3915 166.947 50.4589 166.124C50.5102 165.499 50.6076 164.877 50.705 164.256C50.7909 163.708 50.8768 163.159 50.9311 162.608C51.05 161.402 51.1242 160.191 51.1983 158.98C51.216 158.691 51.2338 158.401 51.2521 158.112C51.2591 158.002 51.187 157.849 51.1004 157.783C51.0291 157.729 50.8278 157.728 50.778 157.785C50.7434 157.824 50.7062 157.865 50.6685 157.906L50.6683 157.906L50.6682 157.906L50.6681 157.906L50.6679 157.906L50.6678 157.907C50.5015 158.087 50.3235 158.28 50.2984 158.485C50.1938 159.34 50.121 160.199 50.0482 161.058C50.0151 161.449 49.9819 161.84 49.9458 162.23C49.935 162.348 49.9106 162.464 49.8863 162.58C49.8678 162.668 49.8493 162.756 49.8367 162.845C49.7665 163.34 49.6906 163.835 49.6148 164.329C49.4315 165.525 49.2481 166.721 49.1434 167.924L49.1322 168.051L49.119 168.2C49.0121 169.402 48.9006 170.656 49.1693 171.795ZM92.1771 89.5661C92.6252 89.254 93.0766 88.9493 93.5266 88.6455C95.3195 87.4351 97.0898 86.2399 98.5407 84.6564C99.3056 83.8216 99.9838 82.9073 100.662 81.993L100.662 81.9928C100.961 81.5903 101.259 81.1878 101.565 80.7921C101.599 80.7482 101.628 80.6961 101.657 80.6445L101.657 80.6444C101.708 80.5509 101.759 80.4588 101.838 80.4191C101.998 80.3388 102.175 80.2942 102.352 80.2496C102.426 80.231 102.5 80.2124 102.572 80.1912C102.549 80.2642 102.531 80.341 102.512 80.4177C102.473 80.5836 102.434 80.7494 102.341 80.8766C102.151 81.1381 101.961 81.4005 101.772 81.663C101.008 82.7221 100.243 83.7818 99.4105 84.7845C98.6596 85.6885 97.832 86.563 96.9067 87.2805C95.3006 88.5259 93.6501 89.7355 91.9116 90.7829C90.01 91.9287 88.014 92.9298 86.0061 93.8822C85.011 94.3542 83.9262 94.2928 82.9409 93.651C79.9621 91.7106 77.0578 89.6732 74.5819 87.0962C73.8969 86.3832 73.264 85.6151 72.6651 84.8282C72.5681 84.7007 72.581 84.4897 72.5938 84.2786C72.5997 84.1816 72.6056 84.0845 72.6008 83.9955C72.6897 84.0122 72.7887 84.0192 72.8877 84.0261C73.1031 84.0413 73.3185 84.0564 73.4297 84.1719C73.7296 84.4833 74.0041 84.8197 74.2785 85.156C74.5967 85.5458 74.9146 85.9354 75.2716 86.2855C76.1929 87.1889 77.162 88.0522 78.1739 88.8525C79.3875 89.8125 80.6357 90.7289 81.8837 91.6452C82.1607 91.8486 82.4376 92.0519 82.7142 92.2557C82.897 92.3904 83.0939 92.5061 83.2907 92.6217C83.4956 92.7421 83.7004 92.8624 83.8893 93.0042C84.6771 93.5954 85.3558 93.2079 85.9782 92.8527C86.1327 92.7645 86.2837 92.6783 86.4321 92.6095C87.9076 91.9257 89.3339 91.136 90.7812 90.3346L90.7821 90.3342L90.7822 90.3341L90.7823 90.3341L90.7824 90.334C91.2444 90.0782 91.7085 89.8212 92.1771 89.5661ZM155.782 81.2208C156.026 80.9209 156.275 80.6157 156.534 80.3015C156.709 80.2818 156.877 80.2796 157.04 80.2774C157.219 80.275 157.391 80.2728 157.559 80.2472C157.701 80.2258 157.834 80.1448 157.967 80.0639C158.027 80.0276 158.086 79.9913 158.147 79.9604C158.099 79.9048 158.054 79.8402 158.01 79.7756C157.913 79.6358 157.817 79.4961 157.687 79.4476C156.457 78.9891 154.287 80.6754 154.352 82.0309C154.358 82.1576 154.431 82.281 154.505 82.4045C154.538 82.4617 154.572 82.5188 154.599 82.5763C154.642 82.5345 154.685 82.4938 154.729 82.4531L154.729 82.4527C154.824 82.3637 154.919 82.2748 155.001 82.1753C155.261 81.8604 155.519 81.5437 155.782 81.2208ZM95.2719 58.8285L95.272 58.8285L95.2721 58.8286C95.2183 58.9189 95.1695 59.0144 95.1208 59.1099C95.0157 59.3159 94.9106 59.5219 94.754 59.6752C92.8342 61.5551 90.4959 62.6534 87.8943 63.199C87.5791 63.2651 87.2278 63.1785 86.8845 63.0939C86.7806 63.0682 86.6775 63.0428 86.5762 63.0218C86.4822 63.0023 86.3407 62.7466 86.3578 62.7285C86.3947 62.6893 86.4321 62.6462 86.4702 62.6022C86.6097 62.4412 86.7585 62.2694 86.9251 62.2444C89.5328 61.854 91.7196 60.6563 93.6092 58.8573C93.6985 58.7723 93.8037 58.704 93.9198 58.6286C93.9964 58.5789 94.0777 58.526 94.1624 58.4633C94.5598 58.5575 94.9159 58.693 95.2719 58.8285ZM152.349 82.5661C152.738 81.5971 152.424 80.6783 152.067 79.7224L151.992 79.6359C151.923 79.5567 151.856 79.4788 151.79 79.4021C151.531 79.1021 151.289 78.8202 151.034 78.5491C151.018 78.5315 150.709 78.7326 150.718 78.755C150.846 79.0587 150.998 79.3539 151.161 79.6413C151.662 80.5231 151.727 81.4811 151.708 82.466C151.706 82.6032 151.787 82.742 151.869 82.8808C151.907 82.9448 151.944 83.0088 151.974 83.0726C152.014 83.0196 152.059 82.9684 152.103 82.9172L152.103 82.9171C152.2 82.8061 152.297 82.6951 152.349 82.5661ZM81.0927 25.6233C81.4162 25.774 81.7331 25.9367 82.0474 26.098C82.8354 26.5026 83.6069 26.8987 84.4256 27.0745L84.5534 27.1021C85.7784 27.3663 87.0967 27.6507 88.3279 26.9821C88.7594 26.7478 89.1651 26.4593 89.5583 26.1633C89.7981 25.9828 90.014 25.7587 90.2025 25.5237C91.6991 23.658 92.8035 23.9366 94.8644 25.1547C97.5009 26.7132 98.4612 29.3733 99.3895 32.0197C99.8533 33.3418 100.145 34.7284 100.435 36.1075L100.435 36.1076L100.436 36.1106C100.474 36.2948 100.513 36.479 100.552 36.6628C100.744 37.5639 100.825 38.493 100.896 39.4141C100.98 40.5066 101.02 41.6029 101.06 42.6984L101.06 42.6988L101.067 42.9001C101.089 43.4996 101.101 44.1 101.112 44.7003V44.7004V44.7006V44.7007V44.7009V44.701V44.7012V44.7014V44.7016C101.135 45.8711 101.157 47.0406 101.256 48.2037C101.406 49.9829 101.122 51.6977 100.725 53.3989C100.268 55.3578 98.7789 56.3023 96.9741 56.7424C96.2139 56.9278 95.4204 56.9814 94.6285 57.0348L94.6282 57.0348C94.3548 57.0533 94.0816 57.0718 93.81 57.0956C91.0156 57.3411 88.2387 57.6869 85.5389 58.4873C84.7016 58.7355 83.9016 58.6212 83.1995 58.1545C81.7822 57.2124 80.1812 56.8679 78.5486 56.6039C75.5039 56.1115 72.6133 55.281 70.382 52.965C69.793 52.3537 69.4152 51.6994 69.4531 50.7787C69.5204 49.1458 69.2847 47.5388 69.0493 45.9335L69.0493 45.9335C68.9148 45.0166 68.7804 44.1003 68.7026 43.1801C68.4674 40.3979 68.5705 37.6028 69.4212 34.8317C70.3699 31.7411 71.8171 29.0108 74.1133 26.7822C74.744 26.17 75.5061 25.6939 76.2687 25.2175L76.2688 25.2174C76.6409 24.9849 77.0132 24.7524 77.3704 24.5039L77.4305 24.4621C77.8212 24.1904 78.2159 23.9161 78.5603 23.5918C79.0848 23.0978 79.403 23.3586 79.7304 23.8127C80.1214 24.355 80.5281 24.886 80.961 25.4514L80.9611 25.4515L81.0927 25.6233ZM98.0092 30.6279C97.9655 30.5235 97.9213 30.4193 97.8772 30.315C97.7824 30.0908 97.6875 29.8666 97.5962 29.6409C96.7253 27.4906 95.1864 25.9816 93.0794 25.0741C92.7521 24.9331 92.1825 25.015 91.8873 25.2236C91.6417 25.3972 91.4691 25.67 91.2951 25.9451L91.2951 25.9451C91.1966 26.1007 91.0978 26.2571 90.9849 26.3966C89.9768 27.6432 88.7948 28.6178 87.0696 28.4642C86.002 28.3691 84.9234 28.232 83.8898 27.9611C82.2697 27.5365 80.7945 26.7745 79.7464 25.4159L79.6442 25.283C78.9556 24.3867 78.9471 24.3756 78.0086 25.0055C77.6992 25.2132 77.3811 25.4121 77.0629 25.6112L77.0628 25.6113C76.2695 26.1074 75.4752 26.6042 74.8127 27.2375C72.5725 29.379 71.1011 31.9532 70.2184 35.0002C69.4228 37.7465 69.3747 40.4694 69.5052 43.2231C69.6112 45.4591 69.9671 47.6896 70.3224 49.9048L70.3457 50.0514C70.5013 51.0327 70.6612 52.0419 71.5176 52.8014C73.1399 54.2401 75.0622 55.0142 77.129 55.4261C77.4092 55.4819 77.6897 55.5358 77.97 55.5896L77.9704 55.5896C79.9414 55.9679 81.9003 56.3438 83.6755 57.4042C84.0897 57.6516 84.7164 57.7061 85.2107 57.6288C86.3226 57.4548 87.4301 57.2521 88.5376 57.0494L88.5378 57.0494L88.538 57.0493L88.5382 57.0493L88.5384 57.0493L88.5386 57.0492L88.5388 57.0492L88.539 57.0491L88.5392 57.0491C89.6872 56.839 90.8351 56.6289 91.988 56.4507C92.6414 56.3498 93.3034 56.2953 93.9648 56.2409L93.9649 56.2409L93.965 56.2409L93.9651 56.2409L93.9652 56.2409L93.9653 56.2409L93.9654 56.2408L93.9655 56.2408H93.9655C94.8689 56.1665 95.7711 56.0923 96.6488 55.8999C97.8576 55.6348 99.2167 55.225 99.6086 53.8105C99.9894 52.4358 100.318 51.0064 100.37 49.5899C100.442 47.6319 100.36 45.6667 100.277 43.7042C100.262 43.3472 100.247 42.9903 100.233 42.6335C100.205 41.9067 100.143 41.1811 100.082 40.4556C100.015 39.6567 99.9475 38.858 99.9236 38.0579C99.849 35.5647 98.9972 33.2789 98.112 30.9039L98.0092 30.6279ZM96.3223 38.8786C94.9217 37.7843 93.2792 37.5602 91.4741 37.7418C91.3066 37.7718 91.1641 37.8053 91.0324 37.8363L91.0322 37.8363L91.0322 37.8363C90.9217 37.8623 90.8187 37.8865 90.7148 37.9054C89.0089 38.2155 87.5465 38.9118 86.5416 40.4091C86.4362 40.5661 86.0422 40.6458 85.8248 40.5913C84.8662 40.3509 83.9763 40.3307 83.2317 41.1058C83.1395 41.2018 83.0538 41.3041 82.9681 41.4064C82.9287 41.4534 82.8892 41.5005 82.8491 41.547C82.834 41.4784 82.8131 41.4094 82.7923 41.3403C82.7473 41.1913 82.7022 41.0424 82.7147 40.8984C82.8636 39.1856 82.0432 38.1191 80.5492 37.3989C79.151 36.7249 77.6825 36.5812 76.1721 36.583C73.8715 36.5858 71.9121 38.0756 71.1034 40.2542C70.6095 41.5847 70.7434 42.8783 71.1693 44.1073C71.5851 45.3068 72.0576 46.589 73.2931 47.2542C73.4495 47.3383 73.6067 47.4266 73.765 47.5154L73.7653 47.5155L73.7655 47.5156C74.4912 47.9228 75.2383 48.3419 76.0107 48.4343C76.08 48.4426 76.1497 48.4511 76.2196 48.4597C77.3655 48.6001 78.5946 48.7507 79.6771 47.9773C81.3133 46.8083 82.2058 45.1559 82.6794 43.2807C82.903 42.3958 83.3545 41.8634 84.1435 41.5097C85.3309 40.9774 86.0757 41.4455 86.1996 42.6751C86.3446 44.1134 86.6611 45.5282 87.504 46.7602C88.4915 48.2037 89.8325 49.0815 91.488 49.692C93.4831 50.4277 94.9168 49.9794 96.3634 48.8096C99.0517 46.6357 99.3193 41.2201 96.3223 38.8786ZM90.0785 38.9438C91.2062 38.6074 92.4303 38.4987 93.6248 38.8172C94.9812 38.9193 95.8721 39.684 96.5293 40.6129C97.189 41.5452 97.7873 42.6022 97.7452 43.8106C97.7 45.1069 97.2125 46.2741 96.398 47.2939C95.699 48.169 94.7886 48.7282 93.7085 48.9681C93.4822 49.0183 93.2275 48.9528 92.9764 48.8882C92.8866 48.8651 92.7973 48.8421 92.7099 48.8246C89.8353 48.2483 87.911 46.6742 87.3385 43.6892C87.302 43.4988 87.2556 43.31 87.2094 43.1217C87.0237 42.3649 86.84 41.6164 87.3043 40.8078C87.9397 39.7013 89.0172 39.2603 90.0785 38.9438ZM81.7107 40.8935C81.8899 42.4144 81.3977 43.782 80.7204 45.104C80.5843 45.2849 80.4673 45.4571 80.3568 45.6198C80.195 45.8579 80.0471 46.0756 79.8734 46.2702C78.9168 47.3419 77.7732 47.6786 76.3222 47.3724C75.3052 47.1578 74.4003 46.8946 73.5548 46.2476C72.536 45.4682 72.0991 44.3926 71.8068 43.2607C71.3411 41.4574 71.9756 39.9437 73.2682 38.6489C74.3119 37.6034 75.632 37.4734 76.9507 37.6059C78.2204 37.7335 79.46 38.0485 80.5803 38.7997C81.3833 39.3382 81.6116 40.0519 81.7107 40.8935ZM81.3821 34.5985C82.2238 34.6458 82.9227 34.5569 83.5598 34.0424C83.6765 33.9482 83.9214 34.0126 84.1663 34.0771C84.2787 34.1067 84.3911 34.1363 84.4911 34.1506C84.444 34.205 84.3984 34.2611 84.3529 34.3173C84.2543 34.4387 84.1558 34.5601 84.0412 34.6637C82.975 35.6274 81.8017 35.56 80.5038 35.1585C79.3695 34.8076 78.1782 34.5368 76.9975 34.4635C75.2246 34.3534 73.7083 35.0432 72.5226 36.4103C72.4202 36.5283 72.2617 36.5977 72.1032 36.6671C72.0298 36.6993 71.9563 36.7314 71.8885 36.7684C71.9101 36.6727 71.9223 36.569 71.9345 36.4653C71.9607 36.2419 71.9869 36.0186 72.1079 35.8755C74.0864 33.5364 76.6627 33.4395 79.3903 34.023C79.7722 34.1047 80.1464 34.2225 80.5364 34.3452L80.5365 34.3453L80.5368 34.3453L80.5369 34.3454L80.5371 34.3454L80.5371 34.3455L80.5372 34.3455L80.5372 34.3455L80.5373 34.3455L80.5374 34.3455L80.5374 34.3455C80.8086 34.4309 81.0876 34.5187 81.3821 34.5985ZM94.4401 35.1903C92.8284 34.9432 91.2243 34.9711 89.7783 36.0461C89.5671 36.2022 89.3589 36.3515 89.1541 36.4984C88.7438 36.7926 88.3476 37.0767 87.9706 37.3844C87.8856 37.4538 87.8725 37.6114 87.8594 37.7689C87.8534 37.8415 87.8474 37.914 87.8343 37.9779C87.8909 37.9706 87.9503 37.9682 88.0097 37.9658C88.1411 37.9604 88.2725 37.955 88.3731 37.8967C88.6616 37.7295 88.9237 37.5127 89.1824 37.2987L89.1946 37.2886C90.7992 35.9615 92.5822 35.4257 94.6371 36.0203C95.3513 36.227 96.0718 36.4173 96.7991 36.5689C96.9171 36.5935 97.0532 36.5308 97.1894 36.468C97.252 36.4392 97.3147 36.4103 97.3756 36.39C97.3293 36.3408 97.2859 36.2836 97.2424 36.2264C97.148 36.1022 97.0536 35.9781 96.931 35.9358C96.775 35.8821 96.6189 35.8265 96.4626 35.7709C95.7974 35.5341 95.1278 35.2957 94.4401 35.1903ZM85.725 52.5075C84.7552 52.5764 83.8258 52.633 82.8989 52.6064C82.7761 52.6029 82.6576 52.4473 82.5392 52.2917C82.4845 52.2199 82.4299 52.1481 82.3748 52.0913C82.4461 52.0612 82.5171 52.0239 82.588 51.9867L82.5881 51.9867C82.7427 51.9055 82.8972 51.8244 83.0552 51.8172C83.9089 51.7785 84.765 51.7813 85.62 51.7908C85.8241 51.7931 86.0279 51.8259 86.2317 51.8586C86.3248 51.8736 86.4178 51.8885 86.5109 51.9006C86.2627 52.0891 86.0145 52.2776 85.725 52.5075ZM93.9636 40.5165C93.3746 41.171 93.4388 42.5491 94.1301 43.2452C95.5315 43.2865 96.3723 41.8813 95.7197 40.6988C95.3574 40.0423 94.4729 39.9505 93.9636 40.5165ZM78.7698 39.6871C79.0648 40.5585 78.8719 41.4609 78.2141 41.9472C78.0229 42.0885 77.5384 42.1326 77.4034 42.0009C76.643 41.2587 76.5155 40.0026 77.6037 39.3506C78.0992 39.0536 78.4527 39.1912 78.7698 39.6871ZM132.012 35.743C132.439 36.3853 132.87 37.0321 133.454 37.5857C133.492 38.8402 133.504 40.0104 133.181 41.1543C133.124 41.3595 133.167 41.5526 133.21 41.7476C133.245 41.9066 133.475 42.0211 133.609 41.9449C133.782 41.8463 133.952 41.7416 134.115 41.6266C134.225 41.5493 134.333 41.4709 134.442 41.3925C134.903 41.0598 135.363 40.7272 135.879 40.477C135.941 40.4465 136.004 40.4164 136.067 40.3863C136.306 40.2717 136.545 40.157 136.774 40.0231C137.026 39.8748 137.27 39.8539 137.541 39.9462C138.473 40.2644 139.435 40.4614 140.397 40.6584C140.55 40.6898 140.704 40.7213 140.857 40.7532C140.903 40.7628 140.949 40.7732 140.995 40.7835C141.112 40.8098 141.23 40.8361 141.348 40.8509C141.731 40.8986 142.115 40.9356 142.498 40.9726C143.113 41.0318 143.728 41.091 144.337 41.1945C144.468 41.2169 144.607 41.2264 144.738 41.209C145.047 41.1679 145.359 41.1401 145.67 41.1123C146.292 41.0568 146.914 41.0013 147.522 40.8395C147.937 40.7288 148.35 40.6049 148.762 40.4811C148.926 40.4316 149.091 40.3821 149.256 40.3335C149.332 40.3109 149.409 40.2883 149.486 40.2657C149.922 40.137 150.359 40.0083 150.794 39.8758C150.921 39.8372 151.047 39.7898 151.165 39.7304C151.268 39.6789 151.37 39.6277 151.473 39.5766C152.327 39.1515 153.179 38.727 153.952 38.1515C154.05 38.079 154.149 38.0086 154.247 37.9382C154.556 37.718 154.864 37.4986 155.127 37.219C155.287 37.0497 155.465 36.8967 155.642 36.7447L155.644 36.7427C156.157 36.3024 156.569 35.7758 156.949 35.2232C157.425 34.5319 157.619 33.7326 157.812 32.9343L157.824 32.8883C157.8 32.6044 157.855 32.331 157.91 32.0574C157.933 31.938 157.957 31.8185 157.975 31.6982C158.218 30.0188 158.001 28.4305 157 27.004C156.878 26.8298 156.777 26.6406 156.676 26.4516C156.634 26.3744 156.593 26.2972 156.55 26.221C156.304 25.781 156.028 25.3625 155.668 25.0053C154.882 24.2252 154.051 23.5071 153.071 22.9662C152.376 22.5823 151.651 22.2695 150.925 21.9561C150.761 21.8852 150.597 21.8144 150.433 21.7426C149.16 21.1857 147.834 20.8759 146.463 20.7365C146.041 20.6937 145.616 20.6715 145.192 20.6494C144.981 20.6384 144.77 20.6274 144.559 20.6139C143.388 20.5383 142.216 20.5124 141.045 20.606C140.045 20.6858 139.046 20.781 138.047 20.8762C137.847 20.8952 137.648 20.9142 137.448 20.9331C137.351 20.9423 137.253 20.9802 137.164 21.0226C136.695 21.2453 136.211 21.4314 135.728 21.6174C135.464 21.7189 135.2 21.8204 134.938 21.9279C133.8 22.3957 132.823 23.0671 132.131 24.1098C132.031 24.2606 131.921 24.4048 131.811 24.5491C131.718 24.6712 131.625 24.7933 131.538 24.9193C130.907 25.8338 130.369 26.7953 130.147 27.8994C130.104 28.116 130.078 28.336 130.052 28.5561C130.035 28.7016 130.018 28.8472 129.996 28.9918C129.884 29.7226 129.878 30.4408 130.025 31.1776C130.278 32.4394 130.797 33.5935 131.329 34.7478C131.343 34.7779 131.362 34.806 131.382 34.8329C131.602 35.128 131.807 35.435 132.012 35.743ZM134.071 40.4687C134.066 40.4692 134.061 40.4697 134.056 40.4704C134.052 40.4764 134.06 40.4849 134.08 40.4956C134.077 40.4867 134.074 40.4777 134.071 40.4687ZM134.154 40.4657C134.126 40.4661 134.098 40.4664 134.071 40.4687C134.015 40.2783 134.046 40.0859 134.1 39.903C134.231 39.4554 134.288 38.9959 134.345 38.5366C134.379 38.2653 134.412 37.9941 134.461 37.7254C134.492 37.5563 134.454 37.3837 134.274 37.3006C133.703 37.037 133.331 36.5584 132.974 36.0751C132.677 35.6721 132.394 35.2511 132.163 34.8076C131.948 34.3951 131.789 33.9494 131.643 33.506C131.454 32.9342 131.292 32.3532 131.141 31.7703C131.005 31.2488 130.992 30.7105 130.996 30.1741C130.997 30.0577 131.005 29.9412 131.013 29.8248C131.023 29.6733 131.034 29.5219 131.029 29.3709C130.975 27.7228 131.637 26.3127 132.483 24.9646C133.015 24.1175 133.778 23.4986 134.648 23.0598C135.661 22.5494 136.714 22.1018 137.834 21.8628C138.881 21.6393 139.935 21.4541 141.011 21.4181C141.408 21.4048 141.802 21.3833 142.195 21.248C142.466 21.1547 142.777 21.1571 143.076 21.1595C143.114 21.1597 143.151 21.16 143.187 21.1601C143.589 21.1614 143.991 21.1883 144.39 21.2325C144.425 21.2364 144.46 21.2403 144.495 21.2442C144.892 21.2886 145.288 21.3329 145.69 21.3381C145.958 21.3418 146.226 21.4003 146.491 21.4579C146.521 21.4645 146.551 21.471 146.581 21.4775C147.283 21.6287 147.964 21.8507 148.646 22.0728C149.078 22.2136 149.51 22.3545 149.947 22.4773C150.198 22.5996 150.448 22.7214 150.699 22.8433C151.26 23.1158 151.821 23.3884 152.379 23.6667C153.467 24.2092 154.333 25.039 155.197 25.8677L155.289 25.9555C155.885 26.5261 156.238 27.2543 156.502 28.0142C156.753 28.7396 156.928 29.4888 156.98 30.2657C157.068 31.5604 156.846 32.7919 156.387 34.0013C155.909 35.2609 155.137 36.3068 154.072 37.0933C152.696 38.1092 151.198 38.9316 149.563 39.4703C148.866 39.7001 148.169 39.9292 147.445 40.0803C146.354 40.3079 145.253 40.3272 144.148 40.3389C144.103 40.3393 144.057 40.3372 144.012 40.335C143.957 40.3324 143.902 40.3298 143.846 40.3319C141.838 40.4068 139.932 39.9128 138.046 39.2999C137.866 39.2413 137.684 39.1891 137.502 39.1369C137.395 39.1063 137.288 39.0757 137.182 39.0439C136.975 38.9819 136.782 39.0167 136.607 39.1343C136.27 39.3613 135.909 39.5464 135.548 39.7314C135.135 39.9431 134.722 40.1549 134.344 40.4296C134.297 40.4641 134.225 40.4649 134.154 40.4657Z" fill="#00160A"/>
  <path fill-rule="evenodd" clip-rule="evenodd" d="M110.177 93.5079L110.177 93.5078C110.322 93.3808 110.469 93.2514 110.624 93.1231C110.726 92.9883 110.831 92.8598 110.933 92.734L110.933 92.7337L110.934 92.7335C111.182 92.4275 111.418 92.1372 111.584 91.811C111.994 91.0021 111.776 90.7107 110.911 90.3226C110.517 90.1457 110.156 89.8987 109.793 89.6511L109.793 89.6511C109.556 89.489 109.318 89.3267 109.071 89.1838L109.016 89.1516C108.681 88.9576 108.317 88.7461 107.952 88.716C106.047 88.5588 104.414 91.0726 105.173 92.8934C105.958 94.7756 107.522 95.3451 109.158 94.3127C109.517 94.0867 109.839 93.8038 110.177 93.5079ZM105.864 92.1272C105.813 91.4925 105.901 90.9113 106.364 90.4346C106.483 90.3433 106.584 90.2771 106.673 90.2191C106.759 90.1629 106.834 90.1144 106.901 90.0579C107.703 89.3903 108.217 89.434 109.014 90.0818C109.486 90.4645 110.047 90.7618 110.611 90.9961C111.043 91.1761 111.087 91.4219 110.821 91.6776C110.652 91.8403 110.484 92.0078 110.316 92.1757C109.725 92.767 109.129 93.363 108.428 93.7706C107.36 94.391 105.967 93.4014 105.864 92.1272ZM57.3933 93.3299L57.5156 93.2213L57.5156 93.2213C58.2013 92.6126 58.859 92.0288 59.5945 91.5697C60.4114 91.0598 61.3399 91.2783 62.0584 91.9505C63.163 92.9838 63.8958 92.8637 64.6165 91.9819C64.6859 91.897 64.7623 91.8127 64.8506 91.7492C64.9465 91.6802 65.0415 91.6043 65.137 91.5278C65.5651 91.1853 66.0052 90.8332 66.5932 91.0592C67.3183 91.3379 67.6096 91.9963 67.8384 92.7463C68.3597 94.4548 67.2999 95.9059 65.9728 96.6625C64.448 97.5318 62.8056 97.8711 61.1207 98.1231C59.9102 98.3041 57.578 97.252 57.0533 96.3954C56.3761 95.2896 56.7892 94.3502 57.3933 93.3299ZM64.5071 96.3906C64.5779 96.3552 64.6489 96.3201 64.7199 96.285C65.9674 95.6681 67.2077 95.0547 66.9979 93.2607C66.9869 93.166 66.9816 93.067 66.9763 92.9677L66.9763 92.9676L66.9763 92.9676L66.9763 92.9675L66.9763 92.9674L66.9763 92.9674L66.9763 92.9673L66.9763 92.9672L66.9763 92.9672C66.9522 92.5163 66.928 92.0615 66.3629 92.0038C66.0033 91.967 65.5288 92.2684 65.231 92.5493C63.9971 93.7133 62.9736 93.8237 61.6797 92.6036C61.285 92.2314 60.843 91.8455 60.0925 92.1424C58.7861 92.6592 58.2051 93.7356 57.7593 94.8859C57.5559 95.4105 57.6084 96.1473 58.3947 96.3948C58.6281 96.4683 58.8625 96.5562 59.0973 96.6443C59.6974 96.8695 60.3003 97.0957 60.8968 97.0846C61.8399 97.067 62.7789 96.8276 63.7608 96.5773L63.7609 96.5773L63.7609 96.5773L63.7609 96.5773L63.7609 96.5773L63.7609 96.5773L63.7609 96.5773L63.761 96.5773L63.761 96.5773L63.761 96.5773L63.761 96.5773L63.761 96.5773L63.761 96.5773L63.7611 96.5773C64.0068 96.5146 64.2552 96.4513 64.5071 96.3906ZM92.2598 138.619C92.2269 138.687 92.1943 138.754 92.1617 138.821C91.6249 139.927 91.106 140.995 89.9002 141.466C88.6446 141.956 86.6169 142.117 85.6304 140.863C85.0459 140.121 85.0072 139.134 85.6623 138.429C85.8697 138.206 86.0896 137.99 86.3098 137.773C86.8679 137.223 87.4273 136.673 87.7851 136.014C88.1271 135.384 88.2799 134.651 88.4328 133.918L88.4328 133.918L88.4328 133.918L88.4329 133.918L88.4329 133.918L88.4329 133.918L88.4329 133.918L88.433 133.918L88.433 133.918L88.433 133.918L88.433 133.918L88.433 133.917L88.4331 133.917L88.4331 133.917L88.4331 133.917C88.5035 133.58 88.5739 133.242 88.6629 132.914C88.9464 131.87 89.2435 130.812 90.269 130.232C91.0078 129.815 91.596 130.086 92.1481 130.759C93.1506 131.981 93.0549 133.362 92.9601 134.729C92.9356 135.083 92.9111 135.437 92.9058 135.786C92.8955 136.467 92.6922 137.145 92.4841 137.838L92.4841 137.839L92.4841 137.839L92.484 137.839L92.484 137.839L92.484 137.839L92.484 137.839L92.4839 137.839L92.4839 137.839L92.4839 137.839L92.4839 137.839L92.4838 137.839L92.4838 137.839L92.4838 137.839C92.4066 138.097 92.3287 138.356 92.2598 138.619ZM89.7923 133.454L89.7696 133.598C89.5921 134.723 89.4131 135.857 88.6498 136.763C88.0712 137.45 87.4176 138.086 86.7306 138.666C86.0822 139.213 85.9705 139.858 86.5542 140.441C87.5818 141.468 90.0737 141.001 90.7998 139.596C91.231 138.762 91.5973 137.883 91.8873 136.989C92.4238 135.336 92.0914 133.72 91.4819 132.152C91.3896 131.915 91.1302 131.604 90.9279 131.588C90.7378 131.573 90.4731 131.872 90.3274 132.091C90.1173 132.406 89.9851 132.773 89.8197 133.284L89.807 133.362L89.7923 133.454ZM89.9309 98.7622C89.1724 98.2173 88.4512 98.2085 87.6725 98.3867C86.3979 98.6785 85.0202 100.164 85.0202 101.684C85.0202 103.214 85.7011 104.334 86.9562 105.056C88.1675 105.753 89.4424 106.239 90.9449 106.102C92.7043 105.941 94.0341 105.252 94.7535 103.644C94.9033 103.309 94.8892 102.901 94.8751 102.493V102.493C94.8687 102.306 94.8622 102.119 94.8715 101.939C94.7168 101.94 94.5575 101.928 94.3981 101.916C94.0396 101.89 93.6811 101.864 93.3758 101.978C92.8072 102.193 92.5033 101.996 92.3122 101.571C91.7842 100.399 90.9844 99.5189 89.9309 98.7622ZM87.2587 99.6315C87.9915 99.2864 89.3421 98.9022 90.1435 99.6315C90.9449 100.361 91.2485 101.044 91.4498 101.512C91.9358 102.64 92.6191 103.011 93.7731 102.7C93.8819 102.671 93.9987 102.671 94.1154 102.671C94.1694 102.671 94.2235 102.671 94.2768 102.668C94.2604 102.721 94.2457 102.775 94.2309 102.829C94.1993 102.946 94.1676 103.062 94.1194 103.171C92.9792 105.754 89.3147 105.369 87.6016 104.279C86.5565 103.613 85.9627 102.746 86.0132 101.482C86.0482 100.606 86.5044 99.9868 87.2587 99.6315ZM94.7415 120.09C94.5466 120.255 94.362 120.43 94.1801 120.602C93.7695 120.99 93.3728 121.365 92.9036 121.587C91.8785 122.07 90.7843 121.822 89.7871 121.331C88.1041 120.504 87.0659 119.245 87.1699 117.253C87.2441 115.834 88.0916 115.006 89.2363 114.323C90.2015 113.748 91.1441 113.627 92.1533 114.113C92.9077 114.476 93.1154 115.18 93.3206 115.874C93.3616 116.014 93.4026 116.152 93.4479 116.288C93.5067 116.464 93.5226 116.656 93.5385 116.846V116.846C93.5558 117.054 93.573 117.261 93.6454 117.448C93.7502 117.718 94.0047 118.053 94.258 118.123C95.5057 118.469 95.6298 118.775 94.8442 119.827C94.8231 119.855 94.8126 119.892 94.8001 119.935C94.7872 119.979 94.7722 120.031 94.7415 120.09ZM93.1283 120.214C93.1642 120.196 93.2015 120.179 93.2389 120.162C93.3194 120.126 93.3999 120.091 93.4657 120.037C94.2539 119.393 94.2515 119.391 93.4935 118.734L93.4538 118.7C93.232 118.507 93.0524 118.203 92.9765 117.918C92.8982 117.623 92.8442 117.319 92.7904 117.017L92.7904 117.017C92.7032 116.526 92.6163 116.037 92.4262 115.59C92.2576 115.194 91.7124 114.792 91.2772 114.71C90.3875 114.542 88.4252 116.128 88.3465 117.035C88.2403 118.257 88.6073 119.298 89.7417 119.982C90.8062 120.624 91.8672 120.995 93.1283 120.214ZM47.7056 104.779C49.5298 103.608 50.6977 102.053 50.941 99.7821C50.941 99.5807 50.9479 99.3867 50.9545 99.1984V99.1983V99.1983V99.1983V99.1983V99.1983V99.1983V99.1983V99.1982V99.1982V99.1982V99.1982C50.9688 98.7947 50.9821 98.4175 50.9251 98.0513C50.8012 97.2564 50.5395 96.4835 49.4428 96.6611C48.9063 96.7481 48.3551 96.9945 47.9036 97.3042C46.9694 97.945 46.6541 99.0052 46.3542 100.013L46.3273 100.104C45.8831 101.594 45.1937 102.643 43.4276 102.642C43.1198 102.642 42.6191 103.22 42.5406 103.6C42.3265 104.635 43.3587 105.696 44.4682 105.739C45.657 105.784 46.6987 105.425 47.7056 104.779ZM45.3548 104.845C45.2587 104.865 45.1625 104.886 45.0681 104.911C44.2692 105 43.8883 104.582 43.5209 104.179C43.4921 104.147 43.4633 104.115 43.4344 104.084C43.3754 104.02 43.4067 103.761 43.4802 103.707L43.5336 103.668C43.7653 103.499 44.0172 103.316 44.2831 103.271C45.6267 103.042 46.3701 102.26 46.8348 100.989C47.2262 99.9195 47.8145 98.9033 48.4476 97.9511C48.6499 97.6468 49.2829 97.5014 49.7009 97.5317C49.8641 97.5435 50.0879 98.2364 50.0965 98.6233C50.1651 101.679 48.4668 103.582 45.9601 104.672C45.7694 104.755 45.5621 104.8 45.3548 104.845ZM48.9144 112.149C49.2403 111.163 49.9493 110.531 50.6488 109.908C50.8962 109.688 51.1424 109.469 51.37 109.235C51.8214 108.772 52.8616 109.379 53.0921 110.164C53.1884 110.492 53.2823 110.82 53.3762 111.149C53.6128 111.977 53.8493 112.805 54.1239 113.62C54.3621 114.327 54.2635 114.881 53.7569 115.434C53.3732 115.853 53.0262 116.332 52.7733 116.84C52.1518 118.087 51.2373 118.398 49.8498 117.312C48.0174 115.878 48.2611 114.076 48.9144 112.149ZM53.2571 113.927L52.9485 113.155L52.9482 113.154C52.6649 112.445 52.3815 111.736 52.0998 111.026C52.042 110.881 51.9891 110.733 51.9363 110.586C51.912 110.518 51.8877 110.45 51.8629 110.382C51.7914 110.417 51.7175 110.448 51.6436 110.478C51.4834 110.546 51.3232 110.613 51.187 110.713C50.1767 111.453 49.6988 112.555 49.4871 113.707C49.3185 114.624 49.2782 115.669 50.0064 116.428C50.3407 116.776 50.8739 116.984 51.3548 117.105C51.4284 117.124 51.5599 116.894 51.6995 116.651C51.7787 116.513 51.8604 116.371 51.9355 116.267C52.063 116.09 52.1953 115.916 52.3275 115.743L52.3276 115.743L52.3276 115.743L52.3276 115.743C52.5448 115.458 52.762 115.173 52.9577 114.873C53.0913 114.669 53.1481 114.415 53.228 114.057L53.2571 113.927ZM71.8991 109.123C70.2327 108.492 68.5727 108.873 68.4777 111.032C68.5783 111.263 68.6712 111.494 68.7629 111.722L68.7629 111.722C69.0229 112.369 69.2725 112.99 69.6576 113.511C71.047 115.391 72.8045 115.956 74.7589 115.173C76.0016 114.675 76.0072 113.538 75.1751 112.824C74.3932 112.154 73.72 111.399 73.3062 110.384C73.0891 109.851 72.4599 109.335 71.8991 109.123ZM73.5575 114.355C72.6591 114.519 71.7544 114.684 71.0418 113.845C70.1562 112.973 69.5444 112.089 69.4655 110.916C69.4338 110.444 69.6203 110.187 70.0619 110.012C70.682 109.765 72.1088 110.066 72.2464 110.679C72.4414 111.547 72.9551 112.175 73.4693 112.804C73.6724 113.053 73.8755 113.301 74.0591 113.565C74.1659 113.718 74.2796 113.996 74.2117 114.108C74.1286 114.245 73.8631 114.3 73.6666 114.335L73.5575 114.355ZM67.816 131.216C67.8491 131.015 67.8688 130.813 67.8881 130.617C67.9332 130.156 67.9757 129.723 68.1792 129.388C68.7061 128.518 68.5831 127.77 68.151 126.965C68.1086 126.886 68.0854 126.797 68.0622 126.708C68.0398 126.622 68.0174 126.536 67.9777 126.459C67.6265 125.776 67.7913 125.106 68.4046 124.821C68.8359 124.621 69.557 124.684 69.9924 124.919C71.4077 125.683 72.0495 127.038 72.2678 128.566C72.4585 129.9 72.1592 131.198 71.616 132.422C70.9154 134.002 69.5007 133.801 68.5984 132.864C68.315 132.57 68.1627 132.15 68.0017 131.705L68.0017 131.705C67.9432 131.544 67.8836 131.379 67.816 131.216ZM70.6284 126.832C70.5439 126.747 70.4609 126.661 70.3779 126.575C70.1736 126.362 69.9693 126.15 69.7428 125.964C69.647 125.886 69.5088 125.86 69.3705 125.833C69.3078 125.821 69.245 125.809 69.1862 125.792C69.1723 125.858 69.1478 125.93 69.1233 126.002C69.0703 126.156 69.0174 126.311 69.071 126.406C69.6648 127.454 69.5295 128.419 68.9075 129.405C68.7763 129.613 68.7283 129.873 68.6803 130.133C68.6565 130.262 68.6327 130.391 68.5987 130.515C68.4139 131.185 68.9065 132.457 69.5339 132.65L69.5873 132.667C69.9218 132.772 70.3726 132.913 70.6385 132.355C71.4944 130.557 71.7784 128.781 70.6284 126.832ZM119.327 109.678C120.392 110.146 122.181 109.99 123.528 108.509C123.628 108.356 123.727 108.206 123.825 108.059C124.131 107.598 124.423 107.158 124.67 106.693C125.289 105.532 124.217 103.743 122.892 103.77C122.516 103.777 122.141 103.849 121.766 103.92C121.417 103.987 121.067 104.053 120.716 104.068C119.653 104.114 118.809 104.492 118.215 105.385C117.188 106.929 117.574 108.908 119.327 109.678ZM121.014 105.244C121.066 105.243 121.118 105.242 121.171 105.242C121.295 105.221 121.414 105.206 121.526 105.193C121.829 105.157 122.075 105.127 122.214 104.989C122.667 104.538 123.061 104.748 123.41 105.022C123.788 105.319 123.997 105.683 123.815 106.262C123.387 107.628 122.614 108.635 121.2 108.999C120.408 109.202 119.667 109.007 119.119 108.321C118.623 107.702 118.547 107.045 118.912 106.343C119.282 105.633 119.8 105.153 120.675 105.239C120.787 105.25 120.9 105.247 121.014 105.244ZM100.532 107.186C101.576 106.496 102.57 106.452 103.518 107.234C103.786 107.456 104.023 107.74 104.202 108.038C104.281 108.17 104.328 108.325 104.374 108.478C104.434 108.676 104.494 108.872 104.62 109.011C105.18 109.629 104.83 110.183 104.372 110.41C103.214 110.982 101.994 111.449 100.76 111.834C100.11 112.037 99.2425 111.269 99.0849 110.535C98.739 108.924 99.3918 107.862 100.532 107.186ZM103.386 109.46C103.306 109.351 103.226 109.241 103.147 109.131C102.954 108.864 102.761 108.596 102.553 108.341L102.535 108.318C102.395 108.146 102.216 107.926 102.036 107.906C100.691 107.76 99.5377 109.315 100.087 110.53C100.248 110.888 100.58 111.272 100.973 110.852C101.516 110.272 102.187 110.153 102.897 110.028L102.946 110.02C103.142 109.985 103.295 109.708 103.386 109.46ZM97.7385 143.411C97.7108 143.545 97.6819 143.685 97.6366 143.831C97.6436 143.938 97.6725 144.034 97.6999 144.125C97.7267 144.213 97.752 144.297 97.754 144.382C97.8006 146.425 100.47 148.004 102.136 147.763C103.3 147.594 103.937 147.171 104.105 146.099C104.254 145.145 104.02 144.101 103.273 143.492C102.412 142.79 101.373 142.262 100.341 141.828C99.1142 141.313 98.34 141.725 97.8591 142.955C97.8033 143.098 97.7718 143.25 97.7385 143.411ZM98.9605 143.046C99.0335 142.908 99.1065 142.77 99.1671 142.631C99.3158 142.667 99.464 142.7 99.6111 142.734L99.6116 142.734C100.991 143.048 102.272 143.34 102.887 144.713C103.179 145.364 103.511 146.146 102.711 146.653C102.325 146.897 101.736 146.973 101.269 146.908C100.108 146.747 98.4586 145.495 98.6109 143.961C98.642 143.647 98.8012 143.347 98.9605 143.046ZM99.746 122.778C101.092 122.905 102.16 123.5 102.382 124.919C102.46 125.421 102.778 125.488 103.127 125.561L103.128 125.561L103.128 125.561C103.178 125.572 103.23 125.583 103.281 125.595C104.054 125.78 104.669 126.417 104.547 127.421C104.459 128.15 104.085 128.447 103.042 128.388C102.344 128.349 101.611 128.275 100.968 128.026C98.8863 127.22 98.2897 125.506 98.4365 123.694C98.4916 123.013 98.9941 122.736 99.746 122.778ZM102.807 126.418C101.914 126.474 101.488 125.94 101.418 125.161C101.345 124.338 100.756 124.075 100.175 123.816L100.109 123.786C99.6939 123.6 99.2053 124.083 99.2734 124.539C99.5279 126.241 101.467 127.72 103.205 127.587C103.847 127.537 103.766 127.207 103.534 126.869C103.458 126.758 103.32 126.69 103.156 126.61C103.047 126.557 102.927 126.498 102.807 126.418ZM83.0365 154.874C83.0565 154.656 83.0579 154.434 83.0592 154.218C83.0621 153.742 83.0648 153.292 83.2679 152.968C83.7633 152.177 84.3606 151.45 84.9579 150.723L84.9579 150.723C85.2011 150.427 85.4444 150.131 85.6807 149.831C86.0872 149.314 86.7178 149.015 87.2319 149.294C87.7543 149.578 88.2613 150.155 88.4604 150.716C88.9336 152.049 88.3368 153.195 87.4442 154.172C87.191 154.45 86.904 154.696 86.6167 154.942C86.3904 155.136 86.1639 155.33 85.9537 155.54C84.7874 156.703 83.7479 156.161 83.0365 154.874ZM85.9318 154.543C87.1236 153.76 87.8927 152.742 87.8421 151.231C87.8245 150.704 87.6268 150.352 87.1482 150.129C86.6453 149.894 86.3024 150.21 86.1476 150.55C85.7566 151.409 85.1981 152.143 84.6386 152.877L84.6385 152.877L84.6384 152.878C84.4448 153.132 84.2511 153.386 84.0641 153.646C83.8738 153.911 83.9913 154.55 84.1836 154.897C84.4077 155.301 84.856 155.233 85.2346 154.923C85.3271 154.847 85.4387 154.794 85.5675 154.734L85.5676 154.734C85.677 154.682 85.7988 154.625 85.9318 154.543ZM79.0453 144.993C79.5608 143.798 79.6387 142.515 79.3554 141.184C79.3318 141.16 79.3136 141.143 79.2994 141.13C79.2769 141.109 79.2644 141.097 79.2564 141.083C78.6848 140.066 78.0867 139.611 77.4151 139.833C76.565 140.115 76.2481 140.751 76.2179 141.674C76.1964 142.333 75.9351 142.914 75.0499 143.172C73.7361 143.555 73.8308 144.733 74.6413 145.37C74.9509 145.614 75.3447 145.755 75.7345 145.894C75.8571 145.938 75.9793 145.981 76.0984 146.028C76.8438 146.32 78.6773 145.847 79.0453 144.993ZM78.4673 141.722C78.5005 141.778 78.5336 141.834 78.5694 141.887C78.5694 142.183 78.5886 142.468 78.607 142.742C78.6454 143.314 78.6803 143.833 78.5288 144.291C78.1403 145.465 75.8323 145.674 75.0962 144.658C75.0175 144.549 75.2366 144.018 75.3875 143.983C76.6077 143.698 77.0607 142.908 77.1025 141.729C77.1116 141.473 77.3575 141.167 77.5821 141.008C77.6664 140.948 78.0224 141.215 78.2132 141.38C78.318 141.471 78.3927 141.597 78.4673 141.722Z" fill="#FFB61D"/>
  <path d="M145.518 30.1258C145.083 30.2791 144.516 30.4189 143.818 30.545C143.233 30.6397 142.821 30.7176 142.582 30.7789L147.566 31.5238C147.685 31.5416 147.775 31.5914 147.835 31.6732C147.896 31.7551 147.917 31.8553 147.899 31.974L147.884 32.0808C147.866 32.1995 147.816 32.2891 147.734 32.3497C147.652 32.4103 147.552 32.4317 147.433 32.4139L140.9 31.4375C140.424 31.779 140.139 32.2642 140.045 32.8932C139.937 33.6172 140.107 34.225 140.555 34.7166C141.016 35.2101 141.726 35.5286 142.688 35.6723C143.744 35.8301 144.582 35.7431 145.202 35.411C145.835 35.0689 146.249 34.6151 146.443 34.0495C146.526 33.8192 146.674 33.72 146.888 33.752L147.244 33.8052C147.35 33.8212 147.434 33.8701 147.495 33.9519C147.555 34.0338 147.578 34.1222 147.564 34.2171C147.483 34.763 147.221 35.2577 146.778 35.7012C146.338 36.1328 145.75 36.4515 145.016 36.6572C144.283 36.851 143.454 36.8788 142.528 36.7404C141.294 36.5559 140.342 36.1043 139.673 35.3855C139.016 34.6685 138.766 33.7819 138.924 32.7256C139.011 32.144 139.224 31.6482 139.565 31.238L138.888 31.1369C138.77 31.1191 138.68 31.0693 138.619 30.9875C138.559 30.9056 138.537 30.8054 138.555 30.6867L138.571 30.5799C138.589 30.4612 138.639 30.3716 138.72 30.311C138.802 30.2504 138.903 30.229 139.021 30.2468L140.534 30.4729C141.102 30.1694 141.872 29.9266 142.845 29.7445L142.902 29.7347L139.181 29.1786C139.062 29.1609 138.973 29.1111 138.912 29.0292C138.851 28.9474 138.83 28.8471 138.848 28.7284L138.864 28.6216C138.881 28.5029 138.931 28.4133 139.013 28.3528C139.095 28.2922 139.195 28.2708 139.314 28.2885L145.171 29.1638C145.622 28.9886 145.969 28.7736 146.214 28.5189C146.47 28.266 146.628 27.9378 146.688 27.5342C146.793 26.834 146.646 26.2722 146.249 25.8487C145.865 25.4152 145.299 25.1426 144.551 25.0308C143.696 24.9031 142.955 24.9925 142.327 25.299C141.712 25.5954 141.325 26.035 141.165 26.6178C141.134 26.7466 141.072 26.8344 140.98 26.8813C140.89 26.9164 140.803 26.9277 140.72 26.9153L140.364 26.8621C140.246 26.8444 140.156 26.7946 140.095 26.7127C140.047 26.6326 140.029 26.5451 140.044 26.4502C140.116 25.9636 140.348 25.5069 140.74 25.08C141.133 24.6413 141.667 24.3147 142.342 24.1001C143.031 23.8755 143.82 23.8296 144.711 23.9627C145.458 24.0744 146.078 24.3126 146.569 24.6773C147.075 25.0318 147.427 25.4728 147.627 26.0002C147.84 26.5294 147.9 27.0966 147.81 27.7019C147.705 28.4021 147.389 28.9737 146.862 29.4166L147.859 29.5656C147.978 29.5833 148.067 29.6331 148.128 29.715C148.188 29.7968 148.21 29.8971 148.192 30.0158L148.176 30.1226C148.158 30.2413 148.109 30.3309 148.027 30.3915C147.945 30.452 147.845 30.4734 147.726 30.4557L145.518 30.1258Z" fill="#FF9A76"/>
</svg>
